<?xml version="1.0" encoding="UTF-8" standalone="no"?>
<svg
   xmlns:dc="http://purl.org/dc/elements/1.1/"
   xmlns:cc="http://creativecommons.org/ns#"
   xmlns:rdf="http://www.w3.org/1999/02/22-rdf-syntax-ns#"
   xmlns:svg="http://www.w3.org/2000/svg"
   xmlns="http://www.w3.org/2000/svg"
   xmlns:sodipodi="http://sodipodi.sourceforge.net/DTD/sodipodi-0.dtd"
   xmlns:inkscape="http://www.inkscape.org/namespaces/inkscape"
   width="22"
   height="22"
   viewBox="0 0 5.821 5.821"
   version="1.1"
   id="svg4"
   sodipodi:docname="emblem-favorite.svg"
   inkscape:version="1.0.1 (3bc2e813f5, 2020-09-07)">
  <metadata
     id="metadata10">
    <rdf:RDF>
      <cc:Work
         rdf:about="">
        <dc:format>image/svg+xml</dc:format>
        <dc:type
           rdf:resource="http://purl.org/dc/dcmitype/StillImage" />
        <dc:title />
      </cc:Work>
    </rdf:RDF>
  </metadata>
  <defs
     id="defs8" />
  <sodipodi:namedview
     pagecolor="#f4f4f7fff"
     bordercolor="#8b9cbe666"
     borderopacity="1"
     objecttolerance="10"
     gridtolerance="10"
     guidetolerance="10"
     inkscape:pageopacity="0"
     inkscape:pageshadow="2"
     inkscape:window-width="1801"
     inkscape:window-height="906"
     id="namedview6"
     showgrid="false"
     inkscape:zoom="36.590909"
     inkscape:cx="11"
     inkscape:cy="11"
     inkscape:window-x="119"
     inkscape:window-y="66"
     inkscape:window-maximized="0"
     inkscape:current-layer="svg4"
     inkscape:document-rotation="0" />
  <path
     d="M2.91 4.61l-.268-.245C1.688 3.5 1.058 2.928 1.058 2.23c0-.573.449-1.019 1.019-1.019.322 0 .632.15.833.385.202-.235.512-.385.834-.385.57 0 1.018.446 1.018 1.019 0 .698-.63 1.27-1.583 2.135z"
     fill="#f44336"
     id="path2"
     style="fill:#23252E" />
  <path
     d="M 2.9219445,4.3808244 2.6760785,4.1651134 C 1.8008692,3.4035218 1.2229008,2.8999027 1.2229008,2.2853467 c 0,-0.5044996 0.4119173,-0.8971817 0.934841,-0.8971817 0.295406,0 0.5798033,0.1320681 0.7642027,0.3389744 0.1853169,-0.2069063 0.4697139,-0.3389744 0.76512,-0.3389744 0.5229238,0 0.9339236,0.3926821 0.9339236,0.8971817 0,0.614556 -0.5779683,1.1181751 -1.4522603,1.8797667 z"
     fill="#f44336"
     id="path2-3"
     style="fill:#323643;stroke-width:0.898741" />
</svg>
