<?xml version="1.0" encoding="UTF-8" standalone="no"?>
<svg
   xmlns:dc="http://purl.org/dc/elements/1.1/"
   xmlns:cc="http://creativecommons.org/ns#"
   xmlns:rdf="http://www.w3.org/1999/02/22-rdf-syntax-ns#"
   xmlns:svg="http://www.w3.org/2000/svg"
   xmlns="http://www.w3.org/2000/svg"
   xmlns:xlink="http://www.w3.org/1999/xlink"
   xmlns:sodipodi="http://sodipodi.sourceforge.net/DTD/sodipodi-0.dtd"
   xmlns:inkscape="http://www.inkscape.org/namespaces/inkscape"
   width="24"
   height="24"
   viewBox="0 0 24 24"
   version="1.1"
   id="svg20"
   sodipodi:docname="emblem-question.svg"
   inkscape:version="1.0.1 (3bc2e813f5, 2020-09-07)">
  <metadata
     id="metadata24">
    <rdf:RDF>
      <cc:Work
         rdf:about="">
        <dc:format>image/svg+xml</dc:format>
        <dc:type
           rdf:resource="http://purl.org/dc/dcmitype/StillImage" />
        <dc:title />
      </cc:Work>
    </rdf:RDF>
  </metadata>
  <sodipodi:namedview
     pagecolor="#f4f4f7fff"
     bordercolor="#8b9cbe666"
     borderopacity="1"
     objecttolerance="10"
     gridtolerance="10"
     guidetolerance="10"
     inkscape:pageopacity="0"
     inkscape:pageshadow="2"
     inkscape:window-width="1626"
     inkscape:window-height="775"
     id="namedview22"
     showgrid="false"
     inkscape:zoom="33.541667"
     inkscape:cx="12"
     inkscape:cy="13.192547"
     inkscape:window-x="294"
     inkscape:window-y="197"
     inkscape:window-maximized="0"
     inkscape:current-layer="g18"
     inkscape:document-rotation="0" />
  <defs
     id="defs10">
    <path
       id="emblem-unreadable-b"
       d="M18,9 C18,13.971 13.971,18 9,18 C4.029,18 0,13.971 0,9 C0,4.029 4.029,0 9,0 C13.971,0 18,4.029 18,9" />
    <filter
       id="emblem-unreadable-a"
       width="138.9%"
       height="138.9%"
       x="-19.4%"
       y="-13.9%"
       filterUnits="objectBoundingBox">
      <feOffset
         dy="1"
         in="SourceAlpha"
         result="shadowOffsetOuter1"
         id="feOffset3" />
      <feGaussianBlur
         in="shadowOffsetOuter1"
         result="shadowBlurOuter1"
         stdDeviation="1"
         id="feGaussianBlur5" />
      <feColorMatrix
         in="shadowBlurOuter1"
         values="0 0 0 0 0   0 0 0 0 0   0 0 0 0 0  0 0 0 0.15 0"
         id="feColorMatrix7" />
    </filter>
  </defs>
  <g
     fill="none"
     fill-rule="evenodd"
     transform="translate(3 3)"
     id="g18">
    <use
       fill="#000"
       filter="url(#emblem-unreadable-a)"
       xlink:href="#emblem-unreadable-b"
       id="use12" />
    <use
       fill="#FFF"
       xlink:href="#emblem-unreadable-b"
       id="use14"
       style="fill:#23252E" />
    <use
       fill="#f4f4f7fff"
       xlink:href="#emblem-unreadable-b"
       id="use14-3"
       x="0"
       y="0"
       width="100%"
       height="100%"
       style="fill:#323643"
       transform="matrix(0.87523085,0,0,0.87670506,1.136323,1.1255947)" />
    <path
       d="M 9.92154,14.622619 H 8.3215399 v -1.6 H 9.92154 Z m 1.656,-6.2000005 -0.72,0.736 c -0.576,0.584 -0.936,1.0640005 -0.936,2.2640005 H 8.3215399 v -0.4 c 0,-0.88 0.36,-1.6800005 0.936,-2.2640005 l 0.9920001,-1.008 a 1.564,1.564 0 0 0 0.472,-1.128 c 0,-0.88 -0.72,-1.6 -1.6000001,-1.6 -0.88,0 -1.5999998,0.72 -1.5999998,1.6 h -1.6 c 0,-1.768 1.432,-3.2 3.1999998,-3.2 1.7680001,0 3.2000001,1.432 3.2000001,3.2 0,0.704 -0.288,1.344 -0.744,1.8 z"
       fill="#f4f4f7fff"
       id="path4"
       style="fill:#f4f4f7;stroke-width:0.4" />
  </g>
</svg>
