<?xml version="1.0" encoding="UTF-8" standalone="no"?>
<svg
   xmlns:dc="http://purl.org/dc/elements/1.1/"
   xmlns:cc="http://creativecommons.org/ns#"
   xmlns:rdf="http://www.w3.org/1999/02/22-rdf-syntax-ns#"
   xmlns:svg="http://www.w3.org/2000/svg"
   xmlns="http://www.w3.org/2000/svg"
   xmlns:xlink="http://www.w3.org/1999/xlink"
   xmlns:sodipodi="http://sodipodi.sourceforge.net/DTD/sodipodi-0.dtd"
   xmlns:inkscape="http://www.inkscape.org/namespaces/inkscape"
   width="24"
   height="24"
   viewBox="0 0 24 24"
   version="1.1"
   id="svg20"
   sodipodi:docname="emblem-system.svg"
   inkscape:version="1.0.1 (3bc2e813f5, 2020-09-07)">
  <metadata
     id="metadata24">
    <rdf:RDF>
      <cc:Work
         rdf:about="">
        <dc:format>image/svg+xml</dc:format>
        <dc:type
           rdf:resource="http://purl.org/dc/dcmitype/StillImage" />
        <dc:title />
      </cc:Work>
    </rdf:RDF>
  </metadata>
  <sodipodi:namedview
     pagecolor="#f4f4f7fff"
     bordercolor="#8b9cbe666"
     borderopacity="1"
     objecttolerance="10"
     gridtolerance="10"
     guidetolerance="10"
     inkscape:pageopacity="0"
     inkscape:pageshadow="2"
     inkscape:window-width="1626"
     inkscape:window-height="775"
     id="namedview22"
     showgrid="false"
     inkscape:zoom="33.541667"
     inkscape:cx="6.2757765"
     inkscape:cy="12"
     inkscape:window-x="212"
     inkscape:window-y="197"
     inkscape:window-maximized="0"
     inkscape:current-layer="g18"
     inkscape:document-rotation="0" />
  <defs
     id="defs10">
    <path
       id="emblem-unreadable-b"
       d="M18,9 C18,13.971 13.971,18 9,18 C4.029,18 0,13.971 0,9 C0,4.029 4.029,0 9,0 C13.971,0 18,4.029 18,9" />
    <filter
       id="emblem-unreadable-a"
       width="138.9%"
       height="138.9%"
       x="-19.4%"
       y="-13.9%"
       filterUnits="objectBoundingBox">
      <feOffset
         dy="1"
         in="SourceAlpha"
         result="shadowOffsetOuter1"
         id="feOffset3" />
      <feGaussianBlur
         in="shadowOffsetOuter1"
         result="shadowBlurOuter1"
         stdDeviation="1"
         id="feGaussianBlur5" />
      <feColorMatrix
         in="shadowBlurOuter1"
         values="0 0 0 0 0   0 0 0 0 0   0 0 0 0 0  0 0 0 0.15 0"
         id="feColorMatrix7" />
    </filter>
  </defs>
  <g
     fill="none"
     fill-rule="evenodd"
     transform="translate(3 3)"
     id="g18">
    <use
       fill="#000"
       filter="url(#emblem-unreadable-a)"
       xlink:href="#emblem-unreadable-b"
       id="use12" />
    <use
       fill="#FFF"
       xlink:href="#emblem-unreadable-b"
       id="use14"
       style="fill:#23252E" />
    <use
       fill="#f4f4f7fff"
       xlink:href="#emblem-unreadable-b"
       id="use14-3"
       x="0"
       y="0"
       width="100%"
       height="100%"
       style="fill:#323643"
       transform="matrix(0.87523085,0,0,0.87670506,1.136323,1.1255947)" />
    <path
       d="M 10.307227,4.0238451 10.42061,5.339083 a 3.9305961,3.9305961 0 0 1 1.145164,0.6651778 l 1.198076,-0.5669129 1.247208,2.1693867 -1.084693,0.7558839 a 3.9305961,3.9305961 0 0 1 0.06047,0.6613984 3.9305961,3.9305961 0 0 1 -0.05669,0.6651777 l 1.084693,0.7521044 -1.250988,2.161828 -1.194297,-0.559354 a 3.9305961,3.9305961 0 0 1 -1.152722,0.657619 l -0.109604,1.322797 H 7.8090315 L 7.695649,12.705171 A 3.9305961,3.9305961 0 0 1 6.5504849,12.039994 L 5.352409,12.606906 4.1052006,10.441299 5.189894,9.6854152 A 3.9305961,3.9305961 0 0 1 5.1294232,9.0240169 3.9305961,3.9305961 0 0 1 5.1861145,8.3588391 L 4.1014212,7.6029552 5.352409,5.4411274 6.5467055,6.0004814 A 3.9305961,3.9305961 0 0 1 7.6994284,5.3428625 L 7.8090315,4.0200657 H 10.307227 Z M 9.0600194,7.3572929 A 1.6667239,1.6667239 0 0 0 7.389516,9.0202374 1.6667239,1.6667239 0 0 0 9.0562404,10.690741 1.6667239,1.6667239 0 0 0 10.722963,9.0240169 1.6667239,1.6667239 0 0 0 9.0600194,7.3572929 Z"
       fill="#f4f4f7fff"
       id="path4"
       style="stroke-width:3.77942;fill:#f4f4f7" />
  </g>
</svg>
