<?xml version="1.0" encoding="UTF-8" standalone="no"?>
<svg
   xmlns:dc="http://purl.org/dc/elements/1.1/"
   xmlns:cc="http://creativecommons.org/ns#"
   xmlns:rdf="http://www.w3.org/1999/02/22-rdf-syntax-ns#"
   xmlns:svg="http://www.w3.org/2000/svg"
   xmlns="http://www.w3.org/2000/svg"
   xmlns:xlink="http://www.w3.org/1999/xlink"
   xmlns:sodipodi="http://sodipodi.sourceforge.net/DTD/sodipodi-0.dtd"
   xmlns:inkscape="http://www.inkscape.org/namespaces/inkscape"
   width="24"
   height="24"
   viewBox="0 0 24 24"
   version="1.1"
   id="svg20"
   sodipodi:docname="emblem-link.svg"
   inkscape:version="1.0.1 (3bc2e813f5, 2020-09-07)">
  <metadata
     id="metadata24">
    <rdf:RDF>
      <cc:Work
         rdf:about="">
        <dc:format>image/svg+xml</dc:format>
        <dc:type
           rdf:resource="http://purl.org/dc/dcmitype/StillImage" />
        <dc:title />
      </cc:Work>
    </rdf:RDF>
  </metadata>
  <sodipodi:namedview
     pagecolor="#f4f4f7fff"
     bordercolor="#8b9cbe666"
     borderopacity="1"
     objecttolerance="10"
     gridtolerance="10"
     guidetolerance="10"
     inkscape:pageopacity="0"
     inkscape:pageshadow="2"
     inkscape:window-width="1626"
     inkscape:window-height="775"
     id="namedview22"
     showgrid="false"
     inkscape:zoom="33.541667"
     inkscape:cx="12"
     inkscape:cy="10.807454"
     inkscape:window-x="145"
     inkscape:window-y="160"
     inkscape:window-maximized="0"
     inkscape:current-layer="g18"
     inkscape:document-rotation="0" />
  <defs
     id="defs10">
    <path
       id="emblem-unreadable-b"
       d="M18,9 C18,13.971 13.971,18 9,18 C4.029,18 0,13.971 0,9 C0,4.029 4.029,0 9,0 C13.971,0 18,4.029 18,9" />
    <filter
       id="emblem-unreadable-a"
       width="138.9%"
       height="138.9%"
       x="-19.4%"
       y="-13.9%"
       filterUnits="objectBoundingBox">
      <feOffset
         dy="1"
         in="SourceAlpha"
         result="shadowOffsetOuter1"
         id="feOffset3" />
      <feGaussianBlur
         in="shadowOffsetOuter1"
         result="shadowBlurOuter1"
         stdDeviation="1"
         id="feGaussianBlur5" />
      <feColorMatrix
         in="shadowBlurOuter1"
         values="0 0 0 0 0   0 0 0 0 0   0 0 0 0 0  0 0 0 0.15 0"
         id="feColorMatrix7" />
    </filter>
  </defs>
  <g
     fill="none"
     fill-rule="evenodd"
     transform="translate(3 3)"
     id="g18">
    <use
       fill="#000"
       filter="url(#emblem-unreadable-a)"
       xlink:href="#emblem-unreadable-b"
       id="use12" />
    <use
       fill="#FFF"
       xlink:href="#emblem-unreadable-b"
       id="use14"
       style="fill:#23252E" />
    <use
       fill="#f4f4f7fff"
       xlink:href="#emblem-unreadable-b"
       id="use14-3"
       x="0"
       y="0"
       width="100%"
       height="100%"
       style="fill:#323643"
       transform="matrix(0.87523085,0,0,0.87670506,1.136323,1.1255947)" />
    <path
       class="ColorScheme-Text"
       d="M 10.477299,7.5742379 C 10.35612,7.4530584 10.22576,7.3475862 10.08783,7.256608 L 9.3531108,7.9913271 c 0.14934,0.072421 0.291699,0.1646201 0.417096,0.2900099 0.5937092,0.593709 0.5937092,1.5276035 0,2.121313 l -2.1213119,2.121313 c -0.593709,0.593709 -1.5276035,0.593709 -2.1213125,0 -0.593709,-0.593709 -0.593709,-1.527604 0,-2.121313 L 6.1324785,9.7977534 C 5.9959885,9.4068481 5.9214281,8.9995779 5.9266966,8.5893597 L 4.8204984,9.695558 c -0.9732383,0.973239 -0.9732383,2.562296 0,3.535496 0.9732383,0.973238 2.5622951,0.973238 3.5354954,0 l 2.1213132,-2.121312 c 0.973238,-0.973239 0.973238,-2.562296 0,-3.5354965 z"
       color="#5d656b"
       fill="#f4f4f7fff"
       stroke-width="0.999997"
       id="path8"
       style="fill:#f4f4f7" />
    <path
       class="ColorScheme-Text"
       d="m 7.6487815,10.402756 c 0.1211793,0.121179 0.2515393,0.226652 0.3894693,0.31763 l 0.734719,-0.7347198 c -0.14934,-0.07241 -0.291658,-0.1646618 -0.417059,-0.2900591 -0.593709,-0.593709 -0.593709,-1.5276035 0,-2.1213125 L 10.477223,5.4529822 c 0.593709,-0.5937089 1.527604,-0.5937089 2.121313,0 0.593709,0.5937089 0.593709,1.5276034 0,2.1213124 L 11.99364,8.1791907 c 0.13649,0.3909053 0.21105,0.7981755 0.205778,1.2083937 l 1.106198,-1.1061982 c 0.973239,-0.9732383 0.973239,-2.5622951 0,-3.5354955 -0.973238,-0.9732383 -2.562295,-0.9732383 -3.5354952,0 L 7.6488079,6.8672031 c -0.9732382,0.9732382 -0.9732382,2.5622951 0,3.5354959 z"
       color="#5d656b"
       fill="#f4f4f7fff"
       stroke-width="0.999997"
       id="path10"
       style="fill:#f4f4f7" />
  </g>
</svg>
