<?xml version="1.0" encoding="UTF-8" standalone="no"?>
<svg
   xmlns:dc="http://purl.org/dc/elements/1.1/"
   xmlns:cc="http://creativecommons.org/ns#"
   xmlns:rdf="http://www.w3.org/1999/02/22-rdf-syntax-ns#"
   xmlns:svg="http://www.w3.org/2000/svg"
   xmlns="http://www.w3.org/2000/svg"
   xmlns:xlink="http://www.w3.org/1999/xlink"
   xmlns:sodipodi="http://sodipodi.sourceforge.net/DTD/sodipodi-0.dtd"
   xmlns:inkscape="http://www.inkscape.org/namespaces/inkscape"
   width="24"
   height="24"
   viewBox="0 0 24 24"
   version="1.1"
   id="svg20"
   sodipodi:docname="emblem-rabbitvcs-eerror.svg"
   inkscape:version="1.0.1 (3bc2e813f5, 2020-09-07)">
  <metadata
     id="metadata24">
    <rdf:RDF>
      <cc:Work
         rdf:about="">
        <dc:format>image/svg+xml</dc:format>
        <dc:type
           rdf:resource="http://purl.org/dc/dcmitype/StillImage" />
        <dc:title />
      </cc:Work>
    </rdf:RDF>
  </metadata>
  <sodipodi:namedview
     pagecolor="#f4f4f7fff"
     bordercolor="#8b9cbe666"
     borderopacity="1"
     objecttolerance="10"
     gridtolerance="10"
     guidetolerance="10"
     inkscape:pageopacity="0"
     inkscape:pageshadow="2"
     inkscape:window-width="1626"
     inkscape:window-height="775"
     id="namedview22"
     showgrid="false"
     inkscape:zoom="33.541667"
     inkscape:cx="6.2757765"
     inkscape:cy="12"
     inkscape:window-x="110"
     inkscape:window-y="124"
     inkscape:window-maximized="0"
     inkscape:current-layer="g18"
     inkscape:document-rotation="0" />
  <defs
     id="defs10">
    <path
       id="emblem-unreadable-b"
       d="M18,9 C18,13.971 13.971,18 9,18 C4.029,18 0,13.971 0,9 C0,4.029 4.029,0 9,0 C13.971,0 18,4.029 18,9" />
    <filter
       id="emblem-unreadable-a"
       width="138.9%"
       height="138.9%"
       x="-19.4%"
       y="-13.9%"
       filterUnits="objectBoundingBox">
      <feOffset
         dy="1"
         in="SourceAlpha"
         result="shadowOffsetOuter1"
         id="feOffset3" />
      <feGaussianBlur
         in="shadowOffsetOuter1"
         result="shadowBlurOuter1"
         stdDeviation="1"
         id="feGaussianBlur5" />
      <feColorMatrix
         in="shadowBlurOuter1"
         values="0 0 0 0 0   0 0 0 0 0   0 0 0 0 0  0 0 0 0.15 0"
         id="feColorMatrix7" />
    </filter>
  </defs>
  <g
     fill="none"
     fill-rule="evenodd"
     transform="translate(3 3)"
     id="g18">
    <use
       fill="#000"
       filter="url(#emblem-unreadable-a)"
       xlink:href="#emblem-unreadable-b"
       id="use12" />
    <use
       fill="#FFF"
       xlink:href="#emblem-unreadable-b"
       id="use14"
       style="fill:#23252E" />
    <use
       fill="#f4f4f7fff"
       xlink:href="#emblem-unreadable-b"
       id="use14-3"
       x="0"
       y="0"
       width="100%"
       height="100%"
       style="fill:#323643"
       transform="matrix(0.87523085,0,0,0.87670506,1.136323,1.1255947)" />
    <path
       fill="#ff4f00"
       d="m 9.0167737,3.0425186 c 3.3137093,0 6.0000003,2.6862915 6.0000003,6 0,3.3137094 -2.686291,6.0000004 -6.0000003,6.0000004 -3.3137085,0 -6,-2.686291 -6,-6.0000004 0,-3.3137085 2.6862915,-6 6,-6 z m -4.5,6 c 0,2.4852814 2.0147186,4.5000004 4.5,4.5000004 0.9721965,0 1.8723863,-0.308298 2.6081363,-0.832462 L 5.3492362,6.4343829 C 4.8250722,7.1701326 4.5167737,8.0703221 4.5167737,9.0425186 Z m 4.5,-4.5 c -0.9717582,0 -1.8715743,0.3080205 -2.6071404,0.8317537 L 12.68502,11.649659 c 0.523734,-0.735566 0.831754,-1.635382 0.831754,-2.6071404 0,-2.4852814 -2.014719,-4.5 -4.5000003,-4.5 z"
       id="path16"
       style="fill:#f4f4f7" />
  </g>
</svg>
