<?xml version="1.0" encoding="UTF-8" standalone="no"?>
<svg
   xmlns:dc="http://purl.org/dc/elements/1.1/"
   xmlns:cc="http://creativecommons.org/ns#"
   xmlns:rdf="http://www.w3.org/1999/02/22-rdf-syntax-ns#"
   xmlns:svg="http://www.w3.org/2000/svg"
   xmlns="http://www.w3.org/2000/svg"
   xmlns:xlink="http://www.w3.org/1999/xlink"
   xmlns:sodipodi="http://sodipodi.sourceforge.net/DTD/sodipodi-0.dtd"
   xmlns:inkscape="http://www.inkscape.org/namespaces/inkscape"
   width="48"
   height="48"
   viewBox="0 0 48 48"
   version="1.1"
   id="svg30"
   sodipodi:docname="software-updates.svg"
   inkscape:version="1.0.1 (3bc2e813f5, 2020-09-07)">
  <metadata
     id="metadata34">
    <rdf:RDF>
      <cc:Work
         rdf:about="">
        <dc:format>image/svg+xml</dc:format>
        <dc:type
           rdf:resource="http://purl.org/dc/dcmitype/StillImage" />
        <dc:title />
      </cc:Work>
    </rdf:RDF>
  </metadata>
  <sodipodi:namedview
     pagecolor="#f4f4f7fff"
     bordercolor="#8b9cbe666"
     borderopacity="1"
     objecttolerance="10"
     gridtolerance="10"
     guidetolerance="10"
     inkscape:pageopacity="0"
     inkscape:pageshadow="2"
     inkscape:window-width="1764"
     inkscape:window-height="871"
     id="namedview32"
     showgrid="false"
     inkscape:zoom="11.85877"
     inkscape:cx="24"
     inkscape:cy="21.78441"
     inkscape:window-x="136"
     inkscape:window-y="101"
     inkscape:window-maximized="0"
     inkscape:current-layer="g28"
     inkscape:document-rotation="0" />
  <defs
     id="defs20">
    <linearGradient
       id="deepin-virtualkeyboard-c"
       x1="23.392306"
       x2="23.392306"
       y1="5.1298918"
       y2="43.391518"
       gradientTransform="scale(1.0259784,0.97467943)"
       gradientUnits="userSpaceOnUse">
      <stop
         offset="0%"
         stop-color="#FFF"
         id="stop2" />
      <stop
         offset="100%"
         stop-color="#EDEDED"
         id="stop4" />
    </linearGradient>
    <rect
       id="deepin-virtualkeyboard-b"
       width="40"
       height="38"
       x="4"
       y="5"
       rx="7.573" />
    <filter
       id="deepin-virtualkeyboard-a"
       width="117.5%"
       height="118.4%"
       x="-8.7%"
       y="-6.6%"
       filterUnits="objectBoundingBox">
      <feOffset
         dy="1"
         in="SourceAlpha"
         result="shadowOffsetOuter1"
         id="feOffset8" />
      <feGaussianBlur
         in="shadowOffsetOuter1"
         result="shadowBlurOuter1"
         stdDeviation="1"
         id="feGaussianBlur10" />
      <feColorMatrix
         in="shadowBlurOuter1"
         values="0 0 0 0 0   0 0 0 0 0   0 0 0 0 0  0 0 0 0.2 0"
         id="feColorMatrix12" />
    </filter>
    <linearGradient
       id="deepin-virtualkeyboard-d"
       x1="50%"
       x2="50%"
       y1="0%"
       y2="100%">
      <stop
         offset="0%"
         stop-color="#4A4A4A"
         id="stop15" />
      <stop
         offset="97.645%"
         stop-color="#363636"
         id="stop17" />
    </linearGradient>
  </defs>
  <g
     fill="none"
     fill-rule="evenodd"
     id="g28">
    <use
       fill="#000"
       filter="url(#deepin-virtualkeyboard-a)"
       xlink:href="#deepin-virtualkeyboard-b"
       id="use22" />
    <use
       fill="url(#deepin-virtualkeyboard-c)"
       xlink:href="#deepin-virtualkeyboard-b"
       id="use24"
       style="fill:#23252E" />
    <use
       fill="url(#deepin-virtualkeyboard-c)"
       xlink:href="#deepin-virtualkeyboard-b"
       id="use24-7"
       x="0"
       y="0"
       width="100%"
       height="100%"
       style="fill:#323643"
       transform="matrix(0.92197755,0,0,0.92233776,1.8194904,1.8861476)" />
    <path
       style="color:#1b1d24;display:inline;overflow:visible;visibility:visible;opacity:1;fill:#f4f4f7;fill-opacity:1;fill-rule:nonzero;stroke:none;stroke-width:1.62389;marker:none;enable-background:accumulate"
       d="m 23.869575,8.3861011 c -9.222848,0 -16.6994343,7.0699939 -16.6994343,15.7912819 0,8.721287 7.4765863,15.791281 16.6994343,15.791281 9.222841,0 16.699431,-7.069994 16.699431,-15.791281 0,-8.721288 -7.47659,-15.7912819 -16.699431,-15.7912819 z m 5.609963,3.0225499 c 3.580362,1.402385 6.344826,4.078198 7.827858,7.463848 L 31.6322,21.154832 c -0.81775,-1.866844 -2.43605,-3.42187 -4.56625,-4.256243 z m -5.609963,6.847002 c 3.458556,0 6.262283,2.651257 6.262283,5.92173 0,3.270496 -2.803727,5.921732 -6.262283,5.921732 -3.458559,0 -6.262287,-2.651236 -6.262287,-5.921732 0,-3.270473 2.803728,-5.92173 6.262287,-5.92173 z m 0,1.973911 c -2.305712,0 -4.174859,1.767495 -4.174859,3.947819 0,2.180325 1.869147,3.947825 4.174859,3.947825 2.305709,0 4.174856,-1.7675 4.174856,-3.947825 0,-2.180324 -1.869147,-3.947819 -4.174856,-3.947819 z m 0,1.973909 c 1.152843,0 2.087429,0.883761 2.087429,1.97391 0,1.090172 -0.934586,1.973909 -2.087429,1.973909 -1.152866,0 -2.087429,-0.883737 -2.087429,-1.973909 0,-1.090149 0.934563,-1.97391 2.087429,-1.97391 z m -7.76263,4.996459 c 0.81775,1.866862 2.436051,3.421871 4.566252,4.256247 l -2.413588,5.489937 c -3.580359,-1.402381 -6.344824,-4.078197 -7.82786,-7.463845 z"
       id="path3123" />
    <path
       id="path"
       d="m 47.456,33.325678 q -0.215395,-0.47104 -0.485899,-0.922864 c -0.101437,-0.170565 -0.209137,-0.339988 -0.323084,-0.50604 -0.489657,-0.716146 -1.087007,-1.392775 -1.792075,-2.028697 -2.307993,-2.081782 -5.095673,-3.123258 -8.360353,-3.123258 -3.264912,0 -6.051157,1.041456 -8.358964,3.123258 -2.308016,2.081866 -3.462638,4.595192 -3.462638,7.539686 0,2.944494 1.154622,5.459326 3.462638,7.540942 2.307992,2.081782 5.094514,3.122004 8.358964,3.122004 3.26468,0 6.052547,-1.040349 8.360353,-3.122004 1.271102,-1.147647 2.192788,-2.426183 2.763759,-3.834973 0.464599,-1.148756 0.697536,-2.383319 0.697536,-3.705969 0,-1.014358 -0.136502,-1.977868 -0.410752,-2.890551 -0.0313,-0.102791 -0.06387,-0.205582 -0.09768,-0.307245 -0.102694,-0.300471 -0.220409,-0.595276 -0.351898,-0.884456 z"
       fill="url(#h)"
       stroke-width="0.933166"
       style="fill:#23252E;fill-opacity:1" />
    <path
       id="path-7"
       d="M 46.131185,33.680122 Q 45.942257,33.25698 45.704993,32.851099 c -0.08897,-0.153221 -0.183437,-0.305416 -0.283384,-0.454583 -0.429485,-0.643324 -0.953432,-1.25115 -1.571862,-1.822407 -2.024383,-1.870094 -4.46951,-2.805668 -7.333021,-2.805668 -2.863715,0 -5.307583,0.935556 -7.331803,2.805668 -2.024403,1.87017 -3.037144,4.127926 -3.037144,6.773008 0,2.645083 1.012741,4.90419 3.037144,6.774134 2.024384,1.870097 4.468494,2.804543 7.331803,2.804543 2.863511,0 5.3088,-0.93456 7.333021,-2.804543 1.114909,-1.030947 1.923334,-2.179471 2.424146,-3.445009 0.407508,-1.031945 0.61182,-2.14097 0.61182,-3.329125 0,-0.911213 -0.11973,-1.776748 -0.360278,-2.596624 -0.02746,-0.09234 -0.05602,-0.184676 -0.08567,-0.276002 -0.09007,-0.269918 -0.193326,-0.534744 -0.308655,-0.794519 z"
       fill="url(#h)"
       stroke-width="0.82833"
       style="fill:#e6e6e6;fill-opacity:1" />
    <path
       style="fill:#23252E;stroke-width:0.69882"
       d="m 43.263248,38.188031 -3.801095,0.0021 v 6.283686 c 0,0.385656 -0.345999,0.702844 -0.731841,0.702844 h -4.193926 c -0.385841,0 -0.666135,-0.317188 -0.666135,-0.702844 v -6.283686 l -3.822764,-0.0021 c -0.350193,0 -0.525639,-0.381465 -0.278197,-0.629486 l 6.634791,-6.888021 c 0.153778,-0.153704 0.402617,-0.143224 0.556394,0.01048 l 6.58097,6.87265 c 0.247442,0.247323 0.072,0.634377 -0.278197,0.634377 z"
       id="path10" />
  </g>
</svg>
