<?xml version="1.0" encoding="UTF-8" standalone="no"?>
<svg
   xmlns:dc="http://purl.org/dc/elements/1.1/"
   xmlns:cc="http://creativecommons.org/ns#"
   xmlns:rdf="http://www.w3.org/1999/02/22-rdf-syntax-ns#"
   xmlns:svg="http://www.w3.org/2000/svg"
   xmlns="http://www.w3.org/2000/svg"
   xmlns:sodipodi="http://sodipodi.sourceforge.net/DTD/sodipodi-0.dtd"
   xmlns:inkscape="http://www.inkscape.org/namespaces/inkscape"
   width="64"
   height="64"
   version="1"
   id="svg32"
   sodipodi:docname="input-keyboard.svg"
   inkscape:version="1.0.1 (3bc2e813f5, 2020-09-07)">
  <metadata
     id="metadata38">
    <rdf:RDF>
      <cc:Work
         rdf:about="">
        <dc:format>image/svg+xml</dc:format>
        <dc:type
           rdf:resource="http://purl.org/dc/dcmitype/StillImage" />
        <dc:title></dc:title>
      </cc:Work>
    </rdf:RDF>
  </metadata>
  <defs
     id="defs36" />
  <sodipodi:namedview
     pagecolor="#f4f4f7fff"
     bordercolor="#8b9cbe666"
     borderopacity="1"
     objecttolerance="10"
     gridtolerance="10"
     guidetolerance="10"
     inkscape:pageopacity="0"
     inkscape:pageshadow="2"
     inkscape:window-width="1556"
     inkscape:window-height="798"
     id="namedview34"
     showgrid="false"
     inkscape:zoom="12.578125"
     inkscape:cx="32"
     inkscape:cy="32"
     inkscape:window-x="811"
     inkscape:window-y="216"
     inkscape:window-maximized="0"
     inkscape:current-layer="svg32" />
  <rect
     style="fill:#f4f4f7"
     width="39.999"
     height="55.999"
     x="-52"
     y="-60"
     rx="2.858"
     ry="2.8"
     transform="matrix(0,-1,-1,0,0,0)"
     id="rect4" />
  <rect
     style="fill:#23252E"
     width="39.999"
     height="6"
     x="12"
     y="42"
     rx="1.334"
     ry="1.5"
     id="rect8" />
  <g
     style="fill:#23252E"
     transform="matrix(1.9999714,0,0,1.9999714,5.760572e-5,7.722e-4)"
     id="g28">
    <path
       d="M 22,10.5 A 1.5,1.5 0 0 1 20.5,12 1.5,1.5 0 0 1 19,10.5 1.5,1.5 0 0 1 20.5,9 1.5,1.5 0 0 1 22,10.5 Z"
       id="path10"
       style="fill:#23252E" />
    <path
       d="M 7,10.5 A 1.5,1.5 0 0 1 5.5,12 1.5,1.5 0 0 1 4,10.5 1.5,1.5 0 0 1 5.5,9 1.5,1.5 0 0 1 7,10.5 Z"
       id="path12"
       style="fill:#23252E" />
    <path
       d="M 12,10.5 A 1.5,1.5 0 0 1 10.5,12 1.5,1.5 0 0 1 9,10.5 1.5,1.5 0 0 1 10.5,9 1.5,1.5 0 0 1 12,10.5 Z"
       id="path14"
       style="fill:#23252E" />
    <path
       d="M 17,10.5 A 1.5,1.5 0 0 1 15.5,12 1.5,1.5 0 0 1 14,10.5 1.5,1.5 0 0 1 15.5,9 1.5,1.5 0 0 1 17,10.5 Z"
       id="path16"
       style="fill:#23252E" />
    <path
       d="M 27,10.5 A 1.5,1.5 0 0 1 25.5,12 1.5,1.5 0 0 1 24,10.5 1.5,1.5 0 0 1 25.5,9 1.5,1.5 0 0 1 27,10.5 Z"
       id="path18"
       style="fill:#23252E" />
    <path
       d="M 25,16.5 A 1.5,1.5 0 0 1 23.5,18 1.5,1.5 0 0 1 22,16.5 1.5,1.5 0 0 1 23.5,15 1.5,1.5 0 0 1 25,16.5 Z"
       id="path20"
       style="fill:#23252E" />
    <path
       d="M 10,16.5 A 1.5,1.5 0 0 1 8.5,18 1.5,1.5 0 0 1 7,16.5 1.5,1.5 0 0 1 8.5,15 1.5,1.5 0 0 1 10,16.5 Z"
       id="path22"
       style="fill:#23252E" />
    <path
       d="M 15,16.5 A 1.5,1.5 0 0 1 13.5,18 1.5,1.5 0 0 1 12,16.5 1.5,1.5 0 0 1 13.5,15 1.5,1.5 0 0 1 15,16.5 Z"
       id="path24"
       style="fill:#23252E" />
    <path
       d="M 20,16.5 A 1.5,1.5 0 0 1 18.5,18 1.5,1.5 0 0 1 17,16.5 1.5,1.5 0 0 1 18.5,15 1.5,1.5 0 0 1 20,16.5 Z"
       id="path26"
       style="fill:#23252E" />
  </g>
</svg>
