<?xml version="1.0" encoding="UTF-8" standalone="no"?>
<svg xmlns:dc="http://purl.org/dc/elements/1.1/" xmlns:cc="http://creativecommons.org/ns#"
   xmlns:rdf="http://www.w3.org/1999/02/22-rdf-syntax-ns#" xmlns:svg="http://www.w3.org/2000/svg"
   xmlns="http://www.w3.org/2000/svg" xmlns:sodipodi="http://sodipodi.sourceforge.net/DTD/sodipodi-0.dtd"
   xmlns:inkscape="http://www.inkscape.org/namespaces/inkscape" width="64" height="64" version="1.1" id="svg14"
   sodipodi:docname="folder-downloads.svg" inkscape:version="1.0.1 (3bc2e813f5, 2020-09-07)">
   <metadata id="metadata20">
      <rdf:RDF>
         <cc:Work rdf:about="">
            <dc:format>image/svg+xml</dc:format>
            <dc:type rdf:resource="http://purl.org/dc/dcmitype/StillImage" />
            <dc:title />
         </cc:Work>
      </rdf:RDF>
   </metadata>
   <defs id="defs18" />
   <sodipodi:namedview pagecolor="#f4f4f7fff" bordercolor="#555e70666" borderopacity="1" objecttolerance="10"
      gridtolerance="10" guidetolerance="10" inkscape:pageopacity="0" inkscape:pageshadow="2"
      inkscape:window-width="1502" inkscape:window-height="923" id="namedview16" showgrid="false"
      inkscape:zoom="12.578125" inkscape:cx="32" inkscape:cy="32" inkscape:window-x="0" inkscape:window-y="0"
      inkscape:window-maximized="0" inkscape:current-layer="svg14" inkscape:document-rotation="0" />
   <path style="fill:#23252E;stroke-width:1.09827"
      d="m 4.6365411,45.850984 c 0,1.527649 1.2193233,2.757489 2.7339086,2.757489 H 56.580804 c 1.514586,0 2.733909,-1.22984 2.733909,-2.757489 V 16.070103 c 0,-1.527649 -1.219323,-2.75749 -2.733909,-2.75749 L 31.132956,13.261941 30.426434,10.593979 C 30.035367,9.1172341 29.270328,7.8830456 27.755753,7.8771387 L 7.3704497,7.7976356 C 5.8558759,7.7917287 4.6365411,9.0274757 4.6365411,10.555124"
      id="path4-3" sodipodi:nodetypes="cssssscsssc" />
   <rect style="opacity:0.2" width="50" height="32" x="7" y="24" rx="2.5" ry="2.5" id="rect2" />
   <rect style="fill:#23252E;stroke-width:1.09827" width="54.678169" height="35.295856" x="4.6365414" y="22.136578"
      rx="2.7339084" ry="2.757489" id="rect10-6" />
   <path style="fill:#555e70"
      d="M 7,44.5 C 7,45.885 8.115,47 9.5,47 H 54.5 C 55.885,47 57,45.885 57,44.5 V 17.5 C 57,16.115 55.885,15 54.5,15 H 29 V 12.5 C 29,11.115 27.885,10 26.5,10 H 9.5 C 8.115,10 7,11.115 7,12.5"
      id="path4" />
   <rect style="opacity:0.2" width="50" height="32" x="7" y="22" rx="2.5" ry="2.5" id="rect6" />
   <rect style="fill:#f4f4f7" width="44" height="20" x="10" y="18" rx="2.5" ry="2.5" id="rect8" />
   <rect style="fill:#555e70" width="50" height="32" x="7" y="23" rx="2.5" ry="2.5" id="rect10" />
   <path style="opacity:0.1;fill:#f4f4f7fff"
      d="M 9.5,10 C 8.115,10 7,11.115 7,12.5 V 13.5 C 7,12.115 8.115,11 9.5,11 H 26.5 C 27.885,11 29,12.115 29,13.5 V 12.5 C 29,11.115 27.885,10 26.5,10 Z M 29,15 V 16 H 54.5 C 55.89,16 57,17.115 57,18.5 V 17.5 C 57,16.115 55.89,15 54.5,15 Z"
      id="path12" />
   <path style="color:#555e70;fill:#f4f4f7;stroke-width:1.48482" class="ColorScheme-Text"
      d="m 31.441446,28.287571 c 5.60066,0 10.140892,4.769448 10.140892,10.652859 0,5.883412 -4.540232,10.65286 -10.140892,10.65286 -5.600661,0 -10.140893,-4.769448 -10.140893,-10.65286 0,-5.883411 4.540232,-10.652859 10.140893,-10.652859 z m 2.173048,10.652859 h -4.346097 c -0.400047,0 -0.72435,0.340676 -0.72435,0.760918 0,0.420244 -0.3243,0.76092 -0.724349,0.76092 v 0 h -0.724349 c -0.159149,0 -0.311779,0.06641 -0.424314,0.184628 -0.234343,0.246175 -0.234343,0.645299 0,0.891473 v 0 l 4.258218,4.473197 c 0.282877,0.297157 0.741508,0.297157 1.024386,0 v 0 l 4.258217,-4.473197 c 0.112534,-0.118216 0.175757,-0.278552 0.175757,-0.445735 0,-0.348142 -0.268661,-0.630366 -0.600071,-0.630366 v 0 h -0.724349 c -0.400047,0 -0.72435,-0.340676 -0.72435,-0.76092 0,-0.420242 -0.324301,-0.760918 -0.724349,-0.760918 z m 0,-3.043674 h -4.346097 c -0.400047,0 -0.72435,0.340676 -0.72435,0.760919 0,0.420243 0.324303,0.760918 0.72435,0.760918 v 0 h 4.346097 c 0.400048,0 0.724349,-0.340675 0.724349,-0.760918 0,-0.420243 -0.324301,-0.760919 -0.724349,-0.760919 z m 0,-3.043674 h -4.346097 c -0.400047,0 -0.72435,0.340676 -0.72435,0.760919 0,0.420243 0.324303,0.760918 0.72435,0.760918 v 0 h 4.346097 c 0.400048,0 0.724349,-0.340675 0.724349,-0.760918 0,-0.420243 -0.324301,-0.760919 -0.724349,-0.760919 z"
      id="path5" />
</svg>