<?xml version="1.0" encoding="UTF-8" standalone="no"?>
<svg xmlns:dc="http://purl.org/dc/elements/1.1/" xmlns:cc="http://creativecommons.org/ns#"
   xmlns:rdf="http://www.w3.org/1999/02/22-rdf-syntax-ns#" xmlns:svg="http://www.w3.org/2000/svg"
   xmlns="http://www.w3.org/2000/svg" xmlns:sodipodi="http://sodipodi.sourceforge.net/DTD/sodipodi-0.dtd"
   xmlns:inkscape="http://www.inkscape.org/namespaces/inkscape" width="64" height="64" version="1.1" id="svg14"
   sodipodi:docname="folder-steam.svg" inkscape:version="1.0.1 (3bc2e813f5, 2020-09-07)">
   <metadata id="metadata20">
      <rdf:RDF>
         <cc:Work rdf:about="">
            <dc:format>image/svg+xml</dc:format>
            <dc:type rdf:resource="http://purl.org/dc/dcmitype/StillImage" />
            <dc:title />
         </cc:Work>
      </rdf:RDF>
   </metadata>
   <defs id="defs18" />
   <sodipodi:namedview pagecolor="#f4f4f7fff" bordercolor="#555e70666" borderopacity="1" objecttolerance="10"
      gridtolerance="10" guidetolerance="10" inkscape:pageopacity="0" inkscape:pageshadow="2"
      inkscape:window-width="1280" inkscape:window-height="737" id="namedview16" showgrid="false"
      inkscape:zoom="12.578125" inkscape:cx="31.52298" inkscape:cy="35.180125" inkscape:window-x="191"
      inkscape:window-y="267" inkscape:window-maximized="0" inkscape:current-layer="svg14"
      inkscape:document-rotation="0" />
   <path style="fill:#23252E;stroke-width:1.09827"
      d="m 4.6365411,45.850984 c 0,1.527649 1.2193233,2.757489 2.7339086,2.757489 H 56.580804 c 1.514586,0 2.733909,-1.22984 2.733909,-2.757489 V 16.070103 c 0,-1.527649 -1.219323,-2.75749 -2.733909,-2.75749 L 31.132956,13.261941 30.426434,10.593979 C 30.035367,9.1172341 29.270328,7.8830456 27.755753,7.8771387 L 7.3704497,7.7976356 C 5.8558759,7.7917287 4.6365411,9.0274757 4.6365411,10.555124"
      id="path4-3" sodipodi:nodetypes="cssssscsssc" />
   <rect style="opacity:0.2" width="50" height="32" x="7" y="24" rx="2.5" ry="2.5" id="rect2" />
   <rect style="fill:#23252E;stroke-width:1.09827" width="54.678169" height="35.295856" x="4.6365414" y="22.136578"
      rx="2.7339084" ry="2.757489" id="rect10-6" />
   <path style="fill:#555e70"
      d="M 7,44.5 C 7,45.885 8.115,47 9.5,47 H 54.5 C 55.885,47 57,45.885 57,44.5 V 17.5 C 57,16.115 55.885,15 54.5,15 H 29 V 12.5 C 29,11.115 27.885,10 26.5,10 H 9.5 C 8.115,10 7,11.115 7,12.5"
      id="path4" />
   <rect style="opacity:0.2" width="50" height="32" x="7" y="22" rx="2.5" ry="2.5" id="rect6" />
   <rect style="fill:#f4f4f7" width="44" height="20" x="10" y="18" rx="2.5" ry="2.5" id="rect8" />
   <rect style="fill:#555e70" width="50" height="32" x="7" y="23" rx="2.5" ry="2.5" id="rect10" />
   <path style="opacity:0.1;fill:#f4f4f7fff"
      d="M 9.5,10 C 8.115,10 7,11.115 7,12.5 V 13.5 C 7,12.115 8.115,11 9.5,11 H 26.5 C 27.885,11 29,12.115 29,13.5 V 12.5 C 29,11.115 27.885,10 26.5,10 Z M 29,15 V 16 H 54.5 C 55.89,16 57,17.115 57,18.5 V 17.5 C 57,16.115 55.89,15 54.5,15 Z"
      id="path12" />
   <path style="fill:#f4f4f7;stroke-width:0.822565"
      d="m 18.612917,41.092038 5.128645,2.757246 c -0.0085,0.109527 -0.01364,0.219055 -0.01364,0.328583 0,2.630257 2.289818,4.762082 5.115005,4.762082 2.825187,0 5.115004,-2.131825 5.115004,-4.762082 -0.0034,-0.217468 -0.02217,-0.433349 -0.05626,-0.647643 l 6.202796,-4.123963 c 3.222453,-0.09048 5.78507,-2.546126 5.78848,-5.546238 0,-3.068368 -2.671737,-5.555762 -5.967505,-5.555762 -3.295768,0 -5.969211,2.487394 -5.967506,5.577985 l -3.959013,5.663703 c -0.37851,-0.08413 -0.767251,-0.128576 -1.155991,-0.130164 -0.772366,0.0016 -1.534501,0.166673 -2.228437,0.480971 l -8.001572,-4.30016 m 21.312519,-5.704974 c 2.354607,0 4.262503,1.776256 4.262503,3.968401 0,2.192145 -1.907896,3.968402 -4.262503,3.968402 -2.354607,0 -4.262504,-1.776257 -4.262504,-3.968402 0,-2.192145 1.907897,-3.968401 4.262504,-3.968401 z m 0,1.58736 c -1.411742,0 -2.557503,1.066707 -2.557503,2.381041 0,1.314335 1.145761,2.381041 2.557503,2.381041 1.411741,0 2.557502,-1.066706 2.557502,-2.381041 0,-1.314334 -1.145761,-2.381041 -2.557502,-2.381041 z m -11.08251,9.524164 c 1.884027,0 3.410003,1.420688 3.410003,3.174721 0,1.754034 -1.525976,3.174721 -3.410003,3.174721 -1.626571,-0.0016 -3.024673,-1.073055 -3.340098,-2.557238 l 1.202026,0.647644 c 1.227601,0.658754 2.784268,0.271438 3.493548,-0.871461 0.707576,-1.1429 0.291555,-2.59216 -0.936046,-3.252502 l -0.57629,-0.309536 c 0.05286,-0.0032 0.104005,-0.0048 0.15686,-0.0063 z"
      id="path14-3" />
</svg>