<?xml version="1.0" encoding="UTF-8" standalone="no"?>
<svg xmlns:dc="http://purl.org/dc/elements/1.1/" xmlns:cc="http://creativecommons.org/ns#"
   xmlns:rdf="http://www.w3.org/1999/02/22-rdf-syntax-ns#" xmlns:svg="http://www.w3.org/2000/svg"
   xmlns="http://www.w3.org/2000/svg" xmlns:sodipodi="http://sodipodi.sourceforge.net/DTD/sodipodi-0.dtd"
   xmlns:inkscape="http://www.inkscape.org/namespaces/inkscape" width="64" height="64" version="1.1" id="svg14"
   sodipodi:docname="network-server.svg" inkscape:version="1.0.1 (3bc2e813f5, 2020-09-07)">
   <metadata id="metadata20">
      <rdf:RDF>
         <cc:Work rdf:about="">
            <dc:format>image/svg+xml</dc:format>
            <dc:type rdf:resource="http://purl.org/dc/dcmitype/StillImage" />
            <dc:title />
         </cc:Work>
      </rdf:RDF>
   </metadata>
   <defs id="defs18" />
   <sodipodi:namedview pagecolor="#f4f4f7fff" bordercolor="#555e70666" borderopacity="1" objecttolerance="10"
      gridtolerance="10" guidetolerance="10" inkscape:pageopacity="0" inkscape:pageshadow="2"
      inkscape:window-width="1502" inkscape:window-height="923" id="namedview16" showgrid="false"
      inkscape:zoom="12.578125" inkscape:cx="32" inkscape:cy="32" inkscape:window-x="0" inkscape:window-y="0"
      inkscape:window-maximized="0" inkscape:current-layer="svg14" inkscape:document-rotation="0" />
   <path style="fill:#23252E;stroke-width:1.09827"
      d="m 4.6365411,45.850984 c 0,1.527649 1.2193233,2.757489 2.7339086,2.757489 H 56.580804 c 1.514586,0 2.733909,-1.22984 2.733909,-2.757489 V 16.070103 c 0,-1.527649 -1.219323,-2.75749 -2.733909,-2.75749 L 31.132956,13.261941 30.426434,10.593979 C 30.035367,9.1172341 29.270328,7.8830456 27.755753,7.8771387 L 7.3704497,7.7976356 C 5.8558759,7.7917287 4.6365411,9.0274757 4.6365411,10.555124"
      id="path4-3" sodipodi:nodetypes="cssssscsssc" />
   <rect style="opacity:0.2" width="50" height="32" x="7" y="24" rx="2.5" ry="2.5" id="rect2" />
   <rect style="fill:#23252E;stroke-width:1.09827" width="54.678169" height="35.295856" x="4.6365414" y="22.136578"
      rx="2.7339084" ry="2.757489" id="rect10-6" />
   <path style="fill:#555e70"
      d="M 7,44.5 C 7,45.885 8.115,47 9.5,47 H 54.5 C 55.885,47 57,45.885 57,44.5 V 17.5 C 57,16.115 55.885,15 54.5,15 H 29 V 12.5 C 29,11.115 27.885,10 26.5,10 H 9.5 C 8.115,10 7,11.115 7,12.5"
      id="path4" />
   <rect style="opacity:0.2" width="50" height="32" x="7" y="22" rx="2.5" ry="2.5" id="rect6" />
   <rect style="fill:#f4f4f7" width="44" height="20" x="10" y="18" rx="2.5" ry="2.5" id="rect8" />
   <rect style="fill:#555e70" width="50" height="32" x="7" y="23" rx="2.5" ry="2.5" id="rect10" />
   <path style="opacity:0.1;fill:#f4f4f7fff"
      d="M 9.5,10 C 8.115,10 7,11.115 7,12.5 V 13.5 C 7,12.115 8.115,11 9.5,11 H 26.5 C 27.885,11 29,12.115 29,13.5 V 12.5 C 29,11.115 27.885,10 26.5,10 Z M 29,15 V 16 H 54.5 C 55.89,16 57,17.115 57,18.5 V 17.5 C 57,16.115 55.89,15 54.5,15 Z"
      id="path12" />
   <path style="fill:#f4f4f7"
      d="m 31.762486,28.78795 c -5.523,0 -10,4.477 -10,10 0,5.523 4.477,10 10,10 5.523,0 10,-4.477 10,-10 0,-5.523 -4.477,-10 -10,-10 z m -0.714,2.768 c 0.095,-0.01 0.216,0.006 0.312,0 0.012,0.046 -0.069,0.208 -0.178,0.446 -0.694,1.517 -0.734,3.292 -0.09,4.241 0.117,0.172 0.224,0.336 0.224,0.357 0,0.022 -0.126,0.045 -0.268,0.045 -0.334,0 -0.65,-0.203 -1.295,-0.714 -0.286,-0.227 -0.659,-0.418 -0.803,-0.447 -0.227,-0.045 -0.288,-0.025 -0.581,0.268 -0.273,0.273 -0.357,0.42 -0.357,0.67 0,0.947 1.124,1.7 3.214,2.143 2.838,0.601 3.538,1.141 3.616,2.634 0.099,1.871 -0.898,3.282 -3.08,4.375 -0.26,0.13 -0.426,0.181 -0.536,0.223 -0.048,-0.004 -0.085,0.004 -0.134,0 -0.018,-0.058 -0.044,-0.192 -0.044,-0.446 0,-0.994 -0.392,-2.018 -0.982,-2.59 -0.159,-0.153 -0.602,-0.479 -0.982,-0.714 -0.38,-0.235 -0.763,-0.508 -0.849,-0.625 -0.141,-0.194 -0.153,-0.312 -0.044,-0.67 0.198,-0.652 0.434,-1.016 0.893,-1.428 0.24,-0.216 0.482,-0.398 0.535,-0.402 0.054,-0.004 -0.307,-0.113 -0.848,-0.223 -0.541,-0.111 -1.332,-0.343 -1.741,-0.491 -0.748,-0.271 -1.758,-0.839 -2.143,-1.25 -0.016,-0.018 -0.03,-0.03 -0.044,-0.045 0.551,-2.197 2.099,-3.998 4.151,-4.866 0.43,-0.182 0.872,-0.306 1.34,-0.402 0.232,-0.047 0.474,-0.065 0.714,-0.089 z m 6.696,3.348 c 0.168,0.104 0.801,1.474 0.982,2.143 0.234,0.863 0.217,2.357 0,3.214 -0.082,0.327 -0.188,0.632 -0.223,0.67 -0.035,0.038 -0.163,-0.181 -0.312,-0.446 -0.15,-0.266 -0.629,-0.831 -1.027,-1.25 -1.149,-1.213 -1.33,-1.846 -0.848,-2.813 0.242,-0.488 1.298,-1.598 1.428,-1.518 z"
      id="path14-3" />
</svg>