<?xml version="1.0" encoding="UTF-8" standalone="no"?>
<svg xmlns:dc="http://purl.org/dc/elements/1.1/" xmlns:cc="http://creativecommons.org/ns#"
   xmlns:rdf="http://www.w3.org/1999/02/22-rdf-syntax-ns#" xmlns:svg="http://www.w3.org/2000/svg"
   xmlns="http://www.w3.org/2000/svg" xmlns:sodipodi="http://sodipodi.sourceforge.net/DTD/sodipodi-0.dtd"
   xmlns:inkscape="http://www.inkscape.org/namespaces/inkscape" width="64" height="64" version="1.1" id="svg14"
   sodipodi:docname="network-workgroup.svg" inkscape:version="1.0.1 (3bc2e813f5, 2020-09-07)">
   <metadata id="metadata20">
      <rdf:RDF>
         <cc:Work rdf:about="">
            <dc:format>image/svg+xml</dc:format>
            <dc:type rdf:resource="http://purl.org/dc/dcmitype/StillImage" />
            <dc:title />
         </cc:Work>
      </rdf:RDF>
   </metadata>
   <defs id="defs18" />
   <sodipodi:namedview pagecolor="#f4f4f7fff" bordercolor="#555e70666" borderopacity="1" objecttolerance="10"
      gridtolerance="10" guidetolerance="10" inkscape:pageopacity="0" inkscape:pageshadow="2"
      inkscape:window-width="1502" inkscape:window-height="923" id="namedview16" showgrid="false"
      inkscape:zoom="12.578125" inkscape:cx="32" inkscape:cy="32" inkscape:window-x="0" inkscape:window-y="0"
      inkscape:window-maximized="0" inkscape:current-layer="svg14" inkscape:document-rotation="0" />
   <path style="fill:#23252E;stroke-width:1.09827"
      d="m 4.6365411,45.850984 c 0,1.527649 1.2193233,2.757489 2.7339086,2.757489 H 56.580804 c 1.514586,0 2.733909,-1.22984 2.733909,-2.757489 V 16.070103 c 0,-1.527649 -1.219323,-2.75749 -2.733909,-2.75749 L 31.132956,13.261941 30.426434,10.593979 C 30.035367,9.1172341 29.270328,7.8830456 27.755753,7.8771387 L 7.3704497,7.7976356 C 5.8558759,7.7917287 4.6365411,9.0274757 4.6365411,10.555124"
      id="path4-3" sodipodi:nodetypes="cssssscsssc" />
   <rect style="opacity:0.2" width="50" height="32" x="7" y="24" rx="2.5" ry="2.5" id="rect2" />
   <rect style="fill:#23252E;stroke-width:1.09827" width="54.678169" height="35.295856" x="4.6365414" y="22.136578"
      rx="2.7339084" ry="2.757489" id="rect10-6" />
   <path style="fill:#555e70"
      d="M 7,44.5 C 7,45.885 8.115,47 9.5,47 H 54.5 C 55.885,47 57,45.885 57,44.5 V 17.5 C 57,16.115 55.885,15 54.5,15 H 29 V 12.5 C 29,11.115 27.885,10 26.5,10 H 9.5 C 8.115,10 7,11.115 7,12.5"
      id="path4" />
   <rect style="opacity:0.2" width="50" height="32" x="7" y="22" rx="2.5" ry="2.5" id="rect6" />
   <rect style="fill:#f4f4f7" width="44" height="20" x="10" y="18" rx="2.5" ry="2.5" id="rect8" />
   <rect style="fill:#555e70" width="50" height="32" x="7" y="23" rx="2.5" ry="2.5" id="rect10" />
   <path style="opacity:0.1;fill:#f4f4f7fff"
      d="M 9.5,10 C 8.115,10 7,11.115 7,12.5 V 13.5 C 7,12.115 8.115,11 9.5,11 H 26.5 C 27.885,11 29,12.115 29,13.5 V 12.5 C 29,11.115 27.885,10 26.5,10 Z M 29,15 V 16 H 54.5 C 55.89,16 57,17.115 57,18.5 V 17.5 C 57,16.115 55.89,15 54.5,15 Z"
      id="path12" />
   <path style="color:#555e70;fill:#f4f4f7;stroke-width:1.7672" class="ColorScheme-Text"
      d="m 37.825744,28.151896 c 2.119361,0 3.837443,1.763488 3.837443,3.938859 0,2.175372 -1.718082,3.938858 -3.837443,3.938858 -1.191198,0 -2.255629,-0.557096 -2.959485,-1.431302 l -0.05318,0.03169 -6.977166,3.580781 c -0.0644,0.03305 -0.130194,0.06013 -0.196767,0.08147 0.0791,0.306585 0.119729,0.631418 0.119729,0.96599 0,0.315271 -0.03609,0.621892 -0.104257,0.915746 l 7.231515,3.712117 c 0.703935,-0.861504 1.760444,-1.409237 2.941589,-1.409237 2.119362,0 3.837442,1.763486 3.837442,3.938857 0,2.175372 -1.71808,3.938859 -3.837442,3.938859 -2.119359,0 -3.837439,-1.763487 -3.837439,-3.938859 -0.07896,-0.03588 -0.156952,-0.06658 -0.23301,-0.105632 v 0 l -7.551338,-3.875454 c -0.0031,-0.0016 -0.0061,-0.0033 -0.0092,-0.0048 -0.635905,0.482105 -1.423186,0.767205 -2.275341,0.767205 -2.119361,0 -3.837441,-1.763486 -3.837441,-3.938857 0,-2.175373 1.71808,-3.938861 3.837441,-3.938861 0.87972,0 1.690301,0.303845 2.337566,0.81487 0.109018,-0.131093 0.246011,-0.24301 0.4068,-0.32553 v 0 l 6.977166,-3.58078 c 0.11214,-0.05756 0.228497,-0.09702 0.345903,-0.119486 -5.54e-4,-0.0058 -5.68e-4,-0.01163 -5.68e-4,-0.01772 0,-2.175371 1.718082,-3.938859 3.837441,-3.938859 z"
      id="path5" />
</svg>