<?xml version="1.0" encoding="UTF-8" standalone="no"?>
<svg
   width="24"
   height="24"
   fill="#f4f4f7"
   version="1.1"
   id="svg4"
   sodipodi:docname="firefox-4.0.svg"
   inkscape:version="1.1.1 (3bf5ae0d25, 2021-09-20)"
   xmlns:inkscape="http://www.inkscape.org/namespaces/inkscape"
   xmlns:sodipodi="http://sodipodi.sourceforge.net/DTD/sodipodi-0.dtd"
   xmlns="http://www.w3.org/2000/svg"
   xmlns:svg="http://www.w3.org/2000/svg">
  <defs
     id="defs8" />
  <sodipodi:namedview
     id="namedview6"
     pagecolor="#ffffff"
     bordercolor="#666666"
     borderopacity="1.0"
     inkscape:pageshadow="2"
     inkscape:pageopacity="0.0"
     inkscape:pagecheckerboard="0"
     showgrid="false"
     inkscape:zoom="28.963094"
     inkscape:cx="6.6118628"
     inkscape:cy="15.899545"
     inkscape:window-width="1918"
     inkscape:window-height="1057"
     inkscape:window-x="0"
     inkscape:window-y="0"
     inkscape:window-maximized="1"
     inkscape:current-layer="svg4" />
  <path
     d="m 6.4126629,1.1598289 c -2.8136716,0 -5.0787643,2.3209621 -5.0787643,5.2041231 v 12.006866 c 0,2.883121 2.265054,5.204122 5.0787643,5.204122 H 18.130304 c 2.813673,0 5.078766,-2.320962 5.078766,-5.204122 V 6.363952 c 0,-2.8831207 -2.265054,-5.2041231 -5.078766,-5.2041231 z"
     fill="url(#linearGradient910)"
     stroke-width="1.49448"
     id="path33"
     style="fill:#23252e" />
  <rect
     x="2.5066392"
     y="2.3300183"
     width="19.530001"
     height="20.011978"
     rx="3.9061408"
     fill="url(#linearGradient862)"
     stroke-width="1.33421"
     id="rect35"
     style="fill:#323643;fill-opacity:1"
     ry="4.0029998" />
  <path
     d="m 22.050714,11.071716 a 2.16,2.16 0 0 0 -0.06,-0.286 l -0.187,0.236 a 6.354,6.354 0 0 0 -0.228,-1.2739991 8.66,8.66 0 0 0 -0.591,-1.5109996 5.33,5.33 0 0 0 -0.54,-0.92 c -0.109,-0.17 -0.203,-0.296 -0.221,-0.322 -0.362,-0.589 -0.767,-0.947 -1.249,-1.621 a 4.942,4.942 0 0 1 -0.615,-1.6789995 6.091,6.091 0 0 0 -0.303,1.0969995 c -0.483,-0.489 -0.913,-0.8459995 -1.168,-1.0799995 -1.267,-1.183 -1.113,-1.79 -1.113,-1.79 0,0 -2.364001,2.6349995 -1.342,5.3769995 a 5.278,5.278 0 0 0 1.764,2.347 c 0.989,0.8129997 2.052,1.4519987 2.609,3.1009987 a 5.2,5.2 0 0 0 -1.967,-2.087 c 0.253,0.602 0.38,1.232 0.371,1.884 a 4.468,4.468 0 0 1 -4.476001,4.465 4.28,4.28 0 0 1 -0.985,-0.109 4.117,4.117 0 0 1 -1.107,-0.379 4.4,4.4 0 0 1 -1.3339992,-1.226 v -0.007 a 0.372,0.372 0 0 0 0.075,0.024 c 0.187,0.067 0.3719995,0.118 0.5669995,0.153 a 3.558,3.558 0 0 0 2.2449997,-0.263 c 0.708,-0.396 1.139,-0.685 1.484001,-0.574 0.348,0.109 0.608,-0.22 0.373,-0.565 a 1.853,1.853 0 0 0 -1.790001,-0.692 c -0.711,0.101 -1.36,0.599 -2.2799997,0.117 -0.067,-0.032 -0.117,-0.066 -0.176,-0.101 -0.06,-0.042 0.2019997,0.051 0.134,0.009 a 4.138,4.138 0 0 1 -0.5819995,-0.347 c -0.009,-0.009 0.145,0.043 0.126,0.033 a 2.235,2.235 0 0 1 -0.608,-0.614 1.118,1.118 0 0 1 -0.04,-0.973 0.844,0.844 0 0 1 0.38,-0.354 l 0.192,0.1 c 0,0 -0.059,-0.1 -0.085,-0.151 0.01,-0.008 0.019,0 0.035,-0.008 0.102,0.042 0.3289995,0.159 0.4549995,0.236 a 0.6,0.6 0 0 1 0.2119997,0.186 c 0,0 0.043,-0.017 0.009,-0.108 a 0.511,0.511 0 0 0 -0.2209997,-0.263 h 0.018 c 0.093,0.051 0.1779997,0.102 0.2609997,0.167 0.076,-0.186 0.119,-0.368 0.112,-0.563 a 0.825,0.825 0 0 0 -0.043,-0.312999 c -0.035,-0.067 0.017,-0.093 0.075,-0.025 a 0.545,0.545 0 0 0 -0.051,-0.152 c 0,0 0.034,-0.051 0.051,-0.062 0.043,-0.04 0.084,-0.082 0.136,-0.107 0.293,-0.1850001 0.599,-0.3469997 0.92,-0.4739997 a 6.52,6.52 0 0 0 0.515,-0.228 c 0.067,-0.042 0.127,-0.084 0.186,-0.136 0.22,-0.185 0.364,-0.438 0.413,-0.718 0.01,-0.04 0.01,-0.074 0.01,-0.107 v -0.069 c -0.034,-0.144 -0.279,-0.245 -1.553,-0.372 a 1.104,1.104 0 0 1 -0.9109997,-0.852 v 0.007 a 2.035,2.035 0 0 0 -0.051,0.146 c 0.016,-0.053 0.033,-0.094 0.051,-0.146 v -0.007 a 3.257,3.257 0 0 1 1.2489997,-1.553 c 0.031,-0.025 -0.126,0.007 -0.093,-0.017 0.102,-0.051 0.211,-0.103 0.329,-0.145 0.059,-0.018 -0.245,-0.134 -0.515,-0.11 a 1.545,1.545 0 0 0 -0.473,0.11 c 0.067,-0.049 0.252,-0.118 0.21,-0.118 a 2.837,2.837 0 0 0 -0.9699997,0.363 c 0,-0.033 0.01,-0.06 0.018,-0.083 a 1.474,1.474 0 0 0 -0.5999995,0.464 v -0.112 a 2.706,2.706 0 0 0 -0.295,0.28 h -0.008 a 3.92,3.92 0 0 0 -2.205,-0.184 l -0.008,-0.009 h 0.008 a 1.684,1.684 0 0 1 -0.387,-0.439 l -0.01,0.007 -0.015,-0.016 c -0.053,-0.068 -0.093,-0.152 -0.147,-0.246 -0.04,-0.06 -0.074,-0.136 -0.116,-0.21 0,0 0,-0.008 -0.008,-0.008 -0.01,0 -0.026,0.077 -0.033,0.049 a 2.668,2.668 0 0 1 -0.179,-1.053 h -0.008 a 1.12,1.12 0 0 0 -0.448,0.589 c -0.041,0.086 -0.067,0.128 -0.092,0.179 v -0.028 l 0.024,-0.125 c -0.006,0.009 -0.006,0.017 -0.017,0.025 a 1.06,1.06 0 0 0 -0.1499997,0.23 1.117,1.117 0 0 0 -0.103,0.243 v -0.042 c 0,-0.034 0.009,-0.085 0,-0.067 l -0.009,0.023 a 5.968,5.968 0 0 0 -0.506,1.902 c -0.016,0.118 -0.016,0.228 -0.016,0.337 v 0.018 a 4.422,4.422 0 0 0 -0.514,0.683 9.703,9.703 0 0 0 -1.082,2.6589987 c 0.161,-0.353999 0.354,-0.700999 0.583,-1.0209987 a 9.332,9.332 0 0 0 -0.659,3.4539987 c 0.076,-0.346 0.169,-0.684 0.278,-1.022 a 8.737,8.737 0 0 0 0.787,4.062 9.397,9.397 0 0 0 3.7379997,4.229 8.052,8.052 0 0 0 2.1689995,1.048 c 0.102,0.033 0.213,0.074 0.313,0.109 -0.034,-0.018 -0.059,-0.035 -0.092,-0.042 a 9.912,9.912 0 0 0 2.8179997,0.413 c 3.387001,0 4.501001,-1.292 4.610001,-1.418 0.16,-0.151 0.303,-0.331 0.396,-0.541 0.068,-0.024 0.127,-0.05 0.195,-0.084 l 0.041,-0.016 c 0.051,-0.026 0.075,-0.034 0.075,-0.034 a 7.11,7.11 0 0 0 1.437,-0.896 3.475,3.475 0 0 0 1.326,-1.951 c 0.125,-0.286 0.125,-0.6 0.024,-0.894 0.05,-0.084 0.094,-0.161 0.101,-0.178 a 7.954,7.954 0 0 0 1.199,-3.876 v -0.116 a 4.918,4.918 0 0 0 -0.072,-0.872 z"
     id="path2" />
</svg>
