<svg xmlns="http://www.w3.org/2000/svg" width="240" height="240" viewBox="0 0 240 240">
  <path fill="#f4f4f7" stroke-width="10" d="M90 117.5c-6.9 0-12.5 5.6-12.5 12.5s5.6 12.5 12.5 12.5 12.5-5.6 12.5-12.5-5.6-12.5-12.5-12.5zm60 0c-6.9 0-12.5 5.6-12.5 12.5s5.6 12.5 12.5 12.5 12.5-5.6 12.5-12.5-5.6-12.5-12.5-12.5zM120 20C64.8 20 20 64.8 20 120s44.8 100 100 100 100-44.8 100-100S175.2 20 120 20Zm0 180c-44.1 0-80-35.9-80-80 0-2.9.2-5.8.5-8.6 23.6-10.5 42.3-29.8 52.1-53.7 18.1 25.6 47.9 42.3 81.6 42.3 7.8 0 15.3-.9 22.5-2.6 2.1 7.1 3.3 14.7 3.3 22.6 0 44.1-35.9 80-80 80z"/>
</svg>
