<svg xmlns="http://www.w3.org/2000/svg" width="240" height="240" viewBox="0 0 240 240">
  <path fill="none" d="M0 0h24v24H0Z"/>
  <path fill="#f4f4f7" stroke-width="11.111" d="M120 20C64.778 20 20 64.778 20 120s44.778 100 100 100a16.644 16.644 0 0 0 16.667-16.667c0-4.333-1.667-8.222-4.334-11.222-2.555-2.889-4.222-6.778-4.222-11a16.644 16.644 0 0 1 16.667-16.667h19.666c30.667 0 55.556-24.888 55.556-55.555C220 59.778 175.222 20 120 20ZM58.889 120a16.644 16.644 0 0 1-16.667-16.667A16.644 16.644 0 0 1 58.89 86.667a16.644 16.644 0 0 1 16.667 16.666A16.644 16.644 0 0 1 58.889 120zm33.333-44.444a16.644 16.644 0 0 1-16.666-16.667 16.644 16.644 0 0 1 16.666-16.667A16.644 16.644 0 0 1 108.89 58.89a16.644 16.644 0 0 1-16.667 16.667zm55.556 0a16.644 16.644 0 0 1-16.667-16.667 16.644 16.644 0 0 1 16.667-16.667 16.644 16.644 0 0 1 16.666 16.667 16.644 16.644 0 0 1-16.666 16.667zM181.11 120a16.644 16.644 0 0 1-16.667-16.667 16.644 16.644 0 0 1 16.667-16.666 16.644 16.644 0 0 1 16.667 16.666A16.644 16.644 0 0 1 181.11 120z"/>
</svg>
