<svg xmlns="http://www.w3.org/2000/svg" xml:space="preserve" width="240" height="240" viewBox="0 0 240 240">
  <path fill="#f4f4f7" d="M119.996 20C64.766 20 20 64.767 20 119.996S64.767 220 119.996 220 220 175.225 220 119.996C220 64.766 175.225 20 119.996 20Zm0 178.592A78.588 78.588 0 0 1 41.4 119.996 78.588 78.588 0 0 1 119.996 41.4a78.588 78.588 0 0 1 78.596 78.596 78.588 78.588 0 0 1-78.596 78.596zm15.61-117.624v78.047a15.611 15.611 0 0 1-31.221 0V80.968a15.611 15.611 0 0 1 31.222 0z"/>
</svg>
