<svg xmlns="http://www.w3.org/2000/svg" width="240" height="240" viewBox="0 0 240 240">
  <path fill="#f4f4f7" stroke-width="12.498" d="M190.51 49.406c-20.371-20.371-49.241-32.119-80.985-28.87-45.867 4.625-83.61 41.868-88.734 87.734C13.917 168.884 60.784 220 119.898 220c39.868 0 74.111-23.37 90.108-56.99 4-8.373-2-17.996-11.247-17.996-4.625 0-8.999 2.5-10.998 6.623-14.123 30.37-47.992 49.616-84.985 41.368-27.745-6.124-50.116-28.745-55.99-56.49-10.498-48.49 26.37-91.483 73.112-91.483 20.746 0 39.243 8.623 52.74 22.246l-18.871 18.871c-7.874 7.874-2.375 21.372 8.748 21.372h44.867c6.874 0 12.498-5.624 12.498-12.498V50.156c0-11.123-13.498-16.747-21.371-8.873z"/>
</svg>
