<svg xmlns="http://www.w3.org/2000/svg" width="240" height="240" viewBox="0 0 240 240">
  <path fill="#f4f4f7" stroke-width="11.109" d="M120.02 20.05c-6.11 0-11.109 5-11.109 11.11v88.87c0 6.11 5 11.11 11.109 11.11 6.11 0 11.109-5 11.109-11.11V31.16c0-6.11-5-11.11-11.109-11.11zm57.1 31.772c-4.333 4.332-4.222 11.109-.111 15.441 12.553 13.33 20.329 31.105 20.773 50.768 1 42.547-34.215 79.206-76.762 79.65-43.436.667-78.762-34.326-78.762-77.65 0-20.441 7.887-38.993 20.773-52.879 4.11-4.332 4.11-11.109-.11-15.33-4.444-4.444-11.665-4.333-15.886.222-16.108 17.108-26.217 39.88-26.995 65.098-1.555 54.211 42.547 101.09 96.758 102.757C173.454 221.677 220 176.241 220 119.92c0-26.328-10.22-50.1-26.884-67.875-4.22-4.555-11.553-4.666-15.996-.222z"/>
</svg>
