<?xml version="1.0" encoding="UTF-8" standalone="no"?>
<svg
   xmlns:dc="http://purl.org/dc/elements/1.1/"
   xmlns:cc="http://creativecommons.org/ns#"
   xmlns:rdf="http://www.w3.org/1999/02/22-rdf-syntax-ns#"
   xmlns:svg="http://www.w3.org/2000/svg"
   xmlns="http://www.w3.org/2000/svg"
   xmlns:xlink="http://www.w3.org/1999/xlink"
   xmlns:sodipodi="http://sodipodi.sourceforge.net/DTD/sodipodi-0.dtd"
   xmlns:inkscape="http://www.inkscape.org/namespaces/inkscape"
   width="64"
   height="64"
   version="1.1"
   id="svg125"
   sodipodi:docname="application-x-executable.svg"
   inkscape:version="1.0.1 (3bc2e813f5, 2020-09-07)">
  <metadata
     id="metadata129">
    <rdf:RDF>
      <cc:Work
         rdf:about="">
        <dc:format>image/svg+xml</dc:format>
        <dc:type
           rdf:resource="http://purl.org/dc/dcmitype/StillImage" />
        <dc:title />
      </cc:Work>
    </rdf:RDF>
  </metadata>
  <sodipodi:namedview
     pagecolor="#f4f4f7fff"
     bordercolor="#555e70666"
     borderopacity="1"
     objecttolerance="10"
     gridtolerance="10"
     guidetolerance="10"
     inkscape:pageopacity="0"
     inkscape:pageshadow="2"
     inkscape:window-width="1737"
     inkscape:window-height="965"
     id="namedview127"
     showgrid="false"
     inkscape:zoom="12.578125"
     inkscape:cx="32"
     inkscape:cy="32"
     inkscape:window-x="157"
     inkscape:window-y="7"
     inkscape:window-maximized="0"
     inkscape:current-layer="g121"
     inkscape:document-rotation="0" />
  <defs
     id="defs47">
    <linearGradient
       id="linearGradient6721-3"
       x1="7.9373"
       x2="7.9373"
       y1="15.346"
       y2="16.933"
       gradientUnits="userSpaceOnUse"
       xlink:href="#linearGradient6261" />
    <linearGradient
       id="linearGradient6261">
      <stop
         offset="0"
         id="stop3" />
      <stop
         stop-opacity="0"
         offset="1"
         id="stop5" />
    </linearGradient>
    <radialGradient
       id="radialGradient6723-5"
       cx="35"
       cy="4"
       r="3.7275"
       gradientTransform="matrix(1.696 0 0 1.0731 -24.361 -.29238)"
       gradientUnits="userSpaceOnUse"
       xlink:href="#linearGradient6261" />
    <linearGradient
       id="linearGradient6725-3"
       x1="43"
       x2="46.748"
       y1="12"
       y2="8.2517"
       gradientUnits="userSpaceOnUse"
       xlink:href="#linearGradient6261" />
    <radialGradient
       id="radialGradient6727-5"
       cx="52"
       cy="22"
       r="5.2061"
       gradientTransform="matrix(.96042 0 0 1.3331 2.0581 -7.3283)"
       gradientUnits="userSpaceOnUse"
       xlink:href="#linearGradient6261" />
    <linearGradient
       id="linearGradient6729-6"
       x1="5.8207"
       x2="5.8207"
       y1="1.0583"
       gradientUnits="userSpaceOnUse"
       xlink:href="#linearGradient6261" />
    <radialGradient
       id="radialGradient6731-2"
       cx="3.1749"
       cy="1.3229"
       r=".79373"
       gradientTransform="matrix(-2.1078e-8 -1.3333 1.6667 -2.6348e-8 .97012 5.2916)"
       gradientUnits="userSpaceOnUse"
       xlink:href="#linearGradient6261" />
    <linearGradient
       id="linearGradient6733-9"
       x1="13.758"
       x2="15.081"
       y1="10.583"
       y2="10.583"
       gradientUnits="userSpaceOnUse"
       xlink:href="#linearGradient6261" />
    <linearGradient
       id="linearGradient6735-1"
       x1="3.1749"
       x2="1.852"
       y1="8.4665"
       y2="8.4665"
       gradientUnits="userSpaceOnUse"
       xlink:href="#linearGradient6261" />
    <radialGradient
       id="radialGradient6737-2"
       cx="13.758"
       cy="15.346"
       r=".79373"
       gradientTransform="matrix(5.1718e-7 2 -1.6667 4.3098e-7 39.334 -12.171)"
       gradientUnits="userSpaceOnUse"
       xlink:href="#linearGradient6261" />
    <radialGradient
       id="radialGradient6739-7"
       cx="3.1749"
       cy="15.346"
       r=".79373"
       gradientTransform="matrix(-1.6667 -1.37e-6 1.644e-6 -2 8.4665 46.037)"
       gradientUnits="userSpaceOnUse"
       xlink:href="#linearGradient6261" />
    <linearGradient
       id="linearGradient6741-0"
       x1="7.9373"
       x2="7.9373"
       y1="15.346"
       y2="16.668"
       gradientUnits="userSpaceOnUse"
       xlink:href="#linearGradient6261" />
    <radialGradient
       id="radialGradient6743-9"
       cx="35"
       cy="4"
       r="3.7275"
       gradientTransform="matrix(1.6115 -1.9122e-7 9.5496e-8 .80482 -21.403 .78072)"
       gradientUnits="userSpaceOnUse"
       xlink:href="#linearGradient6261" />
    <linearGradient
       id="linearGradient6745-3"
       x1="43"
       x2="46.004"
       y1="12"
       y2="8.9965"
       gradientUnits="userSpaceOnUse"
       xlink:href="#linearGradient6261" />
    <radialGradient
       id="radialGradient6747-6"
       cx="52"
       cy="22"
       r="5.2061"
       gradientTransform="matrix(.76834 -9.6042e-8 1.534e-7 1.2272 12.047 -4.9986)"
       gradientUnits="userSpaceOnUse"
       xlink:href="#linearGradient6261" />
    <linearGradient
       id="linearGradient6749-0"
       x1="5.8207"
       x2="5.8207"
       y1="1.0583"
       y2=".26458"
       gradientUnits="userSpaceOnUse"
       xlink:href="#linearGradient6261" />
    <radialGradient
       id="radialGradient6751-6"
       cx="3.1749"
       cy="1.3229"
       r=".79373"
       gradientTransform="matrix(-7.442e-8 -1 1.3333 -9.9226e-8 1.4111 4.2333)"
       gradientUnits="userSpaceOnUse"
       xlink:href="#linearGradient6261" />
    <linearGradient
       id="linearGradient6753-2"
       x1="13.758"
       x2="14.816"
       y1="10.583"
       y2="10.583"
       gradientUnits="userSpaceOnUse"
       xlink:href="#linearGradient6261" />
    <linearGradient
       id="linearGradient6755-6"
       x1="3.1749"
       x2="2.1166"
       y1="8.4665"
       y2="8.4665"
       gradientUnits="userSpaceOnUse"
       xlink:href="#linearGradient6261" />
    <radialGradient
       id="radialGradient6757-1"
       cx="13.758"
       cy="15.346"
       r=".79373"
       gradientTransform="matrix(0 1.6667 -1.3333 0 34.219 -7.5846)"
       gradientUnits="userSpaceOnUse"
       xlink:href="#linearGradient6261" />
    <radialGradient
       id="radialGradient6759-8"
       cx="3.1749"
       cy="15.346"
       r=".79373"
       gradientTransform="matrix(-1.3333 0 0 -1.6667 7.4082 40.921)"
       gradientUnits="userSpaceOnUse"
       xlink:href="#linearGradient6261" />
    <linearGradient
       id="linearGradient6761-7"
       x1="21.039"
       x2="21.039"
       y1="2"
       y2="62"
       gradientTransform="matrix(.26458 0 0 .26458 0 -.26458)"
       gradientUnits="userSpaceOnUse">
      <stop
         stop-color="#ff5b59"
         offset="0"
         id="stop27" />
      <stop
         stop-color="#ff983d"
         offset="1"
         id="stop29" />
    </linearGradient>
    <radialGradient
       id="radialGradient6763-2"
       cx="40"
       cy="12"
       r="8"
       gradientTransform="matrix(1.5 0 0 -2 -14 40)"
       gradientUnits="userSpaceOnUse"
       xlink:href="#linearGradient6261" />
    <radialGradient
       id="radialGradient6765-3"
       cx="10.583"
       cy="4.2333"
       r="2.1166"
       gradientTransform="matrix(-2 3.1236e-7 -3.1236e-7 -2 31.749 12.7)"
       gradientUnits="userSpaceOnUse"
       xlink:href="#linearGradient6261" />
    <radialGradient
       id="radialGradient6767-7"
       cx="40"
       cy="12"
       r="8"
       gradientTransform="matrix(0 -1.5 2 0 16 70)"
       gradientUnits="userSpaceOnUse"
       xlink:href="#linearGradient6261" />
    <linearGradient
       id="linearGradient7282"
       x1="10.583"
       x2="6.3499"
       y1="3.1749"
       y2="3.1749"
       gradientTransform="matrix(1 0 0 .66667 0 1.4111)"
       gradientUnits="userSpaceOnUse"
       xlink:href="#linearGradient6261" />
    <linearGradient
       id="linearGradient7284"
       x1="10.583"
       x2="8.7311"
       y1="3.0426"
       y2="3.0426"
       gradientTransform="matrix(1 0 0 .66667 0 1.4111)"
       gradientUnits="userSpaceOnUse"
       xlink:href="#linearGradient6261" />
    <radialGradient
       id="radialGradient6773-5"
       cx="10.583"
       cy="4.2333"
       r="2.1166"
       gradientTransform="matrix(-.875 -1.6564e-7 1.6631e-7 -.87849 19.843 7.9521)"
       gradientUnits="userSpaceOnUse"
       xlink:href="#linearGradient6261" />
    <radialGradient
       id="radialGradient6775-9"
       cx="40"
       cy="12"
       r="8"
       gradientTransform="matrix(0 -1.3078 .87983 0 29.442 62.311)"
       gradientUnits="userSpaceOnUse"
       xlink:href="#linearGradient6261" />
    <linearGradient
       id="linearGradient7286"
       x1="10.583"
       x2="6.3499"
       y1="3.1749"
       y2="3.1749"
       gradientTransform="matrix(1 0 0 .66667 -14.816 9.3484)"
       gradientUnits="userSpaceOnUse"
       xlink:href="#linearGradient6261" />
    <linearGradient
       id="linearGradient7288"
       x1="10.583"
       x2="8.7237"
       y1="3.0426"
       y2="3.0426"
       gradientTransform="matrix(1 0 0 .66667 -14.816 9.3484)"
       gradientUnits="userSpaceOnUse"
       xlink:href="#linearGradient6261" />
    <radialGradient
       id="radialGradient6781-2"
       cx="40"
       cy="12"
       r="8"
       gradientTransform="matrix(1.4336 0 0 -.87849 -11.344 26.542)"
       gradientUnits="userSpaceOnUse"
       xlink:href="#linearGradient6261" />
    <linearGradient
       id="linearGradient7290"
       x1="40"
       x2="46"
       y1="17"
       y2="11"
       gradientTransform="matrix(.26458 0 0 .26458 -1.6667e-7 -.26458)"
       gradientUnits="userSpaceOnUse">
      <stop
         stop-color="#fefefe"
         offset="0"
         id="stop42" />
      <stop
         stop-color="#e9e9e9"
         offset="1"
         id="stop44" />
    </linearGradient>
  </defs>
  <g
     transform="matrix(3.7796 0 0 3.7796 -.021092 1.0245)"
     id="g121">
    <g
       opacity=".1"
       id="g69">
      <rect
         x="3.1749"
         y="15.346"
         width="10.583"
         height="1.5875"
         fill="url(#linearGradient6721-3)"
         opacity="1"
         id="rect49" />
      <path
         transform="scale(.26458)"
         d="m35 0 1e-6 7 7-7z"
         fill="url(#radialGradient6723-5)"
         opacity="1"
         id="path51" />
      <path
         transform="scale(.26458)"
         d="m42 0-7 7 14 15 9-9 2e-6 -9.4551-3.5449-3.5449z"
         fill="url(#linearGradient6725-3)"
         opacity="1"
         id="path53" />
      <path
         transform="scale(.26458)"
         d="m58 13-9 9h9z"
         fill="url(#radialGradient6727-5)"
         opacity="1"
         id="path55" />
      <rect
         x="3.1749"
         width="6.0853"
         height="1.0583"
         fill="url(#linearGradient6729-6)"
         opacity="1"
         id="rect57" />
      <rect
         x="1.5875"
         width="1.5875"
         height="1.0583"
         fill="url(#radialGradient6731-2)"
         opacity="1"
         id="rect59" />
      <rect
         x="13.758"
         y="5.8207"
         width="1.5875"
         height="9.5248"
         fill="url(#linearGradient6733-9)"
         opacity="1"
         id="rect61" />
      <rect
         x="1.5875"
         y="1.0583"
         width="1.5875"
         height="14.287"
         fill="url(#linearGradient6735-1)"
         opacity="1"
         id="rect63" />
      <rect
         x="13.758"
         y="15.346"
         width="1.5875"
         height="1.5875"
         fill="url(#radialGradient6737-2)"
         opacity="1"
         id="rect65" />
      <rect
         x="1.5875"
         y="15.346"
         width="1.5875"
         height="1.5875"
         fill="url(#radialGradient6739-7)"
         opacity="1"
         id="rect67" />
    </g>
    <g
       opacity=".2"
       id="g91">
      <rect
         x="3.1749"
         y="15.346"
         width="10.583"
         height="1.5875"
         fill="url(#linearGradient6741-0)"
         opacity="1"
         id="rect71" />
      <path
         transform="scale(.26458)"
         d="m35 0 1e-6 7 7-7z"
         fill="url(#radialGradient6743-9)"
         opacity="1"
         id="path73" />
      <path
         transform="scale(.26458)"
         d="m42 0-7 7 14 15 9-9 2e-6 -9.4551-3.5449-3.5449z"
         fill="url(#linearGradient6745-3)"
         opacity="1"
         id="path75" />
      <path
         transform="scale(.26458)"
         d="m58 13-9 9h9z"
         fill="url(#radialGradient6747-6)"
         opacity="1"
         id="path77" />
      <rect
         x="3.1749"
         width="6.0853"
         height="1.0583"
         fill="url(#linearGradient6749-0)"
         opacity="1"
         id="rect79" />
      <rect
         x="1.5875"
         width="1.5875"
         height="1.0583"
         ry="0"
         fill="url(#radialGradient6751-6)"
         opacity="1"
         id="rect81" />
      <rect
         x="13.758"
         y="5.8207"
         width="1.5875"
         height="9.5248"
         fill="url(#linearGradient6753-2)"
         opacity="1"
         id="rect83" />
      <rect
         x="1.5875"
         y="1.0583"
         width="1.5875"
         height="14.287"
         fill="url(#linearGradient6755-6)"
         opacity="1"
         id="rect85" />
      <rect
         x="13.758"
         y="15.346"
         width="1.5875"
         height="1.5875"
         fill="url(#radialGradient6757-1)"
         opacity="1"
         id="rect87" />
      <rect
         x="1.5875"
         y="15.346"
         width="1.5875"
         height="1.5875"
         fill="url(#radialGradient6759-8)"
         opacity="1"
         id="rect89" />
    </g>
    <path
       d="m2.9104 0.26458c-0.29315 0-0.52916 0.23601-0.52916 0.52916v14.816c0 0.29316 0.23601 0.52916 0.52916 0.52916h11.112c0.29316 0 0.52916-0.23601 0.52916-0.52916v-10.319c0-0.26458-0.16113-0.69029-0.52916-1.0583l-3.4395-3.4395c-0.35403-0.44799-0.79374-0.52916-1.0583-0.52916z"
       fill="url(#linearGradient6761-7)"
       stroke-width=".26458"
       id="path93"
       style="fill:#23252E" />
    <rect
       x="8.7209"
       y="-.54211"
       width="6.6358"
       height="6.6348"
       fill="none"
       id="rect97" />
    <path
       d="m 3.6653411,1.219379 c -0.2531703,0 -0.4569933,0.2091037 -0.4569933,0.4688332 V 14.815114 c 0,0.259739 0.203823,0.468835 0.4569933,0.468835 H 13.26189 c 0.25318,0 0.456993,-0.209104 0.456993,-0.468835 V 5.6725322 c 0,-0.2344167 -0.139155,-0.6115936 -0.456993,-0.9376488 l -2.970423,-3.04738 C 9.9857202,1.2905865 9.6059778,1.2186703 9.3774984,1.2186703 Z"
       fill="url(#linearGradient6761-7)"
       stroke-width="0.231438"
       id="path93-3"
       style="fill:#555e70" />
    <path
       fill="#f4f4f7fff"
       d="M 9.6927515,8.2806604 C 9.459852,8.1957257 9.2957549,7.9976693 9.2957549,7.7645374 c 0,-0.2334765 0.1644917,-0.4315351 0.397392,-0.516123 0.030837,-0.011348 0.04982,-0.039198 0.041911,-0.067735 C 9.6646768,6.9286316 9.5500072,6.6917175 9.3985631,6.4764658 9.3811652,6.4517078 9.3451807,6.4434559 9.3139436,6.4548022 9.080254,6.5380155 8.8030678,6.4991597 8.6132685,6.3341101 8.4234692,6.1690617 8.3787876,5.9283647 8.474478,5.7251478 8.4871314,5.6983268 8.478057,5.6670368 8.4495651,5.6515634 8.2016412,5.519868 7.9292007,5.4201509 7.6393617,5.3589443 c -0.03282,-0.00687 -0.064848,0.00962 -0.077897,0.036449 -0.097272,0.2028738 -0.3254263,0.3462598 -0.5939133,0.3462598 -0.2680913,0 -0.4958505,-0.143043 -0.5935177,-0.3455714 -0.013048,-0.026821 -0.045077,-0.043326 -0.077897,-0.036449 -0.2898392,0.06155 -0.5626755,0.1616095 -0.8102051,0.2936492 -0.02847,0.015131 -0.037169,0.046077 -0.024911,0.072553 C 5.5563156,5.9290514 5.5116336,6.1697484 5.3218345,6.334798 5.1324311,6.4995032 4.856036,6.538702 4.622741,6.4561772 4.5918984,6.4451714 4.5567063,6.4530744 4.5393086,6.4778398 4.3878645,6.6934357 4.2731943,6.930694 4.203206,7.1827384 c -0.00791,0.028194 0.011072,0.056387 0.041914,0.067735 0.2321086,0.084935 0.3962061,0.2829901 0.3962061,0.5157784 0,0.2327883 -0.1633068,0.4301597 -0.3950197,0.5154348 -0.030843,0.011348 -0.049822,0.039198 -0.041914,0.067735 0.070384,0.2520449 0.185845,0.4889591 0.3376841,0.7045554 0.017399,0.024414 0.05259,0.032316 0.083433,0.021666 0.2332947,-0.082175 0.5092948,-0.042634 0.6983031,0.1217236 0.1890081,0.1640182 0.2340852,0.4040266 0.1399767,0.6065573 -0.012258,0.026819 -0.00316,0.057418 0.024911,0.072556 0.2479255,0.1320391 0.5207618,0.2317561 0.8106009,0.2929621 0.032424,0.0069 0.064848,-0.0097 0.077897,-0.03645 0.098063,-0.2014973 0.3254262,-0.3435093 0.5927267,-0.3435093 0.267696,0 0.4946645,0.142012 0.5927272,0.3435093 0.013048,0.02682 0.045077,0.04333 0.077897,0.03645 0.289839,-0.06121 0.5626754,-0.160923 0.8106004,-0.2929621 0.028472,-0.015127 0.037168,-0.045737 0.024913,-0.072556 C 8.3811625,9.6010499 8.4262405,9.3606968 8.6156434,9.1959915 8.8050475,9.0312863 9.0818383,8.9924317 9.3151325,9.074955 9.3459775,9.08596 9.3811665,9.078065 9.3985655,9.053289 9.5504033,8.8376951 9.66547,8.6007797 9.7358541,8.3483924 9.7429841,8.3198553 9.7239921,8.2919947 9.6927491,8.2806572 Z M 6.9691332,8.967677 c -0.7631509,0 -1.3839521,-0.539848 -1.3839521,-1.2034842 0,-0.6636341 0.6208012,-1.2034834 1.3839521,-1.2034834 0.7631508,0 1.3839526,0.5398493 1.3839526,1.2034834 0,0.6636362 -0.6208018,1.2034842 -1.3839526,1.2034842 z m 5.5324438,1.836671 c -0.0017,0.0189 -0.01927,0.03317 -0.04059,0.03459 -0.162798,0.0139 -0.308373,0.109119 -0.359631,0.253895 -0.05125,0.144423 0.0074,0.294549 0.132862,0.385837 0.01682,0.01213 0.02214,0.03246 0.01107,0.04885 -0.09883,0.144778 -0.222258,0.27244 -0.363731,0.380844 -0.0164,0.01249 -0.03977,0.01141 -0.05659,-3.66e-4 -0.126711,-0.08986 -0.306732,-0.111615 -0.460097,-0.04101 -0.153368,0.0706 -0.23374,0.211818 -0.219798,0.353386 0.002,0.0189 -0.01025,0.03637 -0.03117,0.04101 -0.182481,0.04029 -0.373163,0.05705 -0.566306,0.04671 -0.02173,-0.0012 -0.03814,-0.0164 -0.04019,-0.0353 -0.01681,-0.141213 -0.126303,-0.266734 -0.29197,-0.311309 -0.166079,-0.04458 -0.3378972,0.006 -0.4428756,0.114469 -0.013943,0.01462 -0.037311,0.01926 -0.056178,0.0097 -0.1664878,-0.0863 -0.3132931,-0.193274 -0.437954,-0.316299 -0.014349,-0.01427 -0.013122,-0.03459 3.979e-4,-0.04922 0.1025181,-0.109832 0.1275315,-0.266022 0.046338,-0.399031 -0.081195,-0.133367 -0.2435814,-0.203617 -0.4059689,-0.191493 -0.021322,0.0018 -0.041417,-0.0089 -0.046748,-0.0271 -0.046748,-0.159041 -0.066021,-0.324857 -0.054539,-0.492814 0.00124,-0.0189 0.018865,-0.03317 0.040597,-0.03495 C 9.020893,10.560102 9.165238,10.464893 9.2164958,10.320829 9.2677578,10.176407 9.2095358,10.026637 9.084454,9.935349 9.068049,9.923217 9.062313,9.902904 9.073379,9.886499 9.171796,9.7420773 9.2952262,9.614059 9.4362894,9.5056548 c 0.016405,-0.012486 0.039781,-0.011413 0.056592,3.661e-4 0.1263022,0.089863 0.3063217,0.1116154 0.4596881,0.041013 0.1537765,-0.070602 0.2341495,-0.2125311 0.2197985,-0.3540997 -0.002,-0.018542 0.01024,-0.036375 0.03117,-0.041013 0.182481,-0.040648 0.373573,-0.057407 0.566715,-0.047422 0.02173,0.00107 0.03814,0.016759 0.04019,0.035666 0.016,0.141925 0.125892,0.268159 0.29197,0.3127339 0.166488,0.044577 0.339127,-0.00644 0.444104,-0.1158939 0.01394,-0.014258 0.03731,-0.019261 0.05618,-0.00966 0.166489,0.085944 0.313294,0.1932745 0.437955,0.3159429 0.01435,0.013903 0.01353,0.034947 -3.68e-4,0.049569 -0.103749,0.1101879 -0.128764,0.2667347 -0.04756,0.4004569 0.08119,0.133725 0.244402,0.203973 0.407609,0.191135 0.02173,-0.0018 0.04223,0.0092 0.04756,0.02745 0.04634,0.158687 0.06561,0.324504 0.05372,0.492461 z m -2.106525,0.647935 c 0.47281,0.126591 0.976374,-0.10484 1.121949,-0.515995 0.145575,-0.411154 -0.120561,-0.849055 -0.59337,-0.9756454 -0.47281,-0.1265925 -0.9763755,0.1048394 -1.1219503,0.5159934 -0.1455743,0.411156 0.1205618,0.849056 0.5933713,0.975647 z"
       id="path42"
       style="fill:#f4f4f7;stroke-width:0.0358498" />
  </g>
</svg>
