<?xml version="1.0" encoding="UTF-8" standalone="no"?>
<svg
   xmlns:dc="http://purl.org/dc/elements/1.1/"
   xmlns:cc="http://creativecommons.org/ns#"
   xmlns:rdf="http://www.w3.org/1999/02/22-rdf-syntax-ns#"
   xmlns:svg="http://www.w3.org/2000/svg"
   xmlns="http://www.w3.org/2000/svg"
   xmlns:xlink="http://www.w3.org/1999/xlink"
   xmlns:sodipodi="http://sodipodi.sourceforge.net/DTD/sodipodi-0.dtd"
   xmlns:inkscape="http://www.inkscape.org/namespaces/inkscape"
   width="64"
   height="64"
   version="1.1"
   id="svg125"
   sodipodi:docname="application-x-perl.svg"
   inkscape:version="1.0.1 (3bc2e813f5, 2020-09-07)">
  <metadata
     id="metadata129">
    <rdf:RDF>
      <cc:Work
         rdf:about="">
        <dc:format>image/svg+xml</dc:format>
        <dc:type
           rdf:resource="http://purl.org/dc/dcmitype/StillImage" />
        <dc:title />
      </cc:Work>
    </rdf:RDF>
  </metadata>
  <sodipodi:namedview
     pagecolor="#f4f4f7fff"
     bordercolor="#555e70666"
     borderopacity="1"
     objecttolerance="10"
     gridtolerance="10"
     guidetolerance="10"
     inkscape:pageopacity="0"
     inkscape:pageshadow="2"
     inkscape:window-width="1737"
     inkscape:window-height="965"
     id="namedview127"
     showgrid="false"
     inkscape:zoom="12.578125"
     inkscape:cx="32"
     inkscape:cy="36.27137"
     inkscape:window-x="142"
     inkscape:window-y="7"
     inkscape:window-maximized="0"
     inkscape:current-layer="g121"
     inkscape:document-rotation="0" />
  <defs
     id="defs47">
    <linearGradient
       id="linearGradient6721-3"
       x1="7.9373"
       x2="7.9373"
       y1="15.346"
       y2="16.933"
       gradientUnits="userSpaceOnUse"
       xlink:href="#linearGradient6261" />
    <linearGradient
       id="linearGradient6261">
      <stop
         offset="0"
         id="stop3" />
      <stop
         stop-opacity="0"
         offset="1"
         id="stop5" />
    </linearGradient>
    <radialGradient
       id="radialGradient6723-5"
       cx="35"
       cy="4"
       r="3.7275"
       gradientTransform="matrix(1.696 0 0 1.0731 -24.361 -.29238)"
       gradientUnits="userSpaceOnUse"
       xlink:href="#linearGradient6261" />
    <linearGradient
       id="linearGradient6725-3"
       x1="43"
       x2="46.748"
       y1="12"
       y2="8.2517"
       gradientUnits="userSpaceOnUse"
       xlink:href="#linearGradient6261" />
    <radialGradient
       id="radialGradient6727-5"
       cx="52"
       cy="22"
       r="5.2061"
       gradientTransform="matrix(.96042 0 0 1.3331 2.0581 -7.3283)"
       gradientUnits="userSpaceOnUse"
       xlink:href="#linearGradient6261" />
    <linearGradient
       id="linearGradient6729-6"
       x1="5.8207"
       x2="5.8207"
       y1="1.0583"
       gradientUnits="userSpaceOnUse"
       xlink:href="#linearGradient6261" />
    <radialGradient
       id="radialGradient6731-2"
       cx="3.1749"
       cy="1.3229"
       r=".79373"
       gradientTransform="matrix(-2.1078e-8 -1.3333 1.6667 -2.6348e-8 .97012 5.2916)"
       gradientUnits="userSpaceOnUse"
       xlink:href="#linearGradient6261" />
    <linearGradient
       id="linearGradient6733-9"
       x1="13.758"
       x2="15.081"
       y1="10.583"
       y2="10.583"
       gradientUnits="userSpaceOnUse"
       xlink:href="#linearGradient6261" />
    <linearGradient
       id="linearGradient6735-1"
       x1="3.1749"
       x2="1.852"
       y1="8.4665"
       y2="8.4665"
       gradientUnits="userSpaceOnUse"
       xlink:href="#linearGradient6261" />
    <radialGradient
       id="radialGradient6737-2"
       cx="13.758"
       cy="15.346"
       r=".79373"
       gradientTransform="matrix(5.1718e-7 2 -1.6667 4.3098e-7 39.334 -12.171)"
       gradientUnits="userSpaceOnUse"
       xlink:href="#linearGradient6261" />
    <radialGradient
       id="radialGradient6739-7"
       cx="3.1749"
       cy="15.346"
       r=".79373"
       gradientTransform="matrix(-1.6667 -1.37e-6 1.644e-6 -2 8.4665 46.037)"
       gradientUnits="userSpaceOnUse"
       xlink:href="#linearGradient6261" />
    <linearGradient
       id="linearGradient6741-0"
       x1="7.9373"
       x2="7.9373"
       y1="15.346"
       y2="16.668"
       gradientUnits="userSpaceOnUse"
       xlink:href="#linearGradient6261" />
    <radialGradient
       id="radialGradient6743-9"
       cx="35"
       cy="4"
       r="3.7275"
       gradientTransform="matrix(1.6115 -1.9122e-7 9.5496e-8 .80482 -21.403 .78072)"
       gradientUnits="userSpaceOnUse"
       xlink:href="#linearGradient6261" />
    <linearGradient
       id="linearGradient6745-3"
       x1="43"
       x2="46.004"
       y1="12"
       y2="8.9965"
       gradientUnits="userSpaceOnUse"
       xlink:href="#linearGradient6261" />
    <radialGradient
       id="radialGradient6747-6"
       cx="52"
       cy="22"
       r="5.2061"
       gradientTransform="matrix(.76834 -9.6042e-8 1.534e-7 1.2272 12.047 -4.9986)"
       gradientUnits="userSpaceOnUse"
       xlink:href="#linearGradient6261" />
    <linearGradient
       id="linearGradient6749-0"
       x1="5.8207"
       x2="5.8207"
       y1="1.0583"
       y2=".26458"
       gradientUnits="userSpaceOnUse"
       xlink:href="#linearGradient6261" />
    <radialGradient
       id="radialGradient6751-6"
       cx="3.1749"
       cy="1.3229"
       r=".79373"
       gradientTransform="matrix(-7.442e-8 -1 1.3333 -9.9226e-8 1.4111 4.2333)"
       gradientUnits="userSpaceOnUse"
       xlink:href="#linearGradient6261" />
    <linearGradient
       id="linearGradient6753-2"
       x1="13.758"
       x2="14.816"
       y1="10.583"
       y2="10.583"
       gradientUnits="userSpaceOnUse"
       xlink:href="#linearGradient6261" />
    <linearGradient
       id="linearGradient6755-6"
       x1="3.1749"
       x2="2.1166"
       y1="8.4665"
       y2="8.4665"
       gradientUnits="userSpaceOnUse"
       xlink:href="#linearGradient6261" />
    <radialGradient
       id="radialGradient6757-1"
       cx="13.758"
       cy="15.346"
       r=".79373"
       gradientTransform="matrix(0 1.6667 -1.3333 0 34.219 -7.5846)"
       gradientUnits="userSpaceOnUse"
       xlink:href="#linearGradient6261" />
    <radialGradient
       id="radialGradient6759-8"
       cx="3.1749"
       cy="15.346"
       r=".79373"
       gradientTransform="matrix(-1.3333 0 0 -1.6667 7.4082 40.921)"
       gradientUnits="userSpaceOnUse"
       xlink:href="#linearGradient6261" />
    <linearGradient
       id="linearGradient6761-7"
       x1="21.039"
       x2="21.039"
       y1="2"
       y2="62"
       gradientTransform="matrix(.26458 0 0 .26458 0 -.26458)"
       gradientUnits="userSpaceOnUse">
      <stop
         stop-color="#ff5b59"
         offset="0"
         id="stop27" />
      <stop
         stop-color="#ff983d"
         offset="1"
         id="stop29" />
    </linearGradient>
    <radialGradient
       id="radialGradient6763-2"
       cx="40"
       cy="12"
       r="8"
       gradientTransform="matrix(1.5 0 0 -2 -14 40)"
       gradientUnits="userSpaceOnUse"
       xlink:href="#linearGradient6261" />
    <radialGradient
       id="radialGradient6765-3"
       cx="10.583"
       cy="4.2333"
       r="2.1166"
       gradientTransform="matrix(-2 3.1236e-7 -3.1236e-7 -2 31.749 12.7)"
       gradientUnits="userSpaceOnUse"
       xlink:href="#linearGradient6261" />
    <radialGradient
       id="radialGradient6767-7"
       cx="40"
       cy="12"
       r="8"
       gradientTransform="matrix(0 -1.5 2 0 16 70)"
       gradientUnits="userSpaceOnUse"
       xlink:href="#linearGradient6261" />
    <linearGradient
       id="linearGradient7282"
       x1="10.583"
       x2="6.3499"
       y1="3.1749"
       y2="3.1749"
       gradientTransform="matrix(1 0 0 .66667 0 1.4111)"
       gradientUnits="userSpaceOnUse"
       xlink:href="#linearGradient6261" />
    <linearGradient
       id="linearGradient7284"
       x1="10.583"
       x2="8.7311"
       y1="3.0426"
       y2="3.0426"
       gradientTransform="matrix(1 0 0 .66667 0 1.4111)"
       gradientUnits="userSpaceOnUse"
       xlink:href="#linearGradient6261" />
    <radialGradient
       id="radialGradient6773-5"
       cx="10.583"
       cy="4.2333"
       r="2.1166"
       gradientTransform="matrix(-.875 -1.6564e-7 1.6631e-7 -.87849 19.843 7.9521)"
       gradientUnits="userSpaceOnUse"
       xlink:href="#linearGradient6261" />
    <radialGradient
       id="radialGradient6775-9"
       cx="40"
       cy="12"
       r="8"
       gradientTransform="matrix(0 -1.3078 .87983 0 29.442 62.311)"
       gradientUnits="userSpaceOnUse"
       xlink:href="#linearGradient6261" />
    <linearGradient
       id="linearGradient7286"
       x1="10.583"
       x2="6.3499"
       y1="3.1749"
       y2="3.1749"
       gradientTransform="matrix(1 0 0 .66667 -14.816 9.3484)"
       gradientUnits="userSpaceOnUse"
       xlink:href="#linearGradient6261" />
    <linearGradient
       id="linearGradient7288"
       x1="10.583"
       x2="8.7237"
       y1="3.0426"
       y2="3.0426"
       gradientTransform="matrix(1 0 0 .66667 -14.816 9.3484)"
       gradientUnits="userSpaceOnUse"
       xlink:href="#linearGradient6261" />
    <radialGradient
       id="radialGradient6781-2"
       cx="40"
       cy="12"
       r="8"
       gradientTransform="matrix(1.4336 0 0 -.87849 -11.344 26.542)"
       gradientUnits="userSpaceOnUse"
       xlink:href="#linearGradient6261" />
    <linearGradient
       id="linearGradient7290"
       x1="40"
       x2="46"
       y1="17"
       y2="11"
       gradientTransform="matrix(.26458 0 0 .26458 -1.6667e-7 -.26458)"
       gradientUnits="userSpaceOnUse">
      <stop
         stop-color="#fefefe"
         offset="0"
         id="stop42" />
      <stop
         stop-color="#e9e9e9"
         offset="1"
         id="stop44" />
    </linearGradient>
  </defs>
  <g
     transform="matrix(3.7796 0 0 3.7796 -.021092 1.0245)"
     id="g121">
    <g
       opacity=".1"
       id="g69">
      <rect
         x="3.1749"
         y="15.346"
         width="10.583"
         height="1.5875"
         fill="url(#linearGradient6721-3)"
         opacity="1"
         id="rect49" />
      <path
         transform="scale(.26458)"
         d="m35 0 1e-6 7 7-7z"
         fill="url(#radialGradient6723-5)"
         opacity="1"
         id="path51" />
      <path
         transform="scale(.26458)"
         d="m42 0-7 7 14 15 9-9 2e-6 -9.4551-3.5449-3.5449z"
         fill="url(#linearGradient6725-3)"
         opacity="1"
         id="path53" />
      <path
         transform="scale(.26458)"
         d="m58 13-9 9h9z"
         fill="url(#radialGradient6727-5)"
         opacity="1"
         id="path55" />
      <rect
         x="3.1749"
         width="6.0853"
         height="1.0583"
         fill="url(#linearGradient6729-6)"
         opacity="1"
         id="rect57" />
      <rect
         x="1.5875"
         width="1.5875"
         height="1.0583"
         fill="url(#radialGradient6731-2)"
         opacity="1"
         id="rect59" />
      <rect
         x="13.758"
         y="5.8207"
         width="1.5875"
         height="9.5248"
         fill="url(#linearGradient6733-9)"
         opacity="1"
         id="rect61" />
      <rect
         x="1.5875"
         y="1.0583"
         width="1.5875"
         height="14.287"
         fill="url(#linearGradient6735-1)"
         opacity="1"
         id="rect63" />
      <rect
         x="13.758"
         y="15.346"
         width="1.5875"
         height="1.5875"
         fill="url(#radialGradient6737-2)"
         opacity="1"
         id="rect65" />
      <rect
         x="1.5875"
         y="15.346"
         width="1.5875"
         height="1.5875"
         fill="url(#radialGradient6739-7)"
         opacity="1"
         id="rect67" />
    </g>
    <g
       opacity=".2"
       id="g91">
      <rect
         x="3.1749"
         y="15.346"
         width="10.583"
         height="1.5875"
         fill="url(#linearGradient6741-0)"
         opacity="1"
         id="rect71" />
      <path
         transform="scale(.26458)"
         d="m35 0 1e-6 7 7-7z"
         fill="url(#radialGradient6743-9)"
         opacity="1"
         id="path73" />
      <path
         transform="scale(.26458)"
         d="m42 0-7 7 14 15 9-9 2e-6 -9.4551-3.5449-3.5449z"
         fill="url(#linearGradient6745-3)"
         opacity="1"
         id="path75" />
      <path
         transform="scale(.26458)"
         d="m58 13-9 9h9z"
         fill="url(#radialGradient6747-6)"
         opacity="1"
         id="path77" />
      <rect
         x="3.1749"
         width="6.0853"
         height="1.0583"
         fill="url(#linearGradient6749-0)"
         opacity="1"
         id="rect79" />
      <rect
         x="1.5875"
         width="1.5875"
         height="1.0583"
         ry="0"
         fill="url(#radialGradient6751-6)"
         opacity="1"
         id="rect81" />
      <rect
         x="13.758"
         y="5.8207"
         width="1.5875"
         height="9.5248"
         fill="url(#linearGradient6753-2)"
         opacity="1"
         id="rect83" />
      <rect
         x="1.5875"
         y="1.0583"
         width="1.5875"
         height="14.287"
         fill="url(#linearGradient6755-6)"
         opacity="1"
         id="rect85" />
      <rect
         x="13.758"
         y="15.346"
         width="1.5875"
         height="1.5875"
         fill="url(#radialGradient6757-1)"
         opacity="1"
         id="rect87" />
      <rect
         x="1.5875"
         y="15.346"
         width="1.5875"
         height="1.5875"
         fill="url(#radialGradient6759-8)"
         opacity="1"
         id="rect89" />
    </g>
    <path
       d="m2.9104 0.26458c-0.29315 0-0.52916 0.23601-0.52916 0.52916v14.816c0 0.29316 0.23601 0.52916 0.52916 0.52916h11.112c0.29316 0 0.52916-0.23601 0.52916-0.52916v-10.319c0-0.26458-0.16113-0.69029-0.52916-1.0583l-3.4395-3.4395c-0.35403-0.44799-0.79374-0.52916-1.0583-0.52916z"
       fill="url(#linearGradient6761-7)"
       stroke-width=".26458"
       id="path93"
       style="fill:#23252E" />
    <rect
       x="8.7209"
       y="-.54211"
       width="6.6358"
       height="6.6348"
       fill="none"
       id="rect97" />
    <path
       d="m 3.6653411,1.219379 c -0.2531703,0 -0.4569933,0.2091037 -0.4569933,0.4688332 V 14.815114 c 0,0.259739 0.203823,0.468835 0.4569933,0.468835 H 13.26189 c 0.25318,0 0.456993,-0.209104 0.456993,-0.468835 V 5.6725322 c 0,-0.2344167 -0.139155,-0.6115936 -0.456993,-0.9376488 l -2.970423,-3.04738 C 9.9857202,1.2905865 9.6059778,1.2186703 9.3774984,1.2186703 Z"
       fill="url(#linearGradient6761-7)"
       stroke-width="0.231438"
       id="path93-3"
       style="fill:#555e70" />
    <path
       style="fill:#f4f4f7;stroke-width:0.264578"
       d="m 9.5604636,9.609875 c 0.07263,0.420228 0.121946,0.73229 0.147719,1.15777 0.0071,0.264966 -0.07165,0.525311 -0.225026,0.743484 -0.03608,0.126428 -0.144287,0 -0.221595,0 -0.1907,0 -0.2611124,-0.202326 -0.364209,-0.327085 -0.1030662,-0.124759 -0.029251,-0.237712 0.03952,-0.337162 0.073874,-0.05226 0.103066,-0.168581 0.209594,-0.168581 0.1065,0 0.09277,-0.143301 0.07731,-0.21917 0.07041,-0.106216 0.02746,-0.151293 0.0962,-0.267615 0.123662,-0.05393 0.0876,-0.242751 0.130557,-0.3489672 0.03436,-0.075868 0,-0.2208686 0.0979,-0.2528858 0,0 0.01194,0 0.01015,0.016703 M 9.4400546,5.2769787 C 9.2785756,5.2585244 9.1566156,5.3663517 9.0208946,5.4270464 8.9082519,5.463832 8.7935445,5.4942188 8.6773407,5.5180595 8.5931683,5.6866694 8.3990343,5.7861196 8.2942375,5.9445948 8.1870055,6.2595014 7.9874124,6.5363227 7.7204931,6.7403372 7.339121,6.9342278 7.2526819,7.3556944 7.127289,7.7518815 7.0843371,7.8412248 7.0912037,7.9727504 7.0448187,8.0485899 6.8936363,8.0907425 6.9743757,7.8968818 6.9572128,7.80414 6.9348295,7.6659068 7.0585783,7.576563 7.0671448,7.4416691 7.1183092,7.3458515 7.1398067,7.1052594 7.1289903,6.9976046 7.1116736,6.7565235 7.1856722,6.4631838 7.0121938,6.2659251 6.9090974,6.2069292 6.9417517,6.0821702 6.9039638,5.98606 6.8014961,5.8487923 6.6710257,5.733968 6.5208606,5.6488982 6.3971991,5.6371826 6.2838051,5.4802883 6.1566813,5.5527885 6.0776727,5.643831 5.9316546,5.6421316 5.8852703,5.7635217 5.856019,5.9152594 5.6825705,5.8748057 5.5691768,5.9118903 c -0.144287,0.055628 -0.4357874,0 -0.5543153,0.1129543 C 4.8963339,6.1377981 4.7022004,6.30301 4.7606132,6.4935315 4.8963339,6.7548244 5.3527166,6.623328 5.5434177,6.7818032 5.4831904,6.9571474 5.4138109,7.2615172 5.3355539,7.4298641 c -0.031174,0.2285996 -0.035781,0.4599357 -0.013732,0.689556 0.036085,0.2292756 -0.024177,0.5243145 0.1718071,0.6861584 0.1116626,0.040454 0.104797,0.1685808 0.1477196,0.2629921 0.042951,0.094411 0.125422,-0.033718 0.159778,0.057326 0.099634,0.053928 0.010147,0.1685806 0.065278,0.2360134 0.091674,0.017803 0.1759427,0.061799 0.2422192,0.126457 0.1055829,0.072166 0.2039372,0.1540179 0.2937369,0.2444502 0.068711,0.1382331 0.1563454,-0.1348651 0.2319219,-0.032047 0.038668,0.093675 0.1520526,0.1331387 0.2422193,0.084305 0.1398667,-0.02314 0.2719172,-0.079262 0.3848045,-0.1635422 0.073875,0.2579535 0.017015,0.537819 0.049817,0.804179 0.045659,0.194505 -0.031576,0.392466 -0.02009,0.591747 0.051506,0.196361 0.081456,0.397568 0.089336,0.600183 0.05585,0.421003 -0.017094,0.848795 -0.2095647,1.229016 -0.022955,0.119183 -0.1175131,0.212656 -0.238787,0.236043 -0.085903,0.03875 -0.2645455,0.107886 -0.2044309,0.229276 0.1992676,0.16858 0.5153611,0.150038 0.7438505,0.06406 0.1511517,-0.0725 0.020597,-0.252886 0.097902,-0.362471 0.1013657,-0.384382 0.051548,-0.795743 0.1717772,-1.180126 0.093039,-0.193789 0.1281873,-0.409495 0.1013654,-0.622094 0.024175,-0.129826 -0.030922,-0.286602 0.05498,-0.392818 0.00135,-0.130623 0.05073,-0.256369 0.1391226,-0.354035 0.027999,-0.198332 0.042348,-0.398289 0.042952,-0.5985133 0.1209903,-0.037114 0.2484004,-0.049732 0.3745071,-0.037084 0,0.1112838 -0.08074,0.2394113 -0.056682,0.3641693 0.025302,0.140151 -0.0022,0.172821 -0.077307,0.294566 -0.053249,0.219169 -0.089336,0.488899 0.049817,0.674353 0.23019,0.247818 0.5308226,0.423165 0.7489842,0.687857 0.07413,0.0587 0.07889,0.167939 0.01015,0.232645 -0.04003,0.142802 -0.1493189,0.256997 -0.2920364,0.305145 -0.091037,0.03541 -0.237055,0.16858 -0.1305564,0.261321 0.2143616,0.04742 0.4381368,0.03277 0.6441868,-0.04215 0.140884,-0.05059 0.08934,-0.217471 0.144316,-0.322017 0.07586,0.101129 0.145827,0.206391 0.209565,0.31528 0.08764,0.128127 0.238787,0.02197 0.3435848,-0.01845 0.01235,-0.187458 -0.02618,-0.374778 -0.1116598,-0.542855 -0.04809,-0.111284 -0.235354,-0.114653 -0.226757,-0.251217 0.09277,-0.337162 0.3229578,-0.600154 0.5050628,-0.885086 0.151151,-0.141603 0.03779,-0.352365 0.04638,-0.531052 -0.04818,-0.4592816 0.06517,-0.8091895 0.321228,-1.1965241 0.05304,0.2151545 0.121347,0.4264038 0.204431,0.6322005 0.05988,0.2412896 0.168542,0.4683186 0.319526,0.6676156 0.07041,0.239411 0.05152,0.505772 0.0979,0.75359 0.06639,0.428529 0.04183,0.760122 -0.07214,1.178896 0.01193,0.153407 -0.135719,0.26636 -0.12196,0.416399 0.04122,0.138263 0.206133,0.02695 0.292036,0.08597 0.155111,0.04727 0.322037,-0.02458 0.39167,-0.168581 -0.03584,-0.117127 -0.06001,-0.237392 -0.07217,-0.359102 -0.117874,-0.354541 -0.143849,-0.626546 -0.07558,-0.993413 0.01373,-0.198928 0.135721,-0.441708 -0.02239,-0.611988 -0.04295,-0.182085 0.03092,-0.379314 -0.01373,-0.566467 -0.105927,-0.4794793 -0.118173,-0.9743314 -0.03609,-1.4582916 0.02746,-0.067432 0,-0.1921907 0.07387,-0.2292759 0.0731,0.1071116 0.105906,0.2358689 0.09277,0.3641415 0.0668,0.1988184 0.07517,0.4120806 0.02418,0.6153564 -0.125392,0.1567761 -0.04809,0.3692086 -0.03263,0.5462256 0.0206,0.124759 0.152884,0.03541 0.171778,-0.04215 0.115439,-0.2110079 0.208688,-0.4330015 0.278306,-0.6625474 0.07901,-0.1045169 0,-0.2276061 0,-0.3371913 0.12196,-0.015232 0.07558,-0.1500382 0.01015,-0.2090347 -0.06527,-0.2157989 -0.0498,-0.465316 -0.197554,-0.6490709 C 11.661105,7.9111074 11.467435,7.6390902 11.320948,7.3423099 11.164603,6.8584486 10.717982,6.5364315 10.566801,6.0475322 10.510081,5.7638244 10.336704,5.5156079 10.087527,5.3613738 9.9765496,5.3113688 9.8616506,5.2702157 9.7439416,5.2383145 c -0.10015,0.020508 -0.201846,0.032912 -0.304064,0.037084"
       id="path12" />
  </g>
</svg>
