<?xml version="1.0" encoding="UTF-8" standalone="no"?>
<svg
   xmlns:dc="http://purl.org/dc/elements/1.1/"
   xmlns:cc="http://creativecommons.org/ns#"
   xmlns:rdf="http://www.w3.org/1999/02/22-rdf-syntax-ns#"
   xmlns:svg="http://www.w3.org/2000/svg"
   xmlns="http://www.w3.org/2000/svg"
   xmlns:xlink="http://www.w3.org/1999/xlink"
   xmlns:sodipodi="http://sodipodi.sourceforge.net/DTD/sodipodi-0.dtd"
   xmlns:inkscape="http://www.inkscape.org/namespaces/inkscape"
   width="64"
   height="64"
   version="1.1"
   id="svg125"
   sodipodi:docname="application-vnd.wolfram.wls.svg"
   inkscape:version="1.0.1 (3bc2e813f5, 2020-09-07)">
  <metadata
     id="metadata129">
    <rdf:RDF>
      <cc:Work
         rdf:about="">
        <dc:format>image/svg+xml</dc:format>
        <dc:type
           rdf:resource="http://purl.org/dc/dcmitype/StillImage" />
        <dc:title />
      </cc:Work>
    </rdf:RDF>
  </metadata>
  <sodipodi:namedview
     pagecolor="#f4f4f7fff"
     bordercolor="#555e70666"
     borderopacity="1"
     objecttolerance="10"
     gridtolerance="10"
     guidetolerance="10"
     inkscape:pageopacity="0"
     inkscape:pageshadow="2"
     inkscape:window-width="1737"
     inkscape:window-height="965"
     id="namedview127"
     showgrid="false"
     inkscape:zoom="12.578125"
     inkscape:cx="32"
     inkscape:cy="36.27137"
     inkscape:window-x="183"
     inkscape:window-y="7"
     inkscape:window-maximized="0"
     inkscape:current-layer="g121"
     inkscape:document-rotation="0" />
  <defs
     id="defs47">
    <linearGradient
       id="linearGradient6721-3"
       x1="7.9373"
       x2="7.9373"
       y1="15.346"
       y2="16.933"
       gradientUnits="userSpaceOnUse"
       xlink:href="#linearGradient6261" />
    <linearGradient
       id="linearGradient6261">
      <stop
         offset="0"
         id="stop3" />
      <stop
         stop-opacity="0"
         offset="1"
         id="stop5" />
    </linearGradient>
    <radialGradient
       id="radialGradient6723-5"
       cx="35"
       cy="4"
       r="3.7275"
       gradientTransform="matrix(1.696 0 0 1.0731 -24.361 -.29238)"
       gradientUnits="userSpaceOnUse"
       xlink:href="#linearGradient6261" />
    <linearGradient
       id="linearGradient6725-3"
       x1="43"
       x2="46.748"
       y1="12"
       y2="8.2517"
       gradientUnits="userSpaceOnUse"
       xlink:href="#linearGradient6261" />
    <radialGradient
       id="radialGradient6727-5"
       cx="52"
       cy="22"
       r="5.2061"
       gradientTransform="matrix(.96042 0 0 1.3331 2.0581 -7.3283)"
       gradientUnits="userSpaceOnUse"
       xlink:href="#linearGradient6261" />
    <linearGradient
       id="linearGradient6729-6"
       x1="5.8207"
       x2="5.8207"
       y1="1.0583"
       gradientUnits="userSpaceOnUse"
       xlink:href="#linearGradient6261" />
    <radialGradient
       id="radialGradient6731-2"
       cx="3.1749"
       cy="1.3229"
       r=".79373"
       gradientTransform="matrix(-2.1078e-8 -1.3333 1.6667 -2.6348e-8 .97012 5.2916)"
       gradientUnits="userSpaceOnUse"
       xlink:href="#linearGradient6261" />
    <linearGradient
       id="linearGradient6733-9"
       x1="13.758"
       x2="15.081"
       y1="10.583"
       y2="10.583"
       gradientUnits="userSpaceOnUse"
       xlink:href="#linearGradient6261" />
    <linearGradient
       id="linearGradient6735-1"
       x1="3.1749"
       x2="1.852"
       y1="8.4665"
       y2="8.4665"
       gradientUnits="userSpaceOnUse"
       xlink:href="#linearGradient6261" />
    <radialGradient
       id="radialGradient6737-2"
       cx="13.758"
       cy="15.346"
       r=".79373"
       gradientTransform="matrix(5.1718e-7 2 -1.6667 4.3098e-7 39.334 -12.171)"
       gradientUnits="userSpaceOnUse"
       xlink:href="#linearGradient6261" />
    <radialGradient
       id="radialGradient6739-7"
       cx="3.1749"
       cy="15.346"
       r=".79373"
       gradientTransform="matrix(-1.6667 -1.37e-6 1.644e-6 -2 8.4665 46.037)"
       gradientUnits="userSpaceOnUse"
       xlink:href="#linearGradient6261" />
    <linearGradient
       id="linearGradient6741-0"
       x1="7.9373"
       x2="7.9373"
       y1="15.346"
       y2="16.668"
       gradientUnits="userSpaceOnUse"
       xlink:href="#linearGradient6261" />
    <radialGradient
       id="radialGradient6743-9"
       cx="35"
       cy="4"
       r="3.7275"
       gradientTransform="matrix(1.6115 -1.9122e-7 9.5496e-8 .80482 -21.403 .78072)"
       gradientUnits="userSpaceOnUse"
       xlink:href="#linearGradient6261" />
    <linearGradient
       id="linearGradient6745-3"
       x1="43"
       x2="46.004"
       y1="12"
       y2="8.9965"
       gradientUnits="userSpaceOnUse"
       xlink:href="#linearGradient6261" />
    <radialGradient
       id="radialGradient6747-6"
       cx="52"
       cy="22"
       r="5.2061"
       gradientTransform="matrix(.76834 -9.6042e-8 1.534e-7 1.2272 12.047 -4.9986)"
       gradientUnits="userSpaceOnUse"
       xlink:href="#linearGradient6261" />
    <linearGradient
       id="linearGradient6749-0"
       x1="5.8207"
       x2="5.8207"
       y1="1.0583"
       y2=".26458"
       gradientUnits="userSpaceOnUse"
       xlink:href="#linearGradient6261" />
    <radialGradient
       id="radialGradient6751-6"
       cx="3.1749"
       cy="1.3229"
       r=".79373"
       gradientTransform="matrix(-7.442e-8 -1 1.3333 -9.9226e-8 1.4111 4.2333)"
       gradientUnits="userSpaceOnUse"
       xlink:href="#linearGradient6261" />
    <linearGradient
       id="linearGradient6753-2"
       x1="13.758"
       x2="14.816"
       y1="10.583"
       y2="10.583"
       gradientUnits="userSpaceOnUse"
       xlink:href="#linearGradient6261" />
    <linearGradient
       id="linearGradient6755-6"
       x1="3.1749"
       x2="2.1166"
       y1="8.4665"
       y2="8.4665"
       gradientUnits="userSpaceOnUse"
       xlink:href="#linearGradient6261" />
    <radialGradient
       id="radialGradient6757-1"
       cx="13.758"
       cy="15.346"
       r=".79373"
       gradientTransform="matrix(0 1.6667 -1.3333 0 34.219 -7.5846)"
       gradientUnits="userSpaceOnUse"
       xlink:href="#linearGradient6261" />
    <radialGradient
       id="radialGradient6759-8"
       cx="3.1749"
       cy="15.346"
       r=".79373"
       gradientTransform="matrix(-1.3333 0 0 -1.6667 7.4082 40.921)"
       gradientUnits="userSpaceOnUse"
       xlink:href="#linearGradient6261" />
    <linearGradient
       id="linearGradient6761-7"
       x1="21.039"
       x2="21.039"
       y1="2"
       y2="62"
       gradientTransform="matrix(.26458 0 0 .26458 0 -.26458)"
       gradientUnits="userSpaceOnUse">
      <stop
         stop-color="#ff5b59"
         offset="0"
         id="stop27" />
      <stop
         stop-color="#ff983d"
         offset="1"
         id="stop29" />
    </linearGradient>
    <radialGradient
       id="radialGradient6763-2"
       cx="40"
       cy="12"
       r="8"
       gradientTransform="matrix(1.5 0 0 -2 -14 40)"
       gradientUnits="userSpaceOnUse"
       xlink:href="#linearGradient6261" />
    <radialGradient
       id="radialGradient6765-3"
       cx="10.583"
       cy="4.2333"
       r="2.1166"
       gradientTransform="matrix(-2 3.1236e-7 -3.1236e-7 -2 31.749 12.7)"
       gradientUnits="userSpaceOnUse"
       xlink:href="#linearGradient6261" />
    <radialGradient
       id="radialGradient6767-7"
       cx="40"
       cy="12"
       r="8"
       gradientTransform="matrix(0 -1.5 2 0 16 70)"
       gradientUnits="userSpaceOnUse"
       xlink:href="#linearGradient6261" />
    <linearGradient
       id="linearGradient7282"
       x1="10.583"
       x2="6.3499"
       y1="3.1749"
       y2="3.1749"
       gradientTransform="matrix(1 0 0 .66667 0 1.4111)"
       gradientUnits="userSpaceOnUse"
       xlink:href="#linearGradient6261" />
    <linearGradient
       id="linearGradient7284"
       x1="10.583"
       x2="8.7311"
       y1="3.0426"
       y2="3.0426"
       gradientTransform="matrix(1 0 0 .66667 0 1.4111)"
       gradientUnits="userSpaceOnUse"
       xlink:href="#linearGradient6261" />
    <radialGradient
       id="radialGradient6773-5"
       cx="10.583"
       cy="4.2333"
       r="2.1166"
       gradientTransform="matrix(-.875 -1.6564e-7 1.6631e-7 -.87849 19.843 7.9521)"
       gradientUnits="userSpaceOnUse"
       xlink:href="#linearGradient6261" />
    <radialGradient
       id="radialGradient6775-9"
       cx="40"
       cy="12"
       r="8"
       gradientTransform="matrix(0 -1.3078 .87983 0 29.442 62.311)"
       gradientUnits="userSpaceOnUse"
       xlink:href="#linearGradient6261" />
    <linearGradient
       id="linearGradient7286"
       x1="10.583"
       x2="6.3499"
       y1="3.1749"
       y2="3.1749"
       gradientTransform="matrix(1 0 0 .66667 -14.816 9.3484)"
       gradientUnits="userSpaceOnUse"
       xlink:href="#linearGradient6261" />
    <linearGradient
       id="linearGradient7288"
       x1="10.583"
       x2="8.7237"
       y1="3.0426"
       y2="3.0426"
       gradientTransform="matrix(1 0 0 .66667 -14.816 9.3484)"
       gradientUnits="userSpaceOnUse"
       xlink:href="#linearGradient6261" />
    <radialGradient
       id="radialGradient6781-2"
       cx="40"
       cy="12"
       r="8"
       gradientTransform="matrix(1.4336 0 0 -.87849 -11.344 26.542)"
       gradientUnits="userSpaceOnUse"
       xlink:href="#linearGradient6261" />
    <linearGradient
       id="linearGradient7290"
       x1="40"
       x2="46"
       y1="17"
       y2="11"
       gradientTransform="matrix(.26458 0 0 .26458 -1.6667e-7 -.26458)"
       gradientUnits="userSpaceOnUse">
      <stop
         stop-color="#fefefe"
         offset="0"
         id="stop42" />
      <stop
         stop-color="#e9e9e9"
         offset="1"
         id="stop44" />
    </linearGradient>
  </defs>
  <g
     transform="matrix(3.7796 0 0 3.7796 -.021092 1.0245)"
     id="g121">
    <g
       opacity=".1"
       id="g69">
      <rect
         x="3.1749"
         y="15.346"
         width="10.583"
         height="1.5875"
         fill="url(#linearGradient6721-3)"
         opacity="1"
         id="rect49" />
      <path
         transform="scale(.26458)"
         d="m35 0 1e-6 7 7-7z"
         fill="url(#radialGradient6723-5)"
         opacity="1"
         id="path51" />
      <path
         transform="scale(.26458)"
         d="m42 0-7 7 14 15 9-9 2e-6 -9.4551-3.5449-3.5449z"
         fill="url(#linearGradient6725-3)"
         opacity="1"
         id="path53" />
      <path
         transform="scale(.26458)"
         d="m58 13-9 9h9z"
         fill="url(#radialGradient6727-5)"
         opacity="1"
         id="path55" />
      <rect
         x="3.1749"
         width="6.0853"
         height="1.0583"
         fill="url(#linearGradient6729-6)"
         opacity="1"
         id="rect57" />
      <rect
         x="1.5875"
         width="1.5875"
         height="1.0583"
         fill="url(#radialGradient6731-2)"
         opacity="1"
         id="rect59" />
      <rect
         x="13.758"
         y="5.8207"
         width="1.5875"
         height="9.5248"
         fill="url(#linearGradient6733-9)"
         opacity="1"
         id="rect61" />
      <rect
         x="1.5875"
         y="1.0583"
         width="1.5875"
         height="14.287"
         fill="url(#linearGradient6735-1)"
         opacity="1"
         id="rect63" />
      <rect
         x="13.758"
         y="15.346"
         width="1.5875"
         height="1.5875"
         fill="url(#radialGradient6737-2)"
         opacity="1"
         id="rect65" />
      <rect
         x="1.5875"
         y="15.346"
         width="1.5875"
         height="1.5875"
         fill="url(#radialGradient6739-7)"
         opacity="1"
         id="rect67" />
    </g>
    <g
       opacity=".2"
       id="g91">
      <rect
         x="3.1749"
         y="15.346"
         width="10.583"
         height="1.5875"
         fill="url(#linearGradient6741-0)"
         opacity="1"
         id="rect71" />
      <path
         transform="scale(.26458)"
         d="m35 0 1e-6 7 7-7z"
         fill="url(#radialGradient6743-9)"
         opacity="1"
         id="path73" />
      <path
         transform="scale(.26458)"
         d="m42 0-7 7 14 15 9-9 2e-6 -9.4551-3.5449-3.5449z"
         fill="url(#linearGradient6745-3)"
         opacity="1"
         id="path75" />
      <path
         transform="scale(.26458)"
         d="m58 13-9 9h9z"
         fill="url(#radialGradient6747-6)"
         opacity="1"
         id="path77" />
      <rect
         x="3.1749"
         width="6.0853"
         height="1.0583"
         fill="url(#linearGradient6749-0)"
         opacity="1"
         id="rect79" />
      <rect
         x="1.5875"
         width="1.5875"
         height="1.0583"
         ry="0"
         fill="url(#radialGradient6751-6)"
         opacity="1"
         id="rect81" />
      <rect
         x="13.758"
         y="5.8207"
         width="1.5875"
         height="9.5248"
         fill="url(#linearGradient6753-2)"
         opacity="1"
         id="rect83" />
      <rect
         x="1.5875"
         y="1.0583"
         width="1.5875"
         height="14.287"
         fill="url(#linearGradient6755-6)"
         opacity="1"
         id="rect85" />
      <rect
         x="13.758"
         y="15.346"
         width="1.5875"
         height="1.5875"
         fill="url(#radialGradient6757-1)"
         opacity="1"
         id="rect87" />
      <rect
         x="1.5875"
         y="15.346"
         width="1.5875"
         height="1.5875"
         fill="url(#radialGradient6759-8)"
         opacity="1"
         id="rect89" />
    </g>
    <path
       d="m2.9104 0.26458c-0.29315 0-0.52916 0.23601-0.52916 0.52916v14.816c0 0.29316 0.23601 0.52916 0.52916 0.52916h11.112c0.29316 0 0.52916-0.23601 0.52916-0.52916v-10.319c0-0.26458-0.16113-0.69029-0.52916-1.0583l-3.4395-3.4395c-0.35403-0.44799-0.79374-0.52916-1.0583-0.52916z"
       fill="url(#linearGradient6761-7)"
       stroke-width=".26458"
       id="path93"
       style="fill:#23252E" />
    <rect
       x="8.7209"
       y="-.54211"
       width="6.6358"
       height="6.6348"
       fill="none"
       id="rect97" />
    <path
       d="m 3.6653411,1.219379 c -0.2531703,0 -0.4569933,0.2091037 -0.4569933,0.4688332 V 14.815114 c 0,0.259739 0.203823,0.468835 0.4569933,0.468835 H 13.26189 c 0.25318,0 0.456993,-0.209104 0.456993,-0.468835 V 5.6725322 c 0,-0.2344167 -0.139155,-0.6115936 -0.456993,-0.9376488 l -2.970423,-3.04738 C 9.9857202,1.2905865 9.6059778,1.2186703 9.3774984,1.2186703 Z"
       fill="url(#linearGradient6761-7)"
       stroke-width="0.231438"
       id="path93-3"
       style="fill:#555e70" />
    <path
       style="fill:#f4f4f7;stroke-width:0.264578"
       d="m 8.4904841,5.2189871 c -0.1244425,2.476e-4 -0.2487935,0.00677 -0.3725799,0.019531 -0.1177053,0.011843 -0.2337464,0.029429 -0.3479821,0.052089 -0.00507,7.143e-4 -0.010131,0.00145 -0.015195,0.0022 -0.1073796,0.021762 -0.212323,0.050157 -0.3161506,0.081027 -0.014734,0.00377 -0.029444,0.00762 -0.044131,0.011575 -0.1171027,0.0364 -0.2317908,0.07774 -0.343641,0.1251577 C 6.9403008,5.5573705 6.8321369,5.609521 6.7266961,5.6668294 6.517537,5.7806599 6.319842,5.914395 6.1363559,6.0661772 6.0447901,6.1417325 5.9569094,6.2216463 5.8730182,6.3056414 c -0.080001,0.080141 -0.1562856,0.1639089 -0.2286123,0.251039 -0.00427,0.00513 -0.00878,0.010041 -0.013023,0.015195 -0.058495,0.07239 -0.1142406,0.1469587 -0.1671184,0.2235477 -0.018782,0.026625 -0.038336,0.052449 -0.05643,0.07958 -0.040201,0.061544 -0.078561,0.1242716 -0.1150294,0.1880988 -0.02568,0.04395 -0.052064,0.087321 -0.075963,0.1323923 -0.029731,0.057369 -0.057955,0.1155069 -0.084644,0.1743528 -0.024788,0.053322 -0.049336,0.106679 -0.071622,0.1613308 -0.022111,0.055916 -0.042855,0.1123625 -0.062217,0.1692886 -0.021066,0.059896 -0.042028,0.1196171 -0.060047,0.1808641 -0.015205,0.053695 -0.029196,0.1077267 -0.041961,0.1620539 -0.015819,0.064492 -0.031752,0.128856 -0.044131,0.19461 -0.011001,0.062207 -0.02041,0.1246863 -0.028214,0.187375 -0.00788,0.058147 -0.015846,0.1161176 -0.020981,0.1750762 -0.010236,0.1072558 -0.015787,0.2149071 -0.016639,0.3226468 2.476e-4,0.1244426 0.00677,0.2487933 0.019531,0.3725797 0.063686,0.6330133 0.2879694,1.2192029 0.6308538,1.7182079 0.00315,0.0046 0.00624,0.0092 0.00941,0.01375 0.02654,0.03813 0.053795,0.07575 0.08175,0.112859 1.966e-4,-0.0012 5.292e-4,-0.0024 7.409e-4,-0.0036 0.6764038,0.902301 1.750786,1.490333 2.9618134,1.490333 0.6956167,0 1.3450841,-0.196389 1.9019663,-0.531741 l 7.41e-4,7.41e-4 c 0.0075,-0.005 0.01497,-0.0101 0.02243,-0.0152 0.08835,-0.05409 0.174259,-0.1111 0.25755,-0.172183 0.01919,-0.01404 0.03824,-0.02827 0.05715,-0.04268 0.07313,-0.05582 0.143963,-0.114092 0.212696,-0.175076 0.02787,-0.0249 0.05537,-0.05023 0.08247,-0.07596 0.05726,-0.05396 0.112648,-0.109657 0.166395,-0.167118 0.032,-0.03389 0.06335,-0.06838 0.09405,-0.103455 0.05049,-0.0582 0.09857,-0.118138 0.145415,-0.179417 0.02565,-0.03309 0.05073,-0.06662 0.07524,-0.10056 0.04922,-0.06909 0.09514,-0.140221 0.139627,-0.212696 0.01851,-0.02941 0.03659,-0.05907 0.05426,-0.08898 0.04406,-0.07652 0.08437,-0.15531 0.122987,-0.235123 0.01513,-0.03042 0.02984,-0.06105 0.04413,-0.09188 0.03462,-0.0769 0.06536,-0.155571 0.09477,-0.235123 0.01436,-0.03763 0.02811,-0.0755 0.04124,-0.113583 0.02552,-0.07672 0.04747,-0.1548394 0.068,-0.2336763 0.01078,-0.039624 0.02091,-0.079425 0.03037,-0.1193859 0.01676,-0.074527 0.02979,-0.1503107 0.04196,-0.2264417 0.0085,-0.050001 0.01598,-0.1001709 0.02243,-0.1504789 0.0077,-0.065237 0.01169,-0.1312896 0.01592,-0.1975034 0.0066,-0.078705 0.01072,-0.1576024 0.0123,-0.2365701 0,-0.1248891 -0.0067,-0.2479251 -0.01881,-0.3696862 l -7.4e-4,-0.00289 c -0.01184,-0.1177053 -0.02943,-0.2337464 -0.05209,-0.3479823 -10e-4,-0.00498 -0.0011,-0.010215 -0.0022,-0.015195 -0.02176,-0.1073794 -0.05016,-0.2123227 -0.08103,-0.3161504 -0.0042,-0.014017 -0.0065,-0.028736 -0.01085,-0.042684 l -0.0015,-0.00506 C 11.991261,7.7075514 11.94992,7.5941523 11.902974,7.4834157 11.856167,7.372912 11.804017,7.2647484 11.746708,7.1593076 11.632878,6.9501485 11.499143,6.7524535 11.34736,6.5689674 11.271805,6.4774014 11.191891,6.3895207 11.107896,6.3056295 11.027755,6.2256282 10.943987,6.1493439 10.856857,6.0770172 c -0.0041,-0.00363 -0.0082,-0.00724 -0.0123,-0.010853 -9.26e-4,-7.672e-4 -0.002,-0.0014 -0.0029,-0.0022 -0.07239,-0.058495 -0.146957,-0.1142404 -0.223546,-0.1671182 -0.02663,-0.018782 -0.05245,-0.038336 -0.07958,-0.05643 -0.06154,-0.0402 -0.124258,-0.078559 -0.188078,-0.1150264 -0.04395,-0.02568 -0.08732,-0.052065 -0.132392,-0.075963 -0.05737,-0.029731 -0.115507,-0.057955 -0.174353,-0.084644 -0.05332,-0.024788 -0.1066787,-0.049335 -0.1613307,-0.071622 -0.05591,-0.022106 -0.112346,-0.042846 -0.169264,-0.062204 -0.0599,-0.021066 -0.119617,-0.042027 -0.180864,-0.060047 -0.0537,-0.015205 -0.107727,-0.029196 -0.1620537,-0.04196 C 9.3057146,5.3131333 9.2413509,5.2972009 9.1755968,5.2848213 9.1133892,5.2738201 9.0509103,5.2644117 8.9882217,5.2566072 8.9300748,5.248728 8.8721044,5.2407616 8.8131455,5.2356261 8.7058849,5.2253896 8.5982288,5.2198387 8.4904841,5.2189871 Z M 7.9276354,5.7536208 8.4279989,6.9285134 9.2842176,6.2014402 V 8.2329048 L 11.268555,9.8491055 10.658682,10.254664 8.9636244,10.2373 9.9127983,11.524629 c -0.421883,0.230444 -0.9061323,0.361729 -1.4223142,0.361729 -1.2347608,0 -2.288344,-0.748986 -2.7346637,-1.818768 C 5.9894306,9.1650257 6.33835,8.2936221 6.8381103,7.807513 7.0513107,7.0229165 7.4673494,6.3734941 7.9276354,5.7536214 Z M 8.516984,8.5526723 8.5172486,8.868099 9.2312995,8.923082 C 9.139429,8.7010076 8.9396732,8.5987139 8.5169803,8.5526723 Z"
       id="path14" />
  </g>
</svg>
