<?xml version="1.0" encoding="UTF-8" standalone="no"?>
<svg
   xmlns:dc="http://purl.org/dc/elements/1.1/"
   xmlns:cc="http://creativecommons.org/ns#"
   xmlns:rdf="http://www.w3.org/1999/02/22-rdf-syntax-ns#"
   xmlns:svg="http://www.w3.org/2000/svg"
   xmlns="http://www.w3.org/2000/svg"
   xmlns:xlink="http://www.w3.org/1999/xlink"
   xmlns:sodipodi="http://sodipodi.sourceforge.net/DTD/sodipodi-0.dtd"
   xmlns:inkscape="http://www.inkscape.org/namespaces/inkscape"
   width="64"
   height="64"
   version="1.1"
   id="svg125"
   sodipodi:docname="DV_ServerAccess.svg"
   inkscape:version="1.0.1 (3bc2e813f5, 2020-09-07)">
  <metadata
     id="metadata129">
    <rdf:RDF>
      <cc:Work
         rdf:about="">
        <dc:format>image/svg+xml</dc:format>
        <dc:type
           rdf:resource="http://purl.org/dc/dcmitype/StillImage" />
        <dc:title />
      </cc:Work>
    </rdf:RDF>
  </metadata>
  <sodipodi:namedview
     pagecolor="#f4f4f7fff"
     bordercolor="#555e70666"
     borderopacity="1"
     objecttolerance="10"
     gridtolerance="10"
     guidetolerance="10"
     inkscape:pageopacity="0"
     inkscape:pageshadow="2"
     inkscape:window-width="1737"
     inkscape:window-height="965"
     id="namedview127"
     showgrid="false"
     inkscape:zoom="17.788155"
     inkscape:cx="32"
     inkscape:cy="37.814626"
     inkscape:window-x="183"
     inkscape:window-y="7"
     inkscape:window-maximized="0"
     inkscape:current-layer="g121"
     inkscape:document-rotation="0" />
  <defs
     id="defs47">
    <linearGradient
       id="linearGradient6721-3"
       x1="7.9373"
       x2="7.9373"
       y1="15.346"
       y2="16.933"
       gradientUnits="userSpaceOnUse"
       xlink:href="#linearGradient6261" />
    <linearGradient
       id="linearGradient6261">
      <stop
         offset="0"
         id="stop3" />
      <stop
         stop-opacity="0"
         offset="1"
         id="stop5" />
    </linearGradient>
    <radialGradient
       id="radialGradient6723-5"
       cx="35"
       cy="4"
       r="3.7275"
       gradientTransform="matrix(1.696 0 0 1.0731 -24.361 -.29238)"
       gradientUnits="userSpaceOnUse"
       xlink:href="#linearGradient6261" />
    <linearGradient
       id="linearGradient6725-3"
       x1="43"
       x2="46.748"
       y1="12"
       y2="8.2517"
       gradientUnits="userSpaceOnUse"
       xlink:href="#linearGradient6261" />
    <radialGradient
       id="radialGradient6727-5"
       cx="52"
       cy="22"
       r="5.2061"
       gradientTransform="matrix(.96042 0 0 1.3331 2.0581 -7.3283)"
       gradientUnits="userSpaceOnUse"
       xlink:href="#linearGradient6261" />
    <linearGradient
       id="linearGradient6729-6"
       x1="5.8207"
       x2="5.8207"
       y1="1.0583"
       gradientUnits="userSpaceOnUse"
       xlink:href="#linearGradient6261" />
    <radialGradient
       id="radialGradient6731-2"
       cx="3.1749"
       cy="1.3229"
       r=".79373"
       gradientTransform="matrix(-2.1078e-8 -1.3333 1.6667 -2.6348e-8 .97012 5.2916)"
       gradientUnits="userSpaceOnUse"
       xlink:href="#linearGradient6261" />
    <linearGradient
       id="linearGradient6733-9"
       x1="13.758"
       x2="15.081"
       y1="10.583"
       y2="10.583"
       gradientUnits="userSpaceOnUse"
       xlink:href="#linearGradient6261" />
    <linearGradient
       id="linearGradient6735-1"
       x1="3.1749"
       x2="1.852"
       y1="8.4665"
       y2="8.4665"
       gradientUnits="userSpaceOnUse"
       xlink:href="#linearGradient6261" />
    <radialGradient
       id="radialGradient6737-2"
       cx="13.758"
       cy="15.346"
       r=".79373"
       gradientTransform="matrix(5.1718e-7 2 -1.6667 4.3098e-7 39.334 -12.171)"
       gradientUnits="userSpaceOnUse"
       xlink:href="#linearGradient6261" />
    <radialGradient
       id="radialGradient6739-7"
       cx="3.1749"
       cy="15.346"
       r=".79373"
       gradientTransform="matrix(-1.6667 -1.37e-6 1.644e-6 -2 8.4665 46.037)"
       gradientUnits="userSpaceOnUse"
       xlink:href="#linearGradient6261" />
    <linearGradient
       id="linearGradient6741-0"
       x1="7.9373"
       x2="7.9373"
       y1="15.346"
       y2="16.668"
       gradientUnits="userSpaceOnUse"
       xlink:href="#linearGradient6261" />
    <radialGradient
       id="radialGradient6743-9"
       cx="35"
       cy="4"
       r="3.7275"
       gradientTransform="matrix(1.6115 -1.9122e-7 9.5496e-8 .80482 -21.403 .78072)"
       gradientUnits="userSpaceOnUse"
       xlink:href="#linearGradient6261" />
    <linearGradient
       id="linearGradient6745-3"
       x1="43"
       x2="46.004"
       y1="12"
       y2="8.9965"
       gradientUnits="userSpaceOnUse"
       xlink:href="#linearGradient6261" />
    <radialGradient
       id="radialGradient6747-6"
       cx="52"
       cy="22"
       r="5.2061"
       gradientTransform="matrix(.76834 -9.6042e-8 1.534e-7 1.2272 12.047 -4.9986)"
       gradientUnits="userSpaceOnUse"
       xlink:href="#linearGradient6261" />
    <linearGradient
       id="linearGradient6749-0"
       x1="5.8207"
       x2="5.8207"
       y1="1.0583"
       y2=".26458"
       gradientUnits="userSpaceOnUse"
       xlink:href="#linearGradient6261" />
    <radialGradient
       id="radialGradient6751-6"
       cx="3.1749"
       cy="1.3229"
       r=".79373"
       gradientTransform="matrix(-7.442e-8 -1 1.3333 -9.9226e-8 1.4111 4.2333)"
       gradientUnits="userSpaceOnUse"
       xlink:href="#linearGradient6261" />
    <linearGradient
       id="linearGradient6753-2"
       x1="13.758"
       x2="14.816"
       y1="10.583"
       y2="10.583"
       gradientUnits="userSpaceOnUse"
       xlink:href="#linearGradient6261" />
    <linearGradient
       id="linearGradient6755-6"
       x1="3.1749"
       x2="2.1166"
       y1="8.4665"
       y2="8.4665"
       gradientUnits="userSpaceOnUse"
       xlink:href="#linearGradient6261" />
    <radialGradient
       id="radialGradient6757-1"
       cx="13.758"
       cy="15.346"
       r=".79373"
       gradientTransform="matrix(0 1.6667 -1.3333 0 34.219 -7.5846)"
       gradientUnits="userSpaceOnUse"
       xlink:href="#linearGradient6261" />
    <radialGradient
       id="radialGradient6759-8"
       cx="3.1749"
       cy="15.346"
       r=".79373"
       gradientTransform="matrix(-1.3333 0 0 -1.6667 7.4082 40.921)"
       gradientUnits="userSpaceOnUse"
       xlink:href="#linearGradient6261" />
    <linearGradient
       id="linearGradient6761-7"
       x1="21.039"
       x2="21.039"
       y1="2"
       y2="62"
       gradientTransform="matrix(.26458 0 0 .26458 0 -.26458)"
       gradientUnits="userSpaceOnUse">
      <stop
         stop-color="#ff5b59"
         offset="0"
         id="stop27" />
      <stop
         stop-color="#ff983d"
         offset="1"
         id="stop29" />
    </linearGradient>
    <radialGradient
       id="radialGradient6763-2"
       cx="40"
       cy="12"
       r="8"
       gradientTransform="matrix(1.5 0 0 -2 -14 40)"
       gradientUnits="userSpaceOnUse"
       xlink:href="#linearGradient6261" />
    <radialGradient
       id="radialGradient6765-3"
       cx="10.583"
       cy="4.2333"
       r="2.1166"
       gradientTransform="matrix(-2 3.1236e-7 -3.1236e-7 -2 31.749 12.7)"
       gradientUnits="userSpaceOnUse"
       xlink:href="#linearGradient6261" />
    <radialGradient
       id="radialGradient6767-7"
       cx="40"
       cy="12"
       r="8"
       gradientTransform="matrix(0 -1.5 2 0 16 70)"
       gradientUnits="userSpaceOnUse"
       xlink:href="#linearGradient6261" />
    <linearGradient
       id="linearGradient7282"
       x1="10.583"
       x2="6.3499"
       y1="3.1749"
       y2="3.1749"
       gradientTransform="matrix(1 0 0 .66667 0 1.4111)"
       gradientUnits="userSpaceOnUse"
       xlink:href="#linearGradient6261" />
    <linearGradient
       id="linearGradient7284"
       x1="10.583"
       x2="8.7311"
       y1="3.0426"
       y2="3.0426"
       gradientTransform="matrix(1 0 0 .66667 0 1.4111)"
       gradientUnits="userSpaceOnUse"
       xlink:href="#linearGradient6261" />
    <radialGradient
       id="radialGradient6773-5"
       cx="10.583"
       cy="4.2333"
       r="2.1166"
       gradientTransform="matrix(-.875 -1.6564e-7 1.6631e-7 -.87849 19.843 7.9521)"
       gradientUnits="userSpaceOnUse"
       xlink:href="#linearGradient6261" />
    <radialGradient
       id="radialGradient6775-9"
       cx="40"
       cy="12"
       r="8"
       gradientTransform="matrix(0 -1.3078 .87983 0 29.442 62.311)"
       gradientUnits="userSpaceOnUse"
       xlink:href="#linearGradient6261" />
    <linearGradient
       id="linearGradient7286"
       x1="10.583"
       x2="6.3499"
       y1="3.1749"
       y2="3.1749"
       gradientTransform="matrix(1 0 0 .66667 -14.816 9.3484)"
       gradientUnits="userSpaceOnUse"
       xlink:href="#linearGradient6261" />
    <linearGradient
       id="linearGradient7288"
       x1="10.583"
       x2="8.7237"
       y1="3.0426"
       y2="3.0426"
       gradientTransform="matrix(1 0 0 .66667 -14.816 9.3484)"
       gradientUnits="userSpaceOnUse"
       xlink:href="#linearGradient6261" />
    <radialGradient
       id="radialGradient6781-2"
       cx="40"
       cy="12"
       r="8"
       gradientTransform="matrix(1.4336 0 0 -.87849 -11.344 26.542)"
       gradientUnits="userSpaceOnUse"
       xlink:href="#linearGradient6261" />
    <linearGradient
       id="linearGradient7290"
       x1="40"
       x2="46"
       y1="17"
       y2="11"
       gradientTransform="matrix(.26458 0 0 .26458 -1.6667e-7 -.26458)"
       gradientUnits="userSpaceOnUse">
      <stop
         stop-color="#fefefe"
         offset="0"
         id="stop42" />
      <stop
         stop-color="#e9e9e9"
         offset="1"
         id="stop44" />
    </linearGradient>
  </defs>
  <g
     transform="matrix(3.7796 0 0 3.7796 -.021092 1.0245)"
     id="g121">
    <g
       opacity=".1"
       id="g69">
      <rect
         x="3.1749"
         y="15.346"
         width="10.583"
         height="1.5875"
         fill="url(#linearGradient6721-3)"
         opacity="1"
         id="rect49" />
      <path
         transform="scale(.26458)"
         d="m35 0 1e-6 7 7-7z"
         fill="url(#radialGradient6723-5)"
         opacity="1"
         id="path51" />
      <path
         transform="scale(.26458)"
         d="m42 0-7 7 14 15 9-9 2e-6 -9.4551-3.5449-3.5449z"
         fill="url(#linearGradient6725-3)"
         opacity="1"
         id="path53" />
      <path
         transform="scale(.26458)"
         d="m58 13-9 9h9z"
         fill="url(#radialGradient6727-5)"
         opacity="1"
         id="path55" />
      <rect
         x="3.1749"
         width="6.0853"
         height="1.0583"
         fill="url(#linearGradient6729-6)"
         opacity="1"
         id="rect57" />
      <rect
         x="1.5875"
         width="1.5875"
         height="1.0583"
         fill="url(#radialGradient6731-2)"
         opacity="1"
         id="rect59" />
      <rect
         x="13.758"
         y="5.8207"
         width="1.5875"
         height="9.5248"
         fill="url(#linearGradient6733-9)"
         opacity="1"
         id="rect61" />
      <rect
         x="1.5875"
         y="1.0583"
         width="1.5875"
         height="14.287"
         fill="url(#linearGradient6735-1)"
         opacity="1"
         id="rect63" />
      <rect
         x="13.758"
         y="15.346"
         width="1.5875"
         height="1.5875"
         fill="url(#radialGradient6737-2)"
         opacity="1"
         id="rect65" />
      <rect
         x="1.5875"
         y="15.346"
         width="1.5875"
         height="1.5875"
         fill="url(#radialGradient6739-7)"
         opacity="1"
         id="rect67" />
    </g>
    <g
       opacity=".2"
       id="g91">
      <rect
         x="3.1749"
         y="15.346"
         width="10.583"
         height="1.5875"
         fill="url(#linearGradient6741-0)"
         opacity="1"
         id="rect71" />
      <path
         transform="scale(.26458)"
         d="m35 0 1e-6 7 7-7z"
         fill="url(#radialGradient6743-9)"
         opacity="1"
         id="path73" />
      <path
         transform="scale(.26458)"
         d="m42 0-7 7 14 15 9-9 2e-6 -9.4551-3.5449-3.5449z"
         fill="url(#linearGradient6745-3)"
         opacity="1"
         id="path75" />
      <path
         transform="scale(.26458)"
         d="m58 13-9 9h9z"
         fill="url(#radialGradient6747-6)"
         opacity="1"
         id="path77" />
      <rect
         x="3.1749"
         width="6.0853"
         height="1.0583"
         fill="url(#linearGradient6749-0)"
         opacity="1"
         id="rect79" />
      <rect
         x="1.5875"
         width="1.5875"
         height="1.0583"
         ry="0"
         fill="url(#radialGradient6751-6)"
         opacity="1"
         id="rect81" />
      <rect
         x="13.758"
         y="5.8207"
         width="1.5875"
         height="9.5248"
         fill="url(#linearGradient6753-2)"
         opacity="1"
         id="rect83" />
      <rect
         x="1.5875"
         y="1.0583"
         width="1.5875"
         height="14.287"
         fill="url(#linearGradient6755-6)"
         opacity="1"
         id="rect85" />
      <rect
         x="13.758"
         y="15.346"
         width="1.5875"
         height="1.5875"
         fill="url(#radialGradient6757-1)"
         opacity="1"
         id="rect87" />
      <rect
         x="1.5875"
         y="15.346"
         width="1.5875"
         height="1.5875"
         fill="url(#radialGradient6759-8)"
         opacity="1"
         id="rect89" />
    </g>
    <path
       d="m2.9104 0.26458c-0.29315 0-0.52916 0.23601-0.52916 0.52916v14.816c0 0.29316 0.23601 0.52916 0.52916 0.52916h11.112c0.29316 0 0.52916-0.23601 0.52916-0.52916v-10.319c0-0.26458-0.16113-0.69029-0.52916-1.0583l-3.4395-3.4395c-0.35403-0.44799-0.79374-0.52916-1.0583-0.52916z"
       fill="url(#linearGradient6761-7)"
       stroke-width=".26458"
       id="path93"
       style="fill:#23252E" />
    <rect
       x="8.7209"
       y="-.54211"
       width="6.6358"
       height="6.6348"
       fill="none"
       id="rect97" />
    <path
       d="m 3.6653411,1.219379 c -0.2531703,0 -0.4569933,0.2091037 -0.4569933,0.4688332 V 14.815114 c 0,0.259739 0.203823,0.468835 0.4569933,0.468835 H 13.26189 c 0.25318,0 0.456993,-0.209104 0.456993,-0.468835 V 5.6725322 c 0,-0.2344167 -0.139155,-0.6115936 -0.456993,-0.9376488 l -2.970423,-3.04738 C 9.9857202,1.2905865 9.6059778,1.2186703 9.3774984,1.2186703 Z"
       fill="url(#linearGradient6761-7)"
       stroke-width="0.231438"
       id="path93-3"
       style="fill:#555e70" />
    <path
       style="fill:#23252E;stroke-width:0.127945"
       d="M 5.3935618,6.3660482 V 7.1637374 H 6.1323429 V 6.3660482 Z m 5.1714642,0 v 0.7976892 h 0.738782 V 6.3660482 Z M 5.3935618,8.2273263 V 9.0250167 H 6.1323429 V 8.2273263 Z m 5.1714642,0 v 0.7976904 h 0.738782 V 8.2273263 Z M 5.3935618,10.088603 v 0.797691 h 0.7387811 v -0.797691 z m 5.1714642,0 v 0.797691 h 0.738782 v -0.797691 z m -5.1714642,1.861279 v 0.797689 h 0.7387811 v -0.797689 z m 5.1714642,0 v 0.797689 h 0.738782 v -0.797689 z"
       id="path8" />
    <rect
       style="fill:#23252E;stroke-width:0.127945"
       width="3.2013831"
       height="2.3930714"
       x="6.7479939"
       y="6.6319437"
       id="rect14" />
    <rect
       style="fill:#23252E;stroke-width:0.127945"
       width="3.2013831"
       height="2.3930714"
       x="6.7479939"
       y="10.088601"
       id="rect18" />
    <ellipse
       style="fill:#f4f4f7;stroke:#f0f0f0;stroke-width:0.222112"
       id="path858"
       cx="8.7028856"
       cy="8.1007137"
       rx="1.8829932"
       ry="1.6197555" />
    <path
       style="fill:#f4f4f7;stroke:#f0f0f0;stroke-width:0.223944"
       id="path860"
       sodipodi:type="arc"
       sodipodi:cx="6.9843063"
       sodipodi:cy="10.70737"
       sodipodi:rx="1.7092178"
       sodipodi:ry="1.4546458"
       sodipodi:start="0"
       sodipodi:end="6.2621278"
       sodipodi:open="true"
       sodipodi:arc-type="arc"
       d="M 8.6935241,10.70737 A 1.7092178,1.4546458 0 0 1 6.9933043,12.161995 1.7092178,1.4546458 0 0 1 5.2751833,10.722685 1.7092178,1.4546458 0 0 1 6.9573136,9.2529055 1.7092178,1.4546458 0 0 1 8.6931452,10.676741" />
    <ellipse
       style="fill:#f4f4f7;stroke:#f0f0f0;stroke-width:0.214978"
       id="path854-3"
       cx="10.288302"
       cy="10.810494"
       rx="2.0872667"
       ry="1.8777698" />
    <path
       class="st0"
       d="M 8.5457576,14.077491 H 8.2716117 c -0.012832,-0.0045 -0.025482,-0.0056 -0.038314,-0.0056 -0.1463824,-0.0068 -0.2916767,-0.01787 -0.435707,-0.03679 C 7.528143,14.001669 7.2632138,13.944754 7.0053322,13.865629 6.5627592,13.729587 6.1503657,13.534374 5.7681531,13.27999 5.4137676,13.043478 5.1002264,12.764628 4.8271653,12.443437 4.50531,12.066374 4.2544781,11.650268 4.0766529,11.193036 3.917442,10.786994 3.8222039,10.366547 3.7931103,9.9325668 3.792119,9.9091408 3.7883856,9.8857148 3.7802782,9.8622888 V 9.4038449 c 0.00812,-0.020122 0.011574,-0.041295 0.012832,-0.062469 0.0058,-0.1037646 0.017346,-0.2075312 0.031444,-0.3100846 C 3.8943127,8.5360586 4.0475586,8.0663326 4.2833918,7.6212482 4.446037,7.31446 4.6435583,7.0290165 4.875779,6.7656088 5.1058297,6.5046296 5.3637113,6.2714154 5.6494232,6.0673544 6.115308,5.7348847 6.6276372,5.4950788 7.1874965,5.3479294 7.4592918,5.2766126 7.7370527,5.2297602 8.0180647,5.2073776 c 0.04988,-0.00449 0.1022851,-9.773e-4 0.1521634,-0.012328 h 0.4693174 c 0.035958,0.010043 0.07319,0.00449 0.1091512,0.0078 0.1859569,0.015628 0.370649,0.038002 0.5540753,0.072532 0.5773883,0.1093197 1.112847,0.3168517 1.607828,0.6234665 0.384562,0.2375535 0.723766,0.5242122 1.019962,0.8577217 0.238181,0.267745 0.440223,0.5589153 0.605217,0.8733397 0.195171,0.3715121 0.334503,0.7607232 0.413658,1.1700626 0.04175,0.2163814 0.07319,0.4350207 0.07427,0.6559133 0,0.014575 0.0034,0.030192 0.0047,0.044591 v 0.2632353 c -0.0047,0.016659 -0.0047,0.034529 -0.0058,0.052409 0,0.042338 0,0.084853 -0.0034,0.1271902 -0.02097,0.2700011 -0.06505,0.5365321 -0.134816,0.7997671 -0.133548,0.494189 -0.348601,0.952636 -0.647142,1.37534 -0.221919,0.314594 -0.480886,0.597956 -0.778344,0.848869 -0.296193,0.249875 -0.620396,0.460704 -0.972431,0.631277 -0.405527,0.196252 -0.8318337,0.332468 -1.2791062,0.407084 -0.1718604,0.02898 -0.3449857,0.04789 -0.5191952,0.05796 -0.045901,0.005 -0.094696,0.004 -0.1424054,0.01388 z M 6.676613,11.958087 c 0.076624,0.0023 0.1626437,-0.0068 0.2486649,-0.02447 0.2544475,-0.05362 0.4705847,-0.16502 0.6366625,-0.362487 0.1010197,-0.120424 0.1859553,-0.250914 0.259145,-0.38817 0.086021,-0.161724 0.1579461,-0.330213 0.2206541,-0.500786 0.076624,-0.206319 0.1416816,-0.417148 0.191741,-0.630232 C 8.2613102,9.9325557 8.2300464,9.8577683 8.092883,9.8166439 7.9186727,9.7642354 7.7431974,9.7173899 7.5642881,9.679387 7.2680967,9.6169175 6.9695532,9.5768364 6.6650471,9.5867253 c -0.08602,0.00335 -0.1718603,0.012332 -0.2567974,0.026721 -0.246315,0.041305 -0.4554031,0.1506172 -0.62618,0.3234459 -0.2916752,0.2944678 -0.4076936,0.6458508 -0.3357696,1.0463398 0.1033711,0.572276 0.6308782,0.979362 1.2303129,0.97485 z M 7.1679781,7.8554946 c -0.00343,0.083633 0.01284,0.1750838 0.03958,0.2665319 0.051147,0.1740424 0.1358976,0.3335106 0.2358333,0.4841279 0.2277038,0.3425329 0.5146807,0.6357856 0.8260535,0.9080413 0.025482,0.022383 0.055843,0.041305 0.08837,0.055703 0.032527,0.015627 0.065054,0.015627 0.098673,0.00232 0.032527,-0.013365 0.061623,-0.032268 0.086019,-0.056913 C 8.6505732,9.4127123 8.7573779,9.3099881 8.8596612,9.203965 9.0036929,9.0533477 9.1408562,8.8983906 9.2651872,8.7321589 9.3779544,8.5815407 9.4789751,8.4231139 9.553249,8.2513267 9.6275213,8.0805819 9.6636663,7.9044556 9.6392703,7.7193065 9.5986075,7.413725 9.4627108,7.1548294 9.2198277,6.9518089 8.9326702,6.7121744 8.5981662,6.6162151 8.2217354,6.6696609 7.6094691,6.7567674 7.1656327,7.2743865 7.1679803,7.8555132 Z m 3.0181349,4.0959974 c 0.03017,-10e-4 0.08476,0 0.139331,-0.0079 0.367035,-0.0524 0.657444,-0.223152 0.862015,-0.521958 0.160296,-0.235294 0.225353,-0.496447 0.195173,-0.776338 -0.02783,-0.262144 -0.138247,-0.49189 -0.325289,-0.6848465 C 10.894699,9.7932224 10.700611,9.6771366 10.466042,9.6280303 10.337011,9.6013067 10.205811,9.5900283 10.074611,9.5879426 9.9190143,9.5856226 9.7645033,9.5990456 9.6110765,9.6191776 9.3044011,9.6604826 9.0045941,9.7307542 8.7096662,9.8199425 c -0.030179,0.00884 -0.058009,0.022383 -0.082406,0.041295 -0.031444,0.024468 -0.048791,0.05466 -0.048791,0.093703 0,0.033488 0.00343,0.066984 0.011559,0.1004715 0.01862,0.06697 0.034875,0.133784 0.053487,0.199722 0.086022,0.301238 0.1904739,0.595705 0.3334221,0.876808 0.082405,0.161725 0.1778252,0.314599 0.2998062,0.451855 0.092888,0.10377 0.2009555,0.188445 0.3299869,0.247616 0.1763799,0.08103 0.3598059,0.124589 0.5793756,0.120076 z"
       id="path9"
       style="fill:#555e70;stroke-width:0.00177081" />
  </g>
</svg>
