<?xml version="1.0" encoding="UTF-8" standalone="no"?>
<svg
   xmlns:dc="http://purl.org/dc/elements/1.1/"
   xmlns:cc="http://creativecommons.org/ns#"
   xmlns:rdf="http://www.w3.org/1999/02/22-rdf-syntax-ns#"
   xmlns:svg="http://www.w3.org/2000/svg"
   xmlns="http://www.w3.org/2000/svg"
   xmlns:xlink="http://www.w3.org/1999/xlink"
   xmlns:sodipodi="http://sodipodi.sourceforge.net/DTD/sodipodi-0.dtd"
   xmlns:inkscape="http://www.inkscape.org/namespaces/inkscape"
   width="64"
   height="64"
   version="1.1"
   id="svg125"
   sodipodi:docname="gnome-mime-application-x-theme.svg"
   inkscape:version="1.0.1 (3bc2e813f5, 2020-09-07)">
  <metadata
     id="metadata129">
    <rdf:RDF>
      <cc:Work
         rdf:about="">
        <dc:format>image/svg+xml</dc:format>
        <dc:type
           rdf:resource="http://purl.org/dc/dcmitype/StillImage" />
        <dc:title></dc:title>
      </cc:Work>
    </rdf:RDF>
  </metadata>
  <sodipodi:namedview
     pagecolor="#f4f4f7fff"
     bordercolor="#555e70666"
     borderopacity="1"
     objecttolerance="10"
     gridtolerance="10"
     guidetolerance="10"
     inkscape:pageopacity="0"
     inkscape:pageshadow="2"
     inkscape:window-width="1737"
     inkscape:window-height="965"
     id="namedview127"
     showgrid="false"
     inkscape:zoom="12.578125"
     inkscape:cx="29.245583"
     inkscape:cy="31.200891"
     inkscape:window-x="228"
     inkscape:window-y="313"
     inkscape:window-maximized="0"
     inkscape:current-layer="g121"
     inkscape:document-rotation="0" />
  <defs
     id="defs47">
    <linearGradient
       id="linearGradient6721-3"
       x1="7.9373"
       x2="7.9373"
       y1="15.346"
       y2="16.933"
       gradientUnits="userSpaceOnUse"
       xlink:href="#linearGradient6261" />
    <linearGradient
       id="linearGradient6261">
      <stop
         offset="0"
         id="stop3" />
      <stop
         stop-opacity="0"
         offset="1"
         id="stop5" />
    </linearGradient>
    <radialGradient
       id="radialGradient6723-5"
       cx="35"
       cy="4"
       r="3.7275"
       gradientTransform="matrix(1.696 0 0 1.0731 -24.361 -.29238)"
       gradientUnits="userSpaceOnUse"
       xlink:href="#linearGradient6261" />
    <linearGradient
       id="linearGradient6725-3"
       x1="43"
       x2="46.748"
       y1="12"
       y2="8.2517"
       gradientUnits="userSpaceOnUse"
       xlink:href="#linearGradient6261" />
    <radialGradient
       id="radialGradient6727-5"
       cx="52"
       cy="22"
       r="5.2061"
       gradientTransform="matrix(.96042 0 0 1.3331 2.0581 -7.3283)"
       gradientUnits="userSpaceOnUse"
       xlink:href="#linearGradient6261" />
    <linearGradient
       id="linearGradient6729-6"
       x1="5.8207"
       x2="5.8207"
       y1="1.0583"
       gradientUnits="userSpaceOnUse"
       xlink:href="#linearGradient6261" />
    <radialGradient
       id="radialGradient6731-2"
       cx="3.1749"
       cy="1.3229"
       r=".79373"
       gradientTransform="matrix(-2.1078e-8 -1.3333 1.6667 -2.6348e-8 .97012 5.2916)"
       gradientUnits="userSpaceOnUse"
       xlink:href="#linearGradient6261" />
    <linearGradient
       id="linearGradient6733-9"
       x1="13.758"
       x2="15.081"
       y1="10.583"
       y2="10.583"
       gradientUnits="userSpaceOnUse"
       xlink:href="#linearGradient6261" />
    <linearGradient
       id="linearGradient6735-1"
       x1="3.1749"
       x2="1.852"
       y1="8.4665"
       y2="8.4665"
       gradientUnits="userSpaceOnUse"
       xlink:href="#linearGradient6261" />
    <radialGradient
       id="radialGradient6737-2"
       cx="13.758"
       cy="15.346"
       r=".79373"
       gradientTransform="matrix(5.1718e-7 2 -1.6667 4.3098e-7 39.334 -12.171)"
       gradientUnits="userSpaceOnUse"
       xlink:href="#linearGradient6261" />
    <radialGradient
       id="radialGradient6739-7"
       cx="3.1749"
       cy="15.346"
       r=".79373"
       gradientTransform="matrix(-1.6667 -1.37e-6 1.644e-6 -2 8.4665 46.037)"
       gradientUnits="userSpaceOnUse"
       xlink:href="#linearGradient6261" />
    <linearGradient
       id="linearGradient6741-0"
       x1="7.9373"
       x2="7.9373"
       y1="15.346"
       y2="16.668"
       gradientUnits="userSpaceOnUse"
       xlink:href="#linearGradient6261" />
    <radialGradient
       id="radialGradient6743-9"
       cx="35"
       cy="4"
       r="3.7275"
       gradientTransform="matrix(1.6115 -1.9122e-7 9.5496e-8 .80482 -21.403 .78072)"
       gradientUnits="userSpaceOnUse"
       xlink:href="#linearGradient6261" />
    <linearGradient
       id="linearGradient6745-3"
       x1="43"
       x2="46.004"
       y1="12"
       y2="8.9965"
       gradientUnits="userSpaceOnUse"
       xlink:href="#linearGradient6261" />
    <radialGradient
       id="radialGradient6747-6"
       cx="52"
       cy="22"
       r="5.2061"
       gradientTransform="matrix(.76834 -9.6042e-8 1.534e-7 1.2272 12.047 -4.9986)"
       gradientUnits="userSpaceOnUse"
       xlink:href="#linearGradient6261" />
    <linearGradient
       id="linearGradient6749-0"
       x1="5.8207"
       x2="5.8207"
       y1="1.0583"
       y2=".26458"
       gradientUnits="userSpaceOnUse"
       xlink:href="#linearGradient6261" />
    <radialGradient
       id="radialGradient6751-6"
       cx="3.1749"
       cy="1.3229"
       r=".79373"
       gradientTransform="matrix(-7.442e-8 -1 1.3333 -9.9226e-8 1.4111 4.2333)"
       gradientUnits="userSpaceOnUse"
       xlink:href="#linearGradient6261" />
    <linearGradient
       id="linearGradient6753-2"
       x1="13.758"
       x2="14.816"
       y1="10.583"
       y2="10.583"
       gradientUnits="userSpaceOnUse"
       xlink:href="#linearGradient6261" />
    <linearGradient
       id="linearGradient6755-6"
       x1="3.1749"
       x2="2.1166"
       y1="8.4665"
       y2="8.4665"
       gradientUnits="userSpaceOnUse"
       xlink:href="#linearGradient6261" />
    <radialGradient
       id="radialGradient6757-1"
       cx="13.758"
       cy="15.346"
       r=".79373"
       gradientTransform="matrix(0 1.6667 -1.3333 0 34.219 -7.5846)"
       gradientUnits="userSpaceOnUse"
       xlink:href="#linearGradient6261" />
    <radialGradient
       id="radialGradient6759-8"
       cx="3.1749"
       cy="15.346"
       r=".79373"
       gradientTransform="matrix(-1.3333 0 0 -1.6667 7.4082 40.921)"
       gradientUnits="userSpaceOnUse"
       xlink:href="#linearGradient6261" />
    <linearGradient
       id="linearGradient6761-7"
       x1="21.039"
       x2="21.039"
       y1="2"
       y2="62"
       gradientTransform="matrix(.26458 0 0 .26458 0 -.26458)"
       gradientUnits="userSpaceOnUse">
      <stop
         stop-color="#ff5b59"
         offset="0"
         id="stop27" />
      <stop
         stop-color="#ff983d"
         offset="1"
         id="stop29" />
    </linearGradient>
    <radialGradient
       id="radialGradient6763-2"
       cx="40"
       cy="12"
       r="8"
       gradientTransform="matrix(1.5 0 0 -2 -14 40)"
       gradientUnits="userSpaceOnUse"
       xlink:href="#linearGradient6261" />
    <radialGradient
       id="radialGradient6765-3"
       cx="10.583"
       cy="4.2333"
       r="2.1166"
       gradientTransform="matrix(-2 3.1236e-7 -3.1236e-7 -2 31.749 12.7)"
       gradientUnits="userSpaceOnUse"
       xlink:href="#linearGradient6261" />
    <radialGradient
       id="radialGradient6767-7"
       cx="40"
       cy="12"
       r="8"
       gradientTransform="matrix(0 -1.5 2 0 16 70)"
       gradientUnits="userSpaceOnUse"
       xlink:href="#linearGradient6261" />
    <linearGradient
       id="linearGradient7282"
       x1="10.583"
       x2="6.3499"
       y1="3.1749"
       y2="3.1749"
       gradientTransform="matrix(1 0 0 .66667 0 1.4111)"
       gradientUnits="userSpaceOnUse"
       xlink:href="#linearGradient6261" />
    <linearGradient
       id="linearGradient7284"
       x1="10.583"
       x2="8.7311"
       y1="3.0426"
       y2="3.0426"
       gradientTransform="matrix(1 0 0 .66667 0 1.4111)"
       gradientUnits="userSpaceOnUse"
       xlink:href="#linearGradient6261" />
    <radialGradient
       id="radialGradient6773-5"
       cx="10.583"
       cy="4.2333"
       r="2.1166"
       gradientTransform="matrix(-.875 -1.6564e-7 1.6631e-7 -.87849 19.843 7.9521)"
       gradientUnits="userSpaceOnUse"
       xlink:href="#linearGradient6261" />
    <radialGradient
       id="radialGradient6775-9"
       cx="40"
       cy="12"
       r="8"
       gradientTransform="matrix(0 -1.3078 .87983 0 29.442 62.311)"
       gradientUnits="userSpaceOnUse"
       xlink:href="#linearGradient6261" />
    <linearGradient
       id="linearGradient7286"
       x1="10.583"
       x2="6.3499"
       y1="3.1749"
       y2="3.1749"
       gradientTransform="matrix(1 0 0 .66667 -14.816 9.3484)"
       gradientUnits="userSpaceOnUse"
       xlink:href="#linearGradient6261" />
    <linearGradient
       id="linearGradient7288"
       x1="10.583"
       x2="8.7237"
       y1="3.0426"
       y2="3.0426"
       gradientTransform="matrix(1 0 0 .66667 -14.816 9.3484)"
       gradientUnits="userSpaceOnUse"
       xlink:href="#linearGradient6261" />
    <radialGradient
       id="radialGradient6781-2"
       cx="40"
       cy="12"
       r="8"
       gradientTransform="matrix(1.4336 0 0 -.87849 -11.344 26.542)"
       gradientUnits="userSpaceOnUse"
       xlink:href="#linearGradient6261" />
    <linearGradient
       id="linearGradient7290"
       x1="40"
       x2="46"
       y1="17"
       y2="11"
       gradientTransform="matrix(.26458 0 0 .26458 -1.6667e-7 -.26458)"
       gradientUnits="userSpaceOnUse">
      <stop
         stop-color="#fefefe"
         offset="0"
         id="stop42" />
      <stop
         stop-color="#e9e9e9"
         offset="1"
         id="stop44" />
    </linearGradient>
  </defs>
  <g
     transform="matrix(3.7796 0 0 3.7796 -.021092 1.0245)"
     id="g121">
    <g
       opacity=".1"
       id="g69">
      <rect
         x="3.1749"
         y="15.346"
         width="10.583"
         height="1.5875"
         fill="url(#linearGradient6721-3)"
         opacity="1"
         id="rect49" />
      <path
         transform="scale(.26458)"
         d="m35 0 1e-6 7 7-7z"
         fill="url(#radialGradient6723-5)"
         opacity="1"
         id="path51" />
      <path
         transform="scale(.26458)"
         d="m42 0-7 7 14 15 9-9 2e-6 -9.4551-3.5449-3.5449z"
         fill="url(#linearGradient6725-3)"
         opacity="1"
         id="path53" />
      <path
         transform="scale(.26458)"
         d="m58 13-9 9h9z"
         fill="url(#radialGradient6727-5)"
         opacity="1"
         id="path55" />
      <rect
         x="3.1749"
         width="6.0853"
         height="1.0583"
         fill="url(#linearGradient6729-6)"
         opacity="1"
         id="rect57" />
      <rect
         x="1.5875"
         width="1.5875"
         height="1.0583"
         fill="url(#radialGradient6731-2)"
         opacity="1"
         id="rect59" />
      <rect
         x="13.758"
         y="5.8207"
         width="1.5875"
         height="9.5248"
         fill="url(#linearGradient6733-9)"
         opacity="1"
         id="rect61" />
      <rect
         x="1.5875"
         y="1.0583"
         width="1.5875"
         height="14.287"
         fill="url(#linearGradient6735-1)"
         opacity="1"
         id="rect63" />
      <rect
         x="13.758"
         y="15.346"
         width="1.5875"
         height="1.5875"
         fill="url(#radialGradient6737-2)"
         opacity="1"
         id="rect65" />
      <rect
         x="1.5875"
         y="15.346"
         width="1.5875"
         height="1.5875"
         fill="url(#radialGradient6739-7)"
         opacity="1"
         id="rect67" />
    </g>
    <g
       opacity=".2"
       id="g91">
      <rect
         x="3.1749"
         y="15.346"
         width="10.583"
         height="1.5875"
         fill="url(#linearGradient6741-0)"
         opacity="1"
         id="rect71" />
      <path
         transform="scale(.26458)"
         d="m35 0 1e-6 7 7-7z"
         fill="url(#radialGradient6743-9)"
         opacity="1"
         id="path73" />
      <path
         transform="scale(.26458)"
         d="m42 0-7 7 14 15 9-9 2e-6 -9.4551-3.5449-3.5449z"
         fill="url(#linearGradient6745-3)"
         opacity="1"
         id="path75" />
      <path
         transform="scale(.26458)"
         d="m58 13-9 9h9z"
         fill="url(#radialGradient6747-6)"
         opacity="1"
         id="path77" />
      <rect
         x="3.1749"
         width="6.0853"
         height="1.0583"
         fill="url(#linearGradient6749-0)"
         opacity="1"
         id="rect79" />
      <rect
         x="1.5875"
         width="1.5875"
         height="1.0583"
         ry="0"
         fill="url(#radialGradient6751-6)"
         opacity="1"
         id="rect81" />
      <rect
         x="13.758"
         y="5.8207"
         width="1.5875"
         height="9.5248"
         fill="url(#linearGradient6753-2)"
         opacity="1"
         id="rect83" />
      <rect
         x="1.5875"
         y="1.0583"
         width="1.5875"
         height="14.287"
         fill="url(#linearGradient6755-6)"
         opacity="1"
         id="rect85" />
      <rect
         x="13.758"
         y="15.346"
         width="1.5875"
         height="1.5875"
         fill="url(#radialGradient6757-1)"
         opacity="1"
         id="rect87" />
      <rect
         x="1.5875"
         y="15.346"
         width="1.5875"
         height="1.5875"
         fill="url(#radialGradient6759-8)"
         opacity="1"
         id="rect89" />
    </g>
    <path
       d="m2.9104 0.26458c-0.29315 0-0.52916 0.23601-0.52916 0.52916v14.816c0 0.29316 0.23601 0.52916 0.52916 0.52916h11.112c0.29316 0 0.52916-0.23601 0.52916-0.52916v-10.319c0-0.26458-0.16113-0.69029-0.52916-1.0583l-3.4395-3.4395c-0.35403-0.44799-0.79374-0.52916-1.0583-0.52916z"
       fill="url(#linearGradient6761-7)"
       stroke-width=".26458"
       id="path93"
       style="fill:#23252E" />
    <rect
       x="8.7209"
       y="-.54211"
       width="6.6358"
       height="6.6348"
       fill="none"
       id="rect97" />
    <path
       d="m 3.6653411,1.219379 c -0.2531703,0 -0.4569933,0.2091037 -0.4569933,0.4688332 V 14.815114 c 0,0.259739 0.203823,0.468835 0.4569933,0.468835 H 13.26189 c 0.25318,0 0.456993,-0.209104 0.456993,-0.468835 V 5.6725322 c 0,-0.2344167 -0.139155,-0.6115936 -0.456993,-0.9376488 l -2.970423,-3.04738 C 9.9857202,1.2905865 9.6059778,1.2186703 9.3774984,1.2186703 Z"
       fill="url(#linearGradient6761-7)"
       stroke-width="0.231438"
       id="path93-3"
       style="fill:#555e70" />
    <path
       fill="#555e70"
       d="m 9.5408585,12.785061 c -0.102849,0.06109 -0.154266,0.165264 -0.154266,0.31256 -1e-6,0.117353 0.03826,0.210767 0.114805,0.280227 0.07773,0.06826 0.182967,0.102378 0.315709,0.102378 0.1829655,0 0.3294585,-0.06467 0.4394795,-0.194003 0.111215,-0.130535 0.166822,-0.303573 0.166824,-0.519132 v -0.07365 h -0.328266 c -0.2666785,0 -0.4514395,0.03052 -0.5542835,0.09161 z m 1.2126065,0.919713 H 10.423406 V 13.3994 c -0.07534,0.122149 -0.169217,0.212564 -0.281626,0.271246 -0.112412,0.05747 -0.2499365,0.08623 -0.4125725,0.08623 -0.20569,0 -0.369522,-0.05747 -0.4915,-0.172446 -0.1207826,-0.116166 -0.1811729,-0.27124 -0.1811729,-0.465242 0,-0.226335 0.075344,-0.396983 0.2260179,-0.51195 0.151874,-0.114964 0.377892,-0.172442 0.678055,-0.172446 h 0.4627985 v -0.03231 c -10e-7,-0.152087 -0.05023,-0.269444 -0.150678,-0.352079 -0.09926,-0.08382 -0.239174,-0.12574 -0.4197475,-0.12574 -0.114806,0 -0.226618,0.01377 -0.33544,0.04132 -0.108821,0.02757 -0.213463,0.06886 -0.3139154,0.123952 v -0.305373 c 0.1207824,-0.04669 0.2379764,-0.08143 0.3515834,-0.104189 0.113609,-0.02395 0.224224,-0.03593 0.331854,-0.03593 0.2905925,4e-6 0.5076425,0.07545 0.6511475,0.226338 0.143502,0.150885 0.215253,0.379619 0.215255,0.686187 z m -4.4582376,0.100927 1.2453284,-2.805914 h 0.3113318 l 1.2453291,2.805914 H 8.7391837 L 8.4434189,13.182167 H 6.9490246 l -0.2957654,0.623538 z m 1.4009939,-2.33826 -0.6226636,1.402955 h 1.2453281 z"
       id="path46"
       style="fill:#f4f4f7;stroke-width:0.0389439" />
    <g
       transform="matrix(0.03891651,0,0,0.03897105,3.8824023,4.9203073)"
       id="g62"
       style="fill:#f4f4f7">
      <path
         fill="#fc0000"
         d="m 215.77778,100.38095 c -10.80024,0 -19.55556,8.86902 -19.55556,19.80953 0,10.9405 8.75532,19.80952 19.55556,19.80952 10.80023,0 19.55555,-8.86902 19.55555,-19.80952 0,-10.94051 -8.75532,-19.80953 -19.55555,-19.80953 z m -39.11111,6.60318 c -7.20016,0 -13.03704,5.91268 -13.03704,13.20635 0,7.29366 5.83688,13.20634 13.03704,13.20634 7.20015,0 13.03703,-5.91268 13.03703,-13.20634 0,-7.29367 -5.83688,-13.20635 -13.03703,-13.20635 z m -26.07408,6.60317 c -3.60007,0 -6.51852,2.95634 -6.51852,6.60318 0,3.64683 2.91845,6.60317 6.51852,6.60317 3.60008,0 6.51852,-2.95634 6.51852,-6.60317 0,-3.64684 -2.91844,-6.60318 -6.51852,-6.60318 z"
         id="path48"
         style="fill:#f4f4f7" />
      <path
         fill="#ff6600"
         d="m 192.90026,53.511124 c -9.35328,5.470235 -12.55795,17.585541 -7.15783,27.060305 5.40012,9.474763 17.36011,12.721049 26.71339,7.25078 9.35328,-5.470234 12.55795,-17.585541 7.15783,-27.060304 -5.40012,-9.474763 -17.36011,-12.721049 -26.71339,-7.250781 z M 162.2883,79.039162 c -6.23551,3.646834 -8.37196,11.723705 -4.77188,18.040203 3.60008,6.316495 11.5734,8.480685 17.80892,4.833855 6.23552,-3.646835 8.37197,-11.723706 4.77189,-18.040204 -3.60008,-6.316498 -11.57341,-8.480688 -17.80893,-4.833854 z m -19.32155,18.924863 c -3.11776,1.823401 -4.18598,5.861835 -2.38594,9.020105 1.80004,3.15826 5.7867,4.24036 8.90446,2.41692 3.11776,-1.8234 4.18598,-5.86183 2.38595,-9.0201 -1.80004,-3.158263 -5.78671,-4.240325 -8.90447,-2.416925 z"
         id="path50"
         style="fill:#f4f4f7" />
      <path
         fill="#ffd700"
         d="m 149.95328,24.507967 c -5.40012,9.47473 -2.19545,21.59007 7.15783,27.060305 9.35328,5.470235 21.31327,2.223949 26.71339,-7.250781 5.40011,-9.474763 2.19544,-21.59007 -7.15783,-27.060305 -9.35328,-5.470268 -21.31327,-2.223982 -26.71339,7.250781 z M 136.04293,62.12064 c -3.60008,6.316498 -1.46363,14.393369 4.77188,18.040203 6.23552,3.646834 14.20885,1.482644 17.80893,-4.833854 3.60008,-6.316498 1.46363,-14.393369 -4.77189,-18.040203 -6.23552,-3.646834 -14.20884,-1.482644 -17.80892,4.833854 z m -7.39184,26.175677 c -1.80003,3.158233 -0.73181,7.196668 2.38595,9.020102 3.11776,1.823401 7.10442,0.741305 8.90446,-2.416927 1.80004,-3.158265 0.73181,-7.196701 -2.38594,-9.020102 -3.11776,-1.823433 -7.10443,-0.741338 -8.90447,2.416927 z"
         id="path52"
         style="fill:#f4f4f7" />
      <path
         fill="#25cc00"
         d="m 98.444448,21.142857 c -4e-6,10.940503 8.755312,19.809524 19.555552,19.809524 10.80024,0 19.55556,-8.869021 19.55556,-19.809524 0,-10.940503 -8.75532,-19.8095237 -19.55556,-19.8095237 -10.80024,0 -19.555556,8.8690207 -19.555552,19.8095237 z m 6.518512,39.619048 c 0,7.293668 5.83689,13.206349 13.03704,13.206349 7.20016,0 13.03704,-5.912681 13.03704,-13.206349 0,-7.293669 -5.83689,-13.206349 -13.03704,-13.206349 -7.20015,0 -13.03704,5.91268 -13.03704,13.206349 z m 6.51852,26.412698 c 10e-6,3.646835 2.91844,6.603175 6.51852,6.603175 3.60008,0 6.51852,-2.95634 6.51852,-6.603175 0,-3.646834 -2.91844,-6.603174 -6.51852,-6.603174 -3.60008,0 -6.51852,2.95634 -6.51852,6.603174 z"
         id="path54"
         style="fill:#f4f4f7" />
      <path
         fill="#009999"
         d="M 52.175508,44.317491 C 57.575621,53.792221 69.53561,57.03854 78.888889,51.568272 88.242168,46.098037 91.446838,33.982697 86.046718,24.507967 80.646601,15.033204 68.686612,11.786918 59.333333,17.257186 49.980055,22.727421 46.775385,34.842728 52.175508,44.317491 Z M 77.37626,75.326989 c 3.60008,6.316498 11.573408,8.480688 17.808925,4.833854 C 101.4207,76.514009 103.55715,68.437138 99.957076,62.12064 96.356993,55.804142 88.383665,53.639952 82.148148,57.286786 75.912631,60.93362 73.776183,69.010491 77.37626,75.326989 Z M 96.0585,94.899492 c 1.800044,3.158232 5.7867,4.240328 8.90446,2.416927 3.11776,-1.823434 4.18598,-5.861869 2.38595,-9.020102 -1.80004,-3.158265 -5.78671,-4.24036 -8.904466,-2.416927 -3.117758,1.823401 -4.18598,5.861837 -2.385944,9.020102 z"
         id="path56"
         style="fill:#f4f4f7" />
      <path
         fill="#0033cc"
         d="m 23.544186,87.822209 c 9.353276,5.470269 21.313265,2.223983 26.713385,-7.25078 5.400116,-9.474764 2.195447,-21.59007 -7.157832,-27.060305 -9.353279,-5.470268 -21.313268,-2.223982 -26.713385,7.250781 -5.40012,9.474763 -2.19545,21.59007 7.157832,27.060304 z m 37.130469,14.091011 c 6.235521,3.64683 14.208849,1.48264 17.808929,-4.833855 3.600076,-6.316498 1.463629,-14.393369 -4.771885,-18.040203 -6.235524,-3.646834 -14.208852,-1.482644 -17.808928,4.833854 -3.600077,6.316498 -1.463633,14.393369 4.771884,18.040204 z m 25.840073,7.48783 c 3.117762,1.82344 7.104422,0.74134 8.904462,-2.41692 1.80004,-3.15823 0.731815,-7.196704 -2.385944,-9.020105 -3.117758,-1.8234 -7.104422,-0.741338 -8.904462,2.416925 -1.800037,3.15827 -0.731815,7.1967 2.385944,9.0201 z"
         id="path58"
         style="fill:#f4f4f7" />
      <path
         fill="#660099"
         d="m 20.222225,140 c 10.800234,0 19.555553,-8.86902 19.555556,-19.80952 -3e-6,-10.94051 -8.755322,-19.80953 -19.555559,-19.80953 -10.8002365,0 -19.55555533,8.86902 -19.55555207,19.80953 C 0.66666667,131.13098 9.4219855,140 20.222225,140 Z m 39.111108,-6.60318 c 7.200157,0 13.037037,-5.91268 13.037041,-13.20634 -4e-6,-7.29367 -5.836884,-13.20635 -13.037041,-13.20635 -7.200156,0 -13.037037,5.91268 -13.037037,13.20635 0,7.29366 5.836881,13.20634 13.037037,13.20634 z m 26.074074,-6.60317 c 3.60008,0 6.518519,-2.95634 6.518519,-6.60317 3e-6,-3.64684 -2.918442,-6.60318 -6.518519,-6.60318 -3.600076,0 -6.518518,2.95634 -6.518518,6.60318 0,3.64683 2.918442,6.60317 6.518518,6.60317 z"
         id="path60"
         style="fill:#f4f4f7" />
    </g>
  </g>
</svg>
