<?xml version="1.0" encoding="UTF-8" standalone="no"?>
<svg
   xmlns:dc="http://purl.org/dc/elements/1.1/"
   xmlns:cc="http://creativecommons.org/ns#"
   xmlns:rdf="http://www.w3.org/1999/02/22-rdf-syntax-ns#"
   xmlns:svg="http://www.w3.org/2000/svg"
   xmlns="http://www.w3.org/2000/svg"
   xmlns:xlink="http://www.w3.org/1999/xlink"
   xmlns:sodipodi="http://sodipodi.sourceforge.net/DTD/sodipodi-0.dtd"
   xmlns:inkscape="http://www.inkscape.org/namespaces/inkscape"
   width="64"
   height="64"
   version="1.1"
   id="svg125"
   sodipodi:docname="text-css.svg"
   inkscape:version="1.0.1 (3bc2e813f5, 2020-09-07)">
  <metadata
     id="metadata129">
    <rdf:RDF>
      <cc:Work
         rdf:about="">
        <dc:format>image/svg+xml</dc:format>
        <dc:type
           rdf:resource="http://purl.org/dc/dcmitype/StillImage" />
        <dc:title />
      </cc:Work>
    </rdf:RDF>
  </metadata>
  <sodipodi:namedview
     pagecolor="#f4f4f7fff"
     bordercolor="#555e70666"
     borderopacity="1"
     objecttolerance="10"
     gridtolerance="10"
     guidetolerance="10"
     inkscape:pageopacity="0"
     inkscape:pageshadow="2"
     inkscape:window-width="1737"
     inkscape:window-height="965"
     id="namedview127"
     showgrid="false"
     inkscape:zoom="12.578125"
     inkscape:cx="32"
     inkscape:cy="36.27137"
     inkscape:window-x="183"
     inkscape:window-y="7"
     inkscape:window-maximized="0"
     inkscape:current-layer="g121"
     inkscape:document-rotation="0" />
  <defs
     id="defs47">
    <linearGradient
       id="linearGradient6721-3"
       x1="7.9373"
       x2="7.9373"
       y1="15.346"
       y2="16.933"
       gradientUnits="userSpaceOnUse"
       xlink:href="#linearGradient6261" />
    <linearGradient
       id="linearGradient6261">
      <stop
         offset="0"
         id="stop3" />
      <stop
         stop-opacity="0"
         offset="1"
         id="stop5" />
    </linearGradient>
    <radialGradient
       id="radialGradient6723-5"
       cx="35"
       cy="4"
       r="3.7275"
       gradientTransform="matrix(1.696 0 0 1.0731 -24.361 -.29238)"
       gradientUnits="userSpaceOnUse"
       xlink:href="#linearGradient6261" />
    <linearGradient
       id="linearGradient6725-3"
       x1="43"
       x2="46.748"
       y1="12"
       y2="8.2517"
       gradientUnits="userSpaceOnUse"
       xlink:href="#linearGradient6261" />
    <radialGradient
       id="radialGradient6727-5"
       cx="52"
       cy="22"
       r="5.2061"
       gradientTransform="matrix(.96042 0 0 1.3331 2.0581 -7.3283)"
       gradientUnits="userSpaceOnUse"
       xlink:href="#linearGradient6261" />
    <linearGradient
       id="linearGradient6729-6"
       x1="5.8207"
       x2="5.8207"
       y1="1.0583"
       gradientUnits="userSpaceOnUse"
       xlink:href="#linearGradient6261" />
    <radialGradient
       id="radialGradient6731-2"
       cx="3.1749"
       cy="1.3229"
       r=".79373"
       gradientTransform="matrix(-2.1078e-8 -1.3333 1.6667 -2.6348e-8 .97012 5.2916)"
       gradientUnits="userSpaceOnUse"
       xlink:href="#linearGradient6261" />
    <linearGradient
       id="linearGradient6733-9"
       x1="13.758"
       x2="15.081"
       y1="10.583"
       y2="10.583"
       gradientUnits="userSpaceOnUse"
       xlink:href="#linearGradient6261" />
    <linearGradient
       id="linearGradient6735-1"
       x1="3.1749"
       x2="1.852"
       y1="8.4665"
       y2="8.4665"
       gradientUnits="userSpaceOnUse"
       xlink:href="#linearGradient6261" />
    <radialGradient
       id="radialGradient6737-2"
       cx="13.758"
       cy="15.346"
       r=".79373"
       gradientTransform="matrix(5.1718e-7 2 -1.6667 4.3098e-7 39.334 -12.171)"
       gradientUnits="userSpaceOnUse"
       xlink:href="#linearGradient6261" />
    <radialGradient
       id="radialGradient6739-7"
       cx="3.1749"
       cy="15.346"
       r=".79373"
       gradientTransform="matrix(-1.6667 -1.37e-6 1.644e-6 -2 8.4665 46.037)"
       gradientUnits="userSpaceOnUse"
       xlink:href="#linearGradient6261" />
    <linearGradient
       id="linearGradient6741-0"
       x1="7.9373"
       x2="7.9373"
       y1="15.346"
       y2="16.668"
       gradientUnits="userSpaceOnUse"
       xlink:href="#linearGradient6261" />
    <radialGradient
       id="radialGradient6743-9"
       cx="35"
       cy="4"
       r="3.7275"
       gradientTransform="matrix(1.6115 -1.9122e-7 9.5496e-8 .80482 -21.403 .78072)"
       gradientUnits="userSpaceOnUse"
       xlink:href="#linearGradient6261" />
    <linearGradient
       id="linearGradient6745-3"
       x1="43"
       x2="46.004"
       y1="12"
       y2="8.9965"
       gradientUnits="userSpaceOnUse"
       xlink:href="#linearGradient6261" />
    <radialGradient
       id="radialGradient6747-6"
       cx="52"
       cy="22"
       r="5.2061"
       gradientTransform="matrix(.76834 -9.6042e-8 1.534e-7 1.2272 12.047 -4.9986)"
       gradientUnits="userSpaceOnUse"
       xlink:href="#linearGradient6261" />
    <linearGradient
       id="linearGradient6749-0"
       x1="5.8207"
       x2="5.8207"
       y1="1.0583"
       y2=".26458"
       gradientUnits="userSpaceOnUse"
       xlink:href="#linearGradient6261" />
    <radialGradient
       id="radialGradient6751-6"
       cx="3.1749"
       cy="1.3229"
       r=".79373"
       gradientTransform="matrix(-7.442e-8 -1 1.3333 -9.9226e-8 1.4111 4.2333)"
       gradientUnits="userSpaceOnUse"
       xlink:href="#linearGradient6261" />
    <linearGradient
       id="linearGradient6753-2"
       x1="13.758"
       x2="14.816"
       y1="10.583"
       y2="10.583"
       gradientUnits="userSpaceOnUse"
       xlink:href="#linearGradient6261" />
    <linearGradient
       id="linearGradient6755-6"
       x1="3.1749"
       x2="2.1166"
       y1="8.4665"
       y2="8.4665"
       gradientUnits="userSpaceOnUse"
       xlink:href="#linearGradient6261" />
    <radialGradient
       id="radialGradient6757-1"
       cx="13.758"
       cy="15.346"
       r=".79373"
       gradientTransform="matrix(0 1.6667 -1.3333 0 34.219 -7.5846)"
       gradientUnits="userSpaceOnUse"
       xlink:href="#linearGradient6261" />
    <radialGradient
       id="radialGradient6759-8"
       cx="3.1749"
       cy="15.346"
       r=".79373"
       gradientTransform="matrix(-1.3333 0 0 -1.6667 7.4082 40.921)"
       gradientUnits="userSpaceOnUse"
       xlink:href="#linearGradient6261" />
    <linearGradient
       id="linearGradient6761-7"
       x1="21.039"
       x2="21.039"
       y1="2"
       y2="62"
       gradientTransform="matrix(.26458 0 0 .26458 0 -.26458)"
       gradientUnits="userSpaceOnUse">
      <stop
         stop-color="#ff5b59"
         offset="0"
         id="stop27" />
      <stop
         stop-color="#ff983d"
         offset="1"
         id="stop29" />
    </linearGradient>
    <radialGradient
       id="radialGradient6763-2"
       cx="40"
       cy="12"
       r="8"
       gradientTransform="matrix(1.5 0 0 -2 -14 40)"
       gradientUnits="userSpaceOnUse"
       xlink:href="#linearGradient6261" />
    <radialGradient
       id="radialGradient6765-3"
       cx="10.583"
       cy="4.2333"
       r="2.1166"
       gradientTransform="matrix(-2 3.1236e-7 -3.1236e-7 -2 31.749 12.7)"
       gradientUnits="userSpaceOnUse"
       xlink:href="#linearGradient6261" />
    <radialGradient
       id="radialGradient6767-7"
       cx="40"
       cy="12"
       r="8"
       gradientTransform="matrix(0 -1.5 2 0 16 70)"
       gradientUnits="userSpaceOnUse"
       xlink:href="#linearGradient6261" />
    <linearGradient
       id="linearGradient7282"
       x1="10.583"
       x2="6.3499"
       y1="3.1749"
       y2="3.1749"
       gradientTransform="matrix(1 0 0 .66667 0 1.4111)"
       gradientUnits="userSpaceOnUse"
       xlink:href="#linearGradient6261" />
    <linearGradient
       id="linearGradient7284"
       x1="10.583"
       x2="8.7311"
       y1="3.0426"
       y2="3.0426"
       gradientTransform="matrix(1 0 0 .66667 0 1.4111)"
       gradientUnits="userSpaceOnUse"
       xlink:href="#linearGradient6261" />
    <radialGradient
       id="radialGradient6773-5"
       cx="10.583"
       cy="4.2333"
       r="2.1166"
       gradientTransform="matrix(-.875 -1.6564e-7 1.6631e-7 -.87849 19.843 7.9521)"
       gradientUnits="userSpaceOnUse"
       xlink:href="#linearGradient6261" />
    <radialGradient
       id="radialGradient6775-9"
       cx="40"
       cy="12"
       r="8"
       gradientTransform="matrix(0 -1.3078 .87983 0 29.442 62.311)"
       gradientUnits="userSpaceOnUse"
       xlink:href="#linearGradient6261" />
    <linearGradient
       id="linearGradient7286"
       x1="10.583"
       x2="6.3499"
       y1="3.1749"
       y2="3.1749"
       gradientTransform="matrix(1 0 0 .66667 -14.816 9.3484)"
       gradientUnits="userSpaceOnUse"
       xlink:href="#linearGradient6261" />
    <linearGradient
       id="linearGradient7288"
       x1="10.583"
       x2="8.7237"
       y1="3.0426"
       y2="3.0426"
       gradientTransform="matrix(1 0 0 .66667 -14.816 9.3484)"
       gradientUnits="userSpaceOnUse"
       xlink:href="#linearGradient6261" />
    <radialGradient
       id="radialGradient6781-2"
       cx="40"
       cy="12"
       r="8"
       gradientTransform="matrix(1.4336 0 0 -.87849 -11.344 26.542)"
       gradientUnits="userSpaceOnUse"
       xlink:href="#linearGradient6261" />
    <linearGradient
       id="linearGradient7290"
       x1="40"
       x2="46"
       y1="17"
       y2="11"
       gradientTransform="matrix(.26458 0 0 .26458 -1.6667e-7 -.26458)"
       gradientUnits="userSpaceOnUse">
      <stop
         stop-color="#fefefe"
         offset="0"
         id="stop42" />
      <stop
         stop-color="#e9e9e9"
         offset="1"
         id="stop44" />
    </linearGradient>
  </defs>
  <g
     transform="matrix(3.7796 0 0 3.7796 -.021092 1.0245)"
     id="g121">
    <g
       opacity=".1"
       id="g69">
      <rect
         x="3.1749"
         y="15.346"
         width="10.583"
         height="1.5875"
         fill="url(#linearGradient6721-3)"
         opacity="1"
         id="rect49" />
      <path
         transform="scale(.26458)"
         d="m35 0 1e-6 7 7-7z"
         fill="url(#radialGradient6723-5)"
         opacity="1"
         id="path51" />
      <path
         transform="scale(.26458)"
         d="m42 0-7 7 14 15 9-9 2e-6 -9.4551-3.5449-3.5449z"
         fill="url(#linearGradient6725-3)"
         opacity="1"
         id="path53" />
      <path
         transform="scale(.26458)"
         d="m58 13-9 9h9z"
         fill="url(#radialGradient6727-5)"
         opacity="1"
         id="path55" />
      <rect
         x="3.1749"
         width="6.0853"
         height="1.0583"
         fill="url(#linearGradient6729-6)"
         opacity="1"
         id="rect57" />
      <rect
         x="1.5875"
         width="1.5875"
         height="1.0583"
         fill="url(#radialGradient6731-2)"
         opacity="1"
         id="rect59" />
      <rect
         x="13.758"
         y="5.8207"
         width="1.5875"
         height="9.5248"
         fill="url(#linearGradient6733-9)"
         opacity="1"
         id="rect61" />
      <rect
         x="1.5875"
         y="1.0583"
         width="1.5875"
         height="14.287"
         fill="url(#linearGradient6735-1)"
         opacity="1"
         id="rect63" />
      <rect
         x="13.758"
         y="15.346"
         width="1.5875"
         height="1.5875"
         fill="url(#radialGradient6737-2)"
         opacity="1"
         id="rect65" />
      <rect
         x="1.5875"
         y="15.346"
         width="1.5875"
         height="1.5875"
         fill="url(#radialGradient6739-7)"
         opacity="1"
         id="rect67" />
    </g>
    <g
       opacity=".2"
       id="g91">
      <rect
         x="3.1749"
         y="15.346"
         width="10.583"
         height="1.5875"
         fill="url(#linearGradient6741-0)"
         opacity="1"
         id="rect71" />
      <path
         transform="scale(.26458)"
         d="m35 0 1e-6 7 7-7z"
         fill="url(#radialGradient6743-9)"
         opacity="1"
         id="path73" />
      <path
         transform="scale(.26458)"
         d="m42 0-7 7 14 15 9-9 2e-6 -9.4551-3.5449-3.5449z"
         fill="url(#linearGradient6745-3)"
         opacity="1"
         id="path75" />
      <path
         transform="scale(.26458)"
         d="m58 13-9 9h9z"
         fill="url(#radialGradient6747-6)"
         opacity="1"
         id="path77" />
      <rect
         x="3.1749"
         width="6.0853"
         height="1.0583"
         fill="url(#linearGradient6749-0)"
         opacity="1"
         id="rect79" />
      <rect
         x="1.5875"
         width="1.5875"
         height="1.0583"
         ry="0"
         fill="url(#radialGradient6751-6)"
         opacity="1"
         id="rect81" />
      <rect
         x="13.758"
         y="5.8207"
         width="1.5875"
         height="9.5248"
         fill="url(#linearGradient6753-2)"
         opacity="1"
         id="rect83" />
      <rect
         x="1.5875"
         y="1.0583"
         width="1.5875"
         height="14.287"
         fill="url(#linearGradient6755-6)"
         opacity="1"
         id="rect85" />
      <rect
         x="13.758"
         y="15.346"
         width="1.5875"
         height="1.5875"
         fill="url(#radialGradient6757-1)"
         opacity="1"
         id="rect87" />
      <rect
         x="1.5875"
         y="15.346"
         width="1.5875"
         height="1.5875"
         fill="url(#radialGradient6759-8)"
         opacity="1"
         id="rect89" />
    </g>
    <path
       d="m2.9104 0.26458c-0.29315 0-0.52916 0.23601-0.52916 0.52916v14.816c0 0.29316 0.23601 0.52916 0.52916 0.52916h11.112c0.29316 0 0.52916-0.23601 0.52916-0.52916v-10.319c0-0.26458-0.16113-0.69029-0.52916-1.0583l-3.4395-3.4395c-0.35403-0.44799-0.79374-0.52916-1.0583-0.52916z"
       fill="url(#linearGradient6761-7)"
       stroke-width=".26458"
       id="path93"
       style="fill:#23252E" />
    <rect
       x="8.7209"
       y="-.54211"
       width="6.6358"
       height="6.6348"
       fill="none"
       id="rect97" />
    <path
       d="m 3.6653411,1.219379 c -0.2531703,0 -0.4569933,0.2091037 -0.4569933,0.4688332 V 14.815114 c 0,0.259739 0.203823,0.468835 0.4569933,0.468835 H 13.26189 c 0.25318,0 0.456993,-0.209104 0.456993,-0.468835 V 5.6725322 c 0,-0.2344167 -0.139155,-0.6115936 -0.456993,-0.9376488 l -2.970423,-3.04738 C 9.9857202,1.2905865 9.6059778,1.2186703 9.3774984,1.2186703 Z"
       fill="url(#linearGradient6761-7)"
       stroke-width="0.231438"
       id="path93-3"
       style="fill:#555e70" />
    <path
       fill="#f4f4f7fff"
       d="m 6.213932,5.9110794 c 0.4754671,0 0.8543552,0.1141023 1.1440927,0.3423069 0.2971675,0.2358114 0.4754675,0.5933304 0.5423301,1.0725603 H 7.3134498 C 7.2614455,7.0216744 7.1425788,6.7934699 6.9568494,6.641333 6.7636906,6.4891977 6.518528,6.4207353 6.213932,6.4207353 c -0.3714587,0 -0.668626,0.14453 -0.8840719,0.4335901 -0.2080173,0.2814513 -0.3120254,0.6617911 -0.3120254,1.1410211 0,0.4792282 0.096579,0.8595696 0.3045961,1.1334142 0.2005876,0.2738461 0.4977549,0.4183761 0.8840721,0.4183761 0.653767,0 1.0326553,-0.3423069 1.1218051,-1.0193135 H 7.9226422 C 7.8334922,9.0298722 7.647763,9.4178206 7.3505958,9.6764514 7.0608577,9.927477 6.6819701,10.056793 6.2065029,10.056793 c -0.5794759,0 -1.0252264,-0.1977776 -1.3446808,-0.5933324 -0.3045964,-0.372733 -0.45318,-0.8595698 -0.45318,-1.4605072 0,-0.6009392 0.1485836,-1.0877743 0.45318,-1.4681158 C 5.1887057,6.1164631 5.6418853,5.9110794 6.213932,5.9110794 Z m 2.9995196,1.4806124 c 0.5997231,0 0.9276964,0.2591739 0.9932904,0.7873046 H 9.8412867 C 9.8084887,8.0225133 9.7475797,7.9051519 9.6538727,7.8366895 9.5507957,7.758448 9.4008648,7.7193282 9.2087661,7.7193282 c -0.1686719,0 -0.2998611,0.02934 -0.3935677,0.097801 -0.1030773,0.063571 -0.1546161,0.1515936 -0.1546161,0.2640654 0,0.1075827 0.065594,0.2004941 0.2061544,0.2738444 0.089022,0.044012 0.2576934,0.097803 0.5013311,0.1662638 0.2904909,0.073352 0.4966449,0.1515917 0.6231489,0.2347245 0.1920993,0.1271424 0.2904903,0.2982958 0.2904903,0.51835 0,0.5183496 -0.3420293,0.7824157 -1.0260876,0.7824157 -0.6372054,0 -0.9839198,-0.2934066 -1.0401438,-0.8753276 h 0.3654563 c 0.02811,0.200494 0.098392,0.3423067 0.201469,0.4303274 0.1030771,0.078243 0.2576933,0.1173634 0.4638478,0.1173634 0.431051,0 0.651261,-0.1467024 0.651261,-0.4303277 0,-0.1418144 -0.07965,-0.2493949 -0.229581,-0.3276365 C 9.5882777,8.9320707 9.414921,8.8782805 9.1525421,8.8098181 8.8667367,8.7364661 8.6652674,8.6631158 8.5528195,8.5848742 8.3654064,8.4675112 8.276385,8.3061386 8.276385,8.0909739 8.276385,7.8758111 8.365406,7.7095473 8.5481345,7.5824051 8.7168062,7.4552629 8.9417021,7.3916918 9.2134516,7.3916918 Z m 2.3426674,0 c 0.599723,0 0.927696,0.2591739 0.993291,0.7873046 H 12.183953 C 12.151153,8.0225133 12.090243,7.9051519 11.99654,7.8366895 11.893463,7.7584485 11.743533,7.7193282 11.551434,7.7193282 c -0.168672,0 -0.299862,0.02934 -0.393569,0.097801 -0.103077,0.063571 -0.154616,0.1515936 -0.154616,0.2640654 0,0.1075827 0.06559,0.2004941 0.206156,0.2738444 0.08902,0.044012 0.257692,0.097803 0.50133,0.1662638 0.290491,0.073352 0.496646,0.1515917 0.62315,0.2347245 0.192098,0.1271424 0.29049,0.2982958 0.29049,0.51835 0,0.5183496 -0.34203,0.7824157 -1.026088,0.7824157 -0.637205,0 -0.983921,-0.2934066 -1.040145,-0.8753276 h 0.365456 c 0.02811,0.200494 0.09839,0.3423067 0.201471,0.4303274 0.103076,0.078243 0.257693,0.1173634 0.463847,0.1173634 0.431051,0 0.651261,-0.1467024 0.651261,-0.4303277 0,-0.1418144 -0.07965,-0.2493949 -0.229581,-0.3276365 C 11.930945,8.932071 11.757588,8.8782808 11.495209,8.8098181 11.209405,8.7364656 11.007935,8.6631158 10.895486,8.5848742 10.708073,8.4675112 10.619052,8.3061386 10.619052,8.0909739 c 0,-0.2151628 0.08902,-0.3814266 0.271749,-0.5085688 0.168673,-0.1271422 0.393569,-0.1907133 0.665318,-0.1907133 z"
       id="path42"
       style="fill:#f4f4f7;stroke-width:0.0368092" />
  </g>
</svg>
