<?xml version="1.0" encoding="UTF-8" standalone="no"?>
<svg
   xmlns:dc="http://purl.org/dc/elements/1.1/"
   xmlns:cc="http://creativecommons.org/ns#"
   xmlns:rdf="http://www.w3.org/1999/02/22-rdf-syntax-ns#"
   xmlns:svg="http://www.w3.org/2000/svg"
   xmlns="http://www.w3.org/2000/svg"
   xmlns:xlink="http://www.w3.org/1999/xlink"
   xmlns:sodipodi="http://sodipodi.sourceforge.net/DTD/sodipodi-0.dtd"
   xmlns:inkscape="http://www.inkscape.org/namespaces/inkscape"
   width="64"
   height="64"
   version="1.1"
   id="svg125"
   sodipodi:docname="text-x-java.svg"
   inkscape:version="1.0.1 (3bc2e813f5, 2020-09-07)">
  <metadata
     id="metadata129">
    <rdf:RDF>
      <cc:Work
         rdf:about="">
        <dc:format>image/svg+xml</dc:format>
        <dc:type
           rdf:resource="http://purl.org/dc/dcmitype/StillImage" />
        <dc:title />
      </cc:Work>
    </rdf:RDF>
  </metadata>
  <sodipodi:namedview
     pagecolor="#f4f4f7fff"
     bordercolor="#555e70666"
     borderopacity="1"
     objecttolerance="10"
     gridtolerance="10"
     guidetolerance="10"
     inkscape:pageopacity="0"
     inkscape:pageshadow="2"
     inkscape:window-width="1737"
     inkscape:window-height="965"
     id="namedview127"
     showgrid="false"
     inkscape:zoom="12.578125"
     inkscape:cx="32"
     inkscape:cy="36.27137"
     inkscape:window-x="183"
     inkscape:window-y="7"
     inkscape:window-maximized="0"
     inkscape:current-layer="g121"
     inkscape:document-rotation="0" />
  <defs
     id="defs47">
    <linearGradient
       id="linearGradient6721-3"
       x1="7.9373"
       x2="7.9373"
       y1="15.346"
       y2="16.933"
       gradientUnits="userSpaceOnUse"
       xlink:href="#linearGradient6261" />
    <linearGradient
       id="linearGradient6261">
      <stop
         offset="0"
         id="stop3" />
      <stop
         stop-opacity="0"
         offset="1"
         id="stop5" />
    </linearGradient>
    <radialGradient
       id="radialGradient6723-5"
       cx="35"
       cy="4"
       r="3.7275"
       gradientTransform="matrix(1.696 0 0 1.0731 -24.361 -.29238)"
       gradientUnits="userSpaceOnUse"
       xlink:href="#linearGradient6261" />
    <linearGradient
       id="linearGradient6725-3"
       x1="43"
       x2="46.748"
       y1="12"
       y2="8.2517"
       gradientUnits="userSpaceOnUse"
       xlink:href="#linearGradient6261" />
    <radialGradient
       id="radialGradient6727-5"
       cx="52"
       cy="22"
       r="5.2061"
       gradientTransform="matrix(.96042 0 0 1.3331 2.0581 -7.3283)"
       gradientUnits="userSpaceOnUse"
       xlink:href="#linearGradient6261" />
    <linearGradient
       id="linearGradient6729-6"
       x1="5.8207"
       x2="5.8207"
       y1="1.0583"
       gradientUnits="userSpaceOnUse"
       xlink:href="#linearGradient6261" />
    <radialGradient
       id="radialGradient6731-2"
       cx="3.1749"
       cy="1.3229"
       r=".79373"
       gradientTransform="matrix(-2.1078e-8 -1.3333 1.6667 -2.6348e-8 .97012 5.2916)"
       gradientUnits="userSpaceOnUse"
       xlink:href="#linearGradient6261" />
    <linearGradient
       id="linearGradient6733-9"
       x1="13.758"
       x2="15.081"
       y1="10.583"
       y2="10.583"
       gradientUnits="userSpaceOnUse"
       xlink:href="#linearGradient6261" />
    <linearGradient
       id="linearGradient6735-1"
       x1="3.1749"
       x2="1.852"
       y1="8.4665"
       y2="8.4665"
       gradientUnits="userSpaceOnUse"
       xlink:href="#linearGradient6261" />
    <radialGradient
       id="radialGradient6737-2"
       cx="13.758"
       cy="15.346"
       r=".79373"
       gradientTransform="matrix(5.1718e-7 2 -1.6667 4.3098e-7 39.334 -12.171)"
       gradientUnits="userSpaceOnUse"
       xlink:href="#linearGradient6261" />
    <radialGradient
       id="radialGradient6739-7"
       cx="3.1749"
       cy="15.346"
       r=".79373"
       gradientTransform="matrix(-1.6667 -1.37e-6 1.644e-6 -2 8.4665 46.037)"
       gradientUnits="userSpaceOnUse"
       xlink:href="#linearGradient6261" />
    <linearGradient
       id="linearGradient6741-0"
       x1="7.9373"
       x2="7.9373"
       y1="15.346"
       y2="16.668"
       gradientUnits="userSpaceOnUse"
       xlink:href="#linearGradient6261" />
    <radialGradient
       id="radialGradient6743-9"
       cx="35"
       cy="4"
       r="3.7275"
       gradientTransform="matrix(1.6115 -1.9122e-7 9.5496e-8 .80482 -21.403 .78072)"
       gradientUnits="userSpaceOnUse"
       xlink:href="#linearGradient6261" />
    <linearGradient
       id="linearGradient6745-3"
       x1="43"
       x2="46.004"
       y1="12"
       y2="8.9965"
       gradientUnits="userSpaceOnUse"
       xlink:href="#linearGradient6261" />
    <radialGradient
       id="radialGradient6747-6"
       cx="52"
       cy="22"
       r="5.2061"
       gradientTransform="matrix(.76834 -9.6042e-8 1.534e-7 1.2272 12.047 -4.9986)"
       gradientUnits="userSpaceOnUse"
       xlink:href="#linearGradient6261" />
    <linearGradient
       id="linearGradient6749-0"
       x1="5.8207"
       x2="5.8207"
       y1="1.0583"
       y2=".26458"
       gradientUnits="userSpaceOnUse"
       xlink:href="#linearGradient6261" />
    <radialGradient
       id="radialGradient6751-6"
       cx="3.1749"
       cy="1.3229"
       r=".79373"
       gradientTransform="matrix(-7.442e-8 -1 1.3333 -9.9226e-8 1.4111 4.2333)"
       gradientUnits="userSpaceOnUse"
       xlink:href="#linearGradient6261" />
    <linearGradient
       id="linearGradient6753-2"
       x1="13.758"
       x2="14.816"
       y1="10.583"
       y2="10.583"
       gradientUnits="userSpaceOnUse"
       xlink:href="#linearGradient6261" />
    <linearGradient
       id="linearGradient6755-6"
       x1="3.1749"
       x2="2.1166"
       y1="8.4665"
       y2="8.4665"
       gradientUnits="userSpaceOnUse"
       xlink:href="#linearGradient6261" />
    <radialGradient
       id="radialGradient6757-1"
       cx="13.758"
       cy="15.346"
       r=".79373"
       gradientTransform="matrix(0 1.6667 -1.3333 0 34.219 -7.5846)"
       gradientUnits="userSpaceOnUse"
       xlink:href="#linearGradient6261" />
    <radialGradient
       id="radialGradient6759-8"
       cx="3.1749"
       cy="15.346"
       r=".79373"
       gradientTransform="matrix(-1.3333 0 0 -1.6667 7.4082 40.921)"
       gradientUnits="userSpaceOnUse"
       xlink:href="#linearGradient6261" />
    <linearGradient
       id="linearGradient6761-7"
       x1="21.039"
       x2="21.039"
       y1="2"
       y2="62"
       gradientTransform="matrix(.26458 0 0 .26458 0 -.26458)"
       gradientUnits="userSpaceOnUse">
      <stop
         stop-color="#ff5b59"
         offset="0"
         id="stop27" />
      <stop
         stop-color="#ff983d"
         offset="1"
         id="stop29" />
    </linearGradient>
    <radialGradient
       id="radialGradient6763-2"
       cx="40"
       cy="12"
       r="8"
       gradientTransform="matrix(1.5 0 0 -2 -14 40)"
       gradientUnits="userSpaceOnUse"
       xlink:href="#linearGradient6261" />
    <radialGradient
       id="radialGradient6765-3"
       cx="10.583"
       cy="4.2333"
       r="2.1166"
       gradientTransform="matrix(-2 3.1236e-7 -3.1236e-7 -2 31.749 12.7)"
       gradientUnits="userSpaceOnUse"
       xlink:href="#linearGradient6261" />
    <radialGradient
       id="radialGradient6767-7"
       cx="40"
       cy="12"
       r="8"
       gradientTransform="matrix(0 -1.5 2 0 16 70)"
       gradientUnits="userSpaceOnUse"
       xlink:href="#linearGradient6261" />
    <linearGradient
       id="linearGradient7282"
       x1="10.583"
       x2="6.3499"
       y1="3.1749"
       y2="3.1749"
       gradientTransform="matrix(1 0 0 .66667 0 1.4111)"
       gradientUnits="userSpaceOnUse"
       xlink:href="#linearGradient6261" />
    <linearGradient
       id="linearGradient7284"
       x1="10.583"
       x2="8.7311"
       y1="3.0426"
       y2="3.0426"
       gradientTransform="matrix(1 0 0 .66667 0 1.4111)"
       gradientUnits="userSpaceOnUse"
       xlink:href="#linearGradient6261" />
    <radialGradient
       id="radialGradient6773-5"
       cx="10.583"
       cy="4.2333"
       r="2.1166"
       gradientTransform="matrix(-.875 -1.6564e-7 1.6631e-7 -.87849 19.843 7.9521)"
       gradientUnits="userSpaceOnUse"
       xlink:href="#linearGradient6261" />
    <radialGradient
       id="radialGradient6775-9"
       cx="40"
       cy="12"
       r="8"
       gradientTransform="matrix(0 -1.3078 .87983 0 29.442 62.311)"
       gradientUnits="userSpaceOnUse"
       xlink:href="#linearGradient6261" />
    <linearGradient
       id="linearGradient7286"
       x1="10.583"
       x2="6.3499"
       y1="3.1749"
       y2="3.1749"
       gradientTransform="matrix(1 0 0 .66667 -14.816 9.3484)"
       gradientUnits="userSpaceOnUse"
       xlink:href="#linearGradient6261" />
    <linearGradient
       id="linearGradient7288"
       x1="10.583"
       x2="8.7237"
       y1="3.0426"
       y2="3.0426"
       gradientTransform="matrix(1 0 0 .66667 -14.816 9.3484)"
       gradientUnits="userSpaceOnUse"
       xlink:href="#linearGradient6261" />
    <radialGradient
       id="radialGradient6781-2"
       cx="40"
       cy="12"
       r="8"
       gradientTransform="matrix(1.4336 0 0 -.87849 -11.344 26.542)"
       gradientUnits="userSpaceOnUse"
       xlink:href="#linearGradient6261" />
    <linearGradient
       id="linearGradient7290"
       x1="40"
       x2="46"
       y1="17"
       y2="11"
       gradientTransform="matrix(.26458 0 0 .26458 -1.6667e-7 -.26458)"
       gradientUnits="userSpaceOnUse">
      <stop
         stop-color="#fefefe"
         offset="0"
         id="stop42" />
      <stop
         stop-color="#e9e9e9"
         offset="1"
         id="stop44" />
    </linearGradient>
  </defs>
  <g
     transform="matrix(3.7796 0 0 3.7796 -.021092 1.0245)"
     id="g121">
    <g
       opacity=".1"
       id="g69">
      <rect
         x="3.1749"
         y="15.346"
         width="10.583"
         height="1.5875"
         fill="url(#linearGradient6721-3)"
         opacity="1"
         id="rect49" />
      <path
         transform="scale(.26458)"
         d="m35 0 1e-6 7 7-7z"
         fill="url(#radialGradient6723-5)"
         opacity="1"
         id="path51" />
      <path
         transform="scale(.26458)"
         d="m42 0-7 7 14 15 9-9 2e-6 -9.4551-3.5449-3.5449z"
         fill="url(#linearGradient6725-3)"
         opacity="1"
         id="path53" />
      <path
         transform="scale(.26458)"
         d="m58 13-9 9h9z"
         fill="url(#radialGradient6727-5)"
         opacity="1"
         id="path55" />
      <rect
         x="3.1749"
         width="6.0853"
         height="1.0583"
         fill="url(#linearGradient6729-6)"
         opacity="1"
         id="rect57" />
      <rect
         x="1.5875"
         width="1.5875"
         height="1.0583"
         fill="url(#radialGradient6731-2)"
         opacity="1"
         id="rect59" />
      <rect
         x="13.758"
         y="5.8207"
         width="1.5875"
         height="9.5248"
         fill="url(#linearGradient6733-9)"
         opacity="1"
         id="rect61" />
      <rect
         x="1.5875"
         y="1.0583"
         width="1.5875"
         height="14.287"
         fill="url(#linearGradient6735-1)"
         opacity="1"
         id="rect63" />
      <rect
         x="13.758"
         y="15.346"
         width="1.5875"
         height="1.5875"
         fill="url(#radialGradient6737-2)"
         opacity="1"
         id="rect65" />
      <rect
         x="1.5875"
         y="15.346"
         width="1.5875"
         height="1.5875"
         fill="url(#radialGradient6739-7)"
         opacity="1"
         id="rect67" />
    </g>
    <g
       opacity=".2"
       id="g91">
      <rect
         x="3.1749"
         y="15.346"
         width="10.583"
         height="1.5875"
         fill="url(#linearGradient6741-0)"
         opacity="1"
         id="rect71" />
      <path
         transform="scale(.26458)"
         d="m35 0 1e-6 7 7-7z"
         fill="url(#radialGradient6743-9)"
         opacity="1"
         id="path73" />
      <path
         transform="scale(.26458)"
         d="m42 0-7 7 14 15 9-9 2e-6 -9.4551-3.5449-3.5449z"
         fill="url(#linearGradient6745-3)"
         opacity="1"
         id="path75" />
      <path
         transform="scale(.26458)"
         d="m58 13-9 9h9z"
         fill="url(#radialGradient6747-6)"
         opacity="1"
         id="path77" />
      <rect
         x="3.1749"
         width="6.0853"
         height="1.0583"
         fill="url(#linearGradient6749-0)"
         opacity="1"
         id="rect79" />
      <rect
         x="1.5875"
         width="1.5875"
         height="1.0583"
         ry="0"
         fill="url(#radialGradient6751-6)"
         opacity="1"
         id="rect81" />
      <rect
         x="13.758"
         y="5.8207"
         width="1.5875"
         height="9.5248"
         fill="url(#linearGradient6753-2)"
         opacity="1"
         id="rect83" />
      <rect
         x="1.5875"
         y="1.0583"
         width="1.5875"
         height="14.287"
         fill="url(#linearGradient6755-6)"
         opacity="1"
         id="rect85" />
      <rect
         x="13.758"
         y="15.346"
         width="1.5875"
         height="1.5875"
         fill="url(#radialGradient6757-1)"
         opacity="1"
         id="rect87" />
      <rect
         x="1.5875"
         y="15.346"
         width="1.5875"
         height="1.5875"
         fill="url(#radialGradient6759-8)"
         opacity="1"
         id="rect89" />
    </g>
    <path
       d="m2.9104 0.26458c-0.29315 0-0.52916 0.23601-0.52916 0.52916v14.816c0 0.29316 0.23601 0.52916 0.52916 0.52916h11.112c0.29316 0 0.52916-0.23601 0.52916-0.52916v-10.319c0-0.26458-0.16113-0.69029-0.52916-1.0583l-3.4395-3.4395c-0.35403-0.44799-0.79374-0.52916-1.0583-0.52916z"
       fill="url(#linearGradient6761-7)"
       stroke-width=".26458"
       id="path93"
       style="fill:#23252E" />
    <rect
       x="8.7209"
       y="-.54211"
       width="6.6358"
       height="6.6348"
       fill="none"
       id="rect97" />
    <path
       d="m 3.6653411,1.219379 c -0.2531703,0 -0.4569933,0.2091037 -0.4569933,0.4688332 V 14.815114 c 0,0.259739 0.203823,0.468835 0.4569933,0.468835 H 13.26189 c 0.25318,0 0.456993,-0.209104 0.456993,-0.468835 V 5.6725322 c 0,-0.2344167 -0.139155,-0.6115936 -0.456993,-0.9376488 l -2.970423,-3.04738 C 9.9857202,1.2905865 9.6059778,1.2186703 9.3774984,1.2186703 Z"
       fill="url(#linearGradient6761-7)"
       stroke-width="0.231438"
       id="path93-3"
       style="fill:#555e70" />
    <g
       style="fill:#f4f4f7;enable-background:new"
       transform="matrix(0.17199061,0,0,0.18121318,21.977718,-1.1972346)"
       id="g40">
      <path
         d="m -86.682,70.021 c 0,0 -2.2303,1.2982 1.5891,1.7362 4.6278,0.52836 6.9927,0.45227 12.091,-0.51144 0,0 1.3431,0.84021 3.2156,1.5679 -11.433,4.8982 -25.875,-0.28382 -16.896,-2.7927 z"
         id="path24"
         style="fill:#f4f4f7" />
      <path
         d="m -88.08,63.628 c 0,0 -2.5019,1.8524 1.3204,2.2474 4.944,0.5104 8.8468,0.55226 15.604,-0.74823 0,0 0.93244,0.94717 2.4009,1.4648 -13.821,4.0426 -29.214,0.31805 -19.326,-2.964 z"
         id="path26"
         style="fill:#f4f4f7" />
      <path
         d="m -76.304,52.781 c 2.8185,3.2444 -0.73906,6.1616 -0.73906,6.1616 0,0 7.1525,-3.6917 3.8684,-8.3168 -3.0684,-4.3112 -5.4208,-6.4528 7.3147,-13.839 1.29e-4,0 -19.992,4.9918 -10.444,15.994 z"
         id="path28"
         style="fill:#f4f4f7" />
      <path
         d="m -61.183,74.75 c 0,0 1.6511,1.3611 -1.8185,2.4137 -6.5975,1.9983 -27.465,2.6011 -33.261,0.07996 -2.082,-0.90686 1.8242,-2.1638 3.0532,-2.4293 1.2815,-0.27723 2.0132,-0.22659 2.0132,-0.22659 -2.3172,-1.6317 -14.977,3.2046 -6.4297,4.5917 23.308,3.7781 42.488,-1.7017 36.442,-4.4294 z"
         id="path30"
         style="fill:#f4f4f7" />
      <path
         d="m -85.609,57.003 c 0,0 -10.613,2.5215 -3.7582,3.4379 2.8952,0.38742 8.6634,0.29828 14.04,-0.15282 4.393,-0.36869 8.8016,-1.1572 8.8016,-1.1572 0,0 -1.5479,0.664 -2.6685,1.4288 -10.78,2.8352 -31.6,1.5148 -25.605,-1.3838 5.0675,-2.4515 9.1898,-2.1729 9.1898,-2.1729 z"
         id="path32"
         style="fill:#f4f4f7" />
      <path
         d="m -66.569,67.644 c 10.957,-5.6922 5.8904,-11.163 2.3541,-10.426 -0.86475,0.18047 -1.2527,0.33678 -1.2527,0.33678 0,0 0.32218,-0.50472 0.93567,-0.72187 6.9959,-2.4584 12.375,7.2531 -2.256,11.099 -1.3e-4,0 0.1682,-0.15244 0.21896,-0.28808 z"
         id="path34"
         style="fill:#f4f4f7" />
      <path
         d="m -73.174,24.859 c 0,0 6.0668,6.0703 -5.756,15.402 -9.4811,7.4886 -2.1617,11.757 -0.0034,16.636 -5.5348,-4.9933 -9.5945,-9.3895 -6.8715,-13.48 3.9987,-6.0043 15.078,-8.9163 12.631,-18.558 z"
         id="path36"
         style="fill:#f4f4f7" />
      <path
         d="m -84.532,83.074 c 10.515,0.67227 26.667,-0.37411 27.049,-5.3501 0,0 -0.73479,1.8863 -8.6909,3.383 -8.9758,1.6898 -20.049,1.4931 -26.614,0.40912 0,0 1.3449,1.1132 8.2557,1.5579 z"
         id="path38"
         style="fill:#f4f4f7" />
    </g>
  </g>
</svg>
